<svg height="2330.507" viewBox="0 0 794.013 2330.507" width="794.013" xmlns="http://www.w3.org/2000/svg"><path d="m514.313 1505.107s-7.177 121.216-12.76 145.141c-5.582 23.924 11.916 44.102 2.346 84.773s-24.675 134.533-24.675 134.533c-9.171 41.469-49.842 190.995-52.235 208.939s39.753 204.811 24.323 206.546c0 0-87.722 11.165-95.697 0s-16.438-161.293-9.171-171.058c12.76-17.146 17.943-55.425 17.943-55.425 2.791-24.323 36.595-342.516 36.44-365.244s-12.117-242.831-12.117-242.831l125.602 54.627z" fill="#fff"/><path d="m383.686 2294.019c-22.908 0-28.893-3.25-31.325-6.656-6.393-8.949-10.318-75.008-11.041-88.16-1.151-20.976-1.73-40.854-1.63-55.973.181-27.117 2.454-30.171 3.546-31.639 12.004-16.131 17.137-53.201 17.188-53.573.296-2.189 2.3-3.722 4.501-3.427 2.188.296 3.724 2.312 3.427 4.5-.217 1.603-5.46 39.4-18.642 57.202-2.19 4.224-3.055 34.832-.347 83.464 2.615 46.96 6.89 79.059 9.512 82.961.427.514 5.493 5.092 47.741 2.489 22.379-1.379 43.976-4.11 44.191-4.137 2.192-.278 4.194 1.272 4.473 3.463s-1.271 4.194-3.463 4.473c-.221.028-22.324 2.824-45.119 4.211-9.134.556-16.714.802-23.012.802zm-34.026-177.66s-.004.006-.006.008c.002-.002.004-.005.006-.008z"/><path d="m355.616 2285.038c0-20.652 42.266-47.051 49.443-47.051s48.921 21.173 49.443 35.138c.416 11.115-19.95 14.583-44.66 15.882-31.898 1.676-54.227 4.803-54.227-3.969z"/><path d="m372.043 2294.951c-8.776 0-14.674-.958-17.866-3.956-1.675-1.573-2.561-3.633-2.561-5.957 0-12.85 12.796-25.795 23.529-34.393 10.225-8.188 24.209-16.659 29.914-16.659 5.247 0 19.027 6.574 29.318 12.929 15.723 9.709 23.839 18.477 24.122 26.06.575 15.373-24.168 18.75-48.447 20.026-5.202.273-10.082.581-14.802.879-9.238.583-16.954 1.07-23.208 1.07zm33.014-52.964c-6.297.444-45.44 25.425-45.44 43.051 0 .083.009.118.009.119.023.018 1.17 1.507 9.607 1.753 6.475.187 15.295-.368 25.515-1.013 4.74-.299 9.642-.608 14.886-.884 34.078-1.791 41.036-7.372 40.873-11.738-.123-3.292-5.495-10.373-20.229-19.489-12.222-7.562-23.071-11.761-25.221-11.799z"/><path d="m479.229 1873.554c-.246 0-.494-.022-.744-.069-2.171-.409-3.601-2.5-3.191-4.671.17-.904 17.088-90.867 24.181-131.531 4.354-24.968 1.601-41.134-.829-55.398-1.943-11.406-3.621-21.256-.987-32.545 5.441-23.322 12.591-143.26 12.662-144.469.131-2.206 2.048-3.89 4.229-3.757 2.205.13 3.888 2.024 3.757 4.229-.294 4.963-7.263 121.833-12.857 145.813-2.268 9.719-.789 18.397 1.083 29.385 2.412 14.163 5.415 31.789.823 58.116-7.102 40.716-24.029 130.731-24.2 131.636-.361 1.921-2.04 3.261-3.926 3.261z"/><path d="m280.653 1493.5s19.937 57.86 22.329 80.189-8.772 83.735 0 146.735c8.772 63.001 116.431 393.953 118.824 409.105s-.797 44.659 2.392 82.937c3.19 38.279 6.38 97.292 15.95 106.862s103.672-15.95 97.292-35.886c-6.38-19.937-42.112-100.384-44.504-107.561s1.767-21.231-4.613-30.801-21.06-17.146-22.655-28.31c-1.595-11.165-12.211-379.2-19.106-418.675-6.542-37.453-28.742-66.19-31.135-97.292-2.392-31.102 11.962-165.25 6.38-205.436s-157.9-10.68-157.9-10.68 12.148 95.013 16.747 108.812z" fill="#fff"/><path d="m449.857 2325.398c-5.618 0-10.192-.895-12.537-3.24-8.645-8.644-11.998-43.903-15.791-92.771-.45-5.795-.884-11.383-1.317-16.587-1.74-20.892-1.598-39.199-1.482-53.908.096-12.353.172-22.109-.874-28.738-.712-4.509-12.441-42.317-27.291-90.185-34.049-109.75-85.502-275.604-91.544-318.992-5.728-41.133-3.05-81.44-1.095-110.872 1.055-15.89 1.889-28.44 1.08-35.99-2.318-21.63-21.936-78.738-22.134-79.313-.004-.013-.009-.026-.013-.039-4.669-14.009-16.422-105.674-16.92-109.57-.268-2.093 1.136-4.033 3.207-4.434 4.934-.956 121.189-23.137 153.627.054 5.194 3.714 8.222 8.425 8.996 14.002 3.278 23.599-.151 78.236-3.178 126.442-2.143 34.131-4.166 66.369-3.176 79.238 1.189 15.464 7.623 30.652 14.435 46.732 6.599 15.576 13.421 31.682 16.652 50.178 4.748 27.182 11.104 204.721 15.309 322.203 1.792 50.038 3.339 93.252 3.816 96.595.786 5.498 6.075 10.38 11.675 15.549 3.762 3.472 7.651 7.062 10.349 11.108 4.63 6.944 4.535 15.553 4.458 22.471-.04 3.693-.079 7.182.622 9.284.808 2.424 6.223 15.046 12.492 29.661 11.769 27.432 27.885 65 32.027 77.946 2.157 6.742-2.397 13.604-13.538 20.397-11.59 7.067-30.922 14.279-50.45 18.821-8.908 2.072-19.254 3.957-27.404 3.957zm-165.417-833.187c.888 2.578 20.111 58.575 22.52 81.052.883 8.24.029 21.096-1.052 37.372-1.932 29.085-4.578 68.918 1.037 109.238 5.951 42.743 59.354 214.878 91.261 317.725 17.578 56.661 26.786 86.454 27.553 91.308 1.149 7.28 1.07 17.327.971 30.048-.113 14.547-.255 32.652 1.456 53.182.435 5.218.87 10.821 1.32 16.632 2.489 32.061 6.25 80.512 13.472 87.733 5.662 4.368 60.357-6.388 83.59-22.678 5.111-3.584 7.753-7.009 7.064-9.16-4.026-12.582-20.056-49.947-31.76-77.23-7.547-17.591-11.859-27.671-12.73-30.285-1.125-3.377-1.08-7.518-1.031-11.902.067-6.12.145-13.056-3.115-17.945-2.168-3.252-5.544-6.368-9.118-9.667-6.382-5.89-12.98-11.981-14.169-20.296-.514-3.597-1.688-35.885-3.891-97.44-3.942-110.137-10.542-294.472-15.195-321.112-3.073-17.595-9.715-33.273-16.138-48.435-7.073-16.699-13.755-32.471-15.045-49.239-1.032-13.425.914-44.44 3.168-80.352 3.003-47.829 6.405-102.039 3.238-124.84-.468-3.363-2.34-6.175-5.725-8.594-26.658-19.062-123.579-2.996-143.764.614 4.346 33.657 12.669 93.977 16.083 104.274z"/><path d="m437.732 2315.764c-3.32-8.926 35.91-49.068 41.493-50.513 5.65-1.462 55.542 2.266 58.216 18.191 1.669 9.941-1.595 14.448-40.671 28.357s-55.717 12.891-59.037 3.964z"/><path d="m451.984 2326.381c-9.827 0-15.715-3.078-18.002-9.223-.987-2.654-.365-5.965 1.959-10.42 7.513-14.405 35.61-43.633 42.281-45.359 5.403-1.399 39.956.889 55.118 10.729 4.656 3.021 7.362 6.612 8.044 10.673 2.291 13.645-4.988 19.16-43.274 32.788-20.26 7.211-35.497 10.812-46.126 10.813zm-10.455-11.887c1.158 2.76 8.459 9.713 53.897-6.462 39.713-14.135 39.129-17.613 38.069-23.927-.285-1.698-1.717-3.419-4.254-5.117-12.73-8.52-44.552-10.7-48.906-9.886-2.35 1.139-11.905 9.724-21.974 20.997-13.949 15.617-16.862 22.808-16.833 24.395zm.004.074s0 0 0 0z"/><path d="m508.726 2330.507c-1.887 0-3.566-1.341-3.927-3.263l-4.785-25.519c-.407-2.171 1.023-4.262 3.194-4.669 2.165-.402 4.262 1.022 4.669 3.194l4.785 25.519c.407 2.171-1.023 4.262-3.194 4.669-.249.046-.497.069-.742.069z"/><path d="m615.807 137.827c8.731 18.916-.504 98.916-24.748 144.372-2.455 4.604-24.161-30.053-35.063-20.036-10.901 10.018 20.855 40.63 17.383 43.606-37.124 31.82-103.417 59.221-142.308 56.57-38.892-2.652-45.423-237.77-45.423-237.77l83.431-63.641z"/><path d="m436.497 366.516c-1.961 0-3.861-.062-5.698-.187-11.06-.754-19.669-13.85-27.093-41.214-5.435-20.031-10.113-47.694-13.906-82.219-6.438-58.596-8.134-117.627-8.149-118.216-.036-1.286.549-2.511 1.572-3.292l83.431-63.641c1.234-.942 2.905-1.085 4.282-.363l146.728 76.899c.781.409 1.405 1.066 1.775 1.867 9.209 19.951.405 100.579-24.85 147.93-.731 1.371-2.018 2.28-3.527 2.493-3.407.482-6.231-2.431-11.863-8.23-5.752-5.922-16.452-16.946-20.496-13.236-4.406 4.049 6.479 19.384 11.709 26.754 6.181 8.708 9.585 13.504 5.572 16.944-18.263 15.653-44.359 30.92-71.602 41.886-25.582 10.298-49.396 15.825-67.885 15.825zm-46.786-240.016c.359 10.881 2.313 63.41 8.045 115.563 11.394 103.663 27.284 115.854 33.588 116.284 36.245 2.476 99.996-22.71 137.729-54.176-1.077-1.892-3.309-5.036-5.185-7.68-8.523-12.008-20.196-28.454-10.598-37.275 9.767-8.977 22.935 4.583 31.646 13.553 1.333 1.372 2.956 3.043 4.273 4.288 21.647-43.399 30.566-117.01 23.456-136.362l-143.187-75.043-79.769 60.847z"/><path d="m484.989 142.246s4.42 93.694 0 114.907c-4.42 21.214-43.311 61.284-65.498 63.944-21.515 2.579-66.06-13.268-79.744-30.727-15.334-19.565-55.405-124.259-55.405-124.259s-18.155-42.21-7.071-77.783 183.852-50.382 196.226-14.142c12.375 36.24 11.491 68.06 11.491 68.06z" fill="#fff"/><path d="m457.593 270.263v128.818h-91.61l6.765-112.963z" fill="#fff"/><path d="m300.695 284.688c-10.074 1.478-25.226-75.479-25.226-75.479s-45.456 11.563-44.26 34.291 7.928 55.425-.023 63.001c-7.952 7.576-23.639 36.684-23.639 36.684l34.473 27.79c3.148-9.53 7.27-21.599 9.923-27.79 4.785-11.164 45.456-39.874 50.241-36.684s8.584-23.291-1.49-21.813z" fill="#fff"/><path d="m242.021 374.975c-.416 0-.839-.065-1.255-.203-2.098-.693-3.236-2.955-2.543-5.053 3.072-9.299 7.309-21.725 10.045-28.11 4.822-11.251 38.424-35.468 49.71-38.822 1.735-.516 4.29-1.038 6.427.386 1.838 1.226 2.335 3.709 1.109 5.547-1.032 1.549-2.958 2.145-4.64 1.561-6.692.911-41.137 24.876-45.252 34.48-2.625 6.125-6.779 18.318-9.802 27.468-.556 1.681-2.119 2.746-3.798 2.746z"/><path d="m279.257 219.624h18.741v107.18h-18.741z" transform="matrix(.97741589 -.2113248 .2113248 .97741589 -51.218 67.164)"/><path d="m290.794 331.574c-.763 0-1.516-.218-2.167-.638-.892-.575-1.519-1.48-1.743-2.517l-22.649-104.76c-.467-2.159.905-4.288 3.064-4.755l18.317-3.96c1.037-.224 2.12-.027 3.012.547.892.575 1.519 1.48 1.743 2.517l22.65 104.76c.467 2.159-.906 4.288-3.065 4.755l-18.317 3.96c-.28.061-.563.09-.845.09zm-17.895-105.695 20.959 96.94 10.498-2.27-20.959-96.94z"/><g fill="#fff"><path d="m258.324 167.74s-44.659 56.621-43.064 63.798-.798 55.823-3.19 70.178c-1.457 8.742-10.304 22.208-17.003 31.408l21 16.928 30.295-43.551c10.367-11.962-6.38-59.013 0-65.759s26.148-12.84 42.266-24.356c8.89-6.351-25.12-53.431-30.304-48.646z"/><path d="m484.009 377.476s156.305 103.76 162.685 112.488 62.203 279.87 62.203 291.832 74.165 248.812 74.165 248.812l-97.339 50.79s-77.309-237.399-84.486-268.5c-7.177-31.102 7.177-39.874 3.987-50.241s-41.469-117.229-41.469-117.229l-79.748-267.952z"/><path d="m205.69 563.288s12.76 258.382 23.924 267.553c11.165 9.171 45.247 41.867 45.247 41.867l270.553-37.481s17.544-10.329 18.342-40.852.399-190.815 0-212.347-58.216-193.388-79.748-204.552-44.659-24.526-71.773-27.016-45.949 7.092-65.959 10.761c-20.011 3.669-101.51 15.458-123.441 20.242s-17.146 181.824-17.146 181.824z"/><path d="m90.854 667.758c10.367-7.975 179.033-160.293 179.033-160.293l-43.452-126.745-189.044 193.733z"/><path d="m90.854 667.758c-10.367 7.975-62.203 3.19-73.368-6.38-11.165-9.57-18.342-85.33-9.57-98.089 8.772-12.76 181.824-234.458 181.824-234.458l78.153 63.001-108.457 163.482-68.583 112.444z"/></g><path d="m414.621 325.364c-23.577 0-64.133-14.806-78.021-32.525-15.527-19.812-54.347-120.999-55.992-125.297-.79-2.063.243-4.376 2.306-5.165 2.063-.791 4.375.243 5.166 2.306.398 1.042 40.027 104.352 54.817 123.221 13.002 16.589 56.473 31.582 76.119 29.222 20.877-2.503 58.032-41.464 62.058-60.788 4.267-20.478-.035-112.971-.079-113.903-.104-2.207 1.6-4.08 3.807-4.184 2.215-.104 4.08 1.6 4.184 3.807.182 3.846 4.393 94.448-.079 115.912-4.663 22.387-44.606 64.183-68.937 67.099-1.657.199-3.448.295-5.348.295z"/><path d="m367.503 375.377c-.051 0-.103 0-.153-.003-2.208-.083-3.93-1.94-3.847-4.148l2.204-58.504c.083-2.207 1.965-3.93 4.147-3.846 2.208.083 3.93 1.94 3.847 4.148l-2.204 58.504c-.081 2.156-1.854 3.849-3.994 3.849z"/><path d="m484.006 381.477c-.761 0-1.53-.217-2.212-.67-3.339-2.222-7.381-4.13-11.291-5.976-8.839-4.173-17.188-8.115-17.093-15.841v-59.588c0-2.209 1.791-4 4-4s4 1.791 4 4v59.638c-.032 2.636 6.921 5.919 12.509 8.558 4.17 1.969 8.48 4.004 12.307 6.55 1.839 1.224 2.338 3.707 1.114 5.546-.771 1.158-2.04 1.785-3.334 1.785z"/><path d="m283.516 164.049c5.573 14.268 7.083 23.269 11.951 30.347-30.856-22.598-33.634-91.417-33.221-100.765.593-13.424 46.7-58.49 64.967-74.248 16.86-14.545 37.852-10.694 58.436-8.839 26.55-9.723 32.541-6.447 42.329-3.83 42.427 11.343 113.581 85.444 113.581 85.444s51.266 17.383 66.293 20.035c11.736 2.071 25.684 39.776 20.035 58.338-5.459 17.938-93.399-7.955-135.826-42.427s-84.658-56.57-106.412-54.802-101.305 52.592-102.133 90.747z"/><path d="m295.467 198.397c-.826 0-1.655-.255-2.362-.773-31.574-23.123-35.408-91.637-34.854-104.168.753-17.058 55.586-67.814 66.35-77.1 16.509-14.24 36.271-12.275 55.385-10.375 1.713.17 3.426.341 5.137.499 24.854-8.99 32.592-6.807 41.534-4.282.769.217 1.549.437 2.355.653 41.258 11.031 106.876 77.711 114.75 85.83 6.952 2.342 51.317 17.198 64.786 19.574 4.477.79 8.854 4.627 13.013 11.405 8.355 13.618 14.613 37.385 10.154 52.037-.744 2.444-2.811 5.718-8.428 7.434-22.442 6.857-95.405-16.769-133.748-47.922-41.717-33.896-83.348-55.56-103.565-53.92-9.196.747-33.52 12.772-56.779 30.897-25.722 20.043-40.84 40.096-41.649 55.187 1.932 5.009 3.364 9.338 4.635 13.18 2.222 6.716 3.828 11.569 6.584 15.577 1.105 1.607.89 3.778-.51 5.137-.771.748-1.776 1.13-2.787 1.13zm92.573-129.188c23.112 0 64.367 21.522 106.543 55.791 35.286 28.67 106.517 52.542 126.366 46.48 1.241-.379 2.788-1.054 3.11-2.113 3.638-11.95-1.992-33.583-9.318-45.524-3.232-5.268-6.037-7.437-7.585-7.71-15.152-2.674-64.776-19.472-66.881-20.186-.607-.206-1.156-.555-1.601-1.018-.704-.733-70.869-73.426-111.73-84.35-.844-.226-1.659-.456-2.462-.682-8.025-2.265-14.362-4.054-37.459 4.405-.553.203-1.141.281-1.734.228-2.029-.183-4.063-.385-6.097-.587-18.235-1.813-35.459-3.527-49.367 8.471-24.712 21.319-63.15 61.583-63.583 71.396-.376 8.527 1.708 48.649 15.316 76.405-.543-1.505-1.129-3.073-1.768-4.709-.191-.491-.284-1.015-.273-1.542.522-24.082 28.267-49.236 44.759-62.087 22.543-17.566 48.788-31.564 61.048-32.56.875-.071 1.781-.106 2.716-.106z"/><path d="m625.378 87.629c-58.624 0-103.19-26.76-139.318-48.454-19.497-11.707-36.335-21.818-52.341-26.383-2.125-.606-3.355-2.819-2.75-4.944s2.823-3.354 4.943-2.75c17.023 4.855 34.282 15.218 54.266 27.217 38.824 23.312 82.818 49.735 143.187 47.14 2.225-.088 4.074 1.618 4.168 3.825.095 2.207-1.617 4.073-3.824 4.168-2.808.121-5.585.179-8.33.179z"/><path d="m688.96 1089.223c-7.177-15.179 10.367-42.41 42.266-56.51 31.373-13.867 55.15-9.348 58.216 5.87 4.037 20.038-13.693 41.763-42.266 52.379-23.757 8.827-53.269 8.723-58.216-1.739z"/><path d="m712.638 1101.343c-.573 0-1.142-.006-1.707-.018-13.465-.283-22.551-3.974-25.586-10.392-2.716-5.744-2.64-12.842.221-20.525 6.017-16.159 22.894-32.004 44.044-41.353 21.16-9.353 40.965-11.224 52.977-5.002 5.851 3.03 9.577 7.782 10.777 13.741 4.445 22.062-13.975 45.467-44.793 56.918-11.42 4.243-24.411 6.631-35.933 6.631zm52.763-72.93c-9.264 0-20.703 2.719-32.558 7.959-18.956 8.379-34.57 22.835-39.781 36.828-2.09 5.615-2.259 10.565-.485 14.314 3.419 7.23 29.835 8.383 53.206-.301 26.618-9.89 43.33-30.009 39.738-47.839-.715-3.55-2.94-6.314-6.615-8.217-3.556-1.842-8.17-2.744-13.505-2.744z"/><path d="m685.723 1085.399c-1.685 0-3.252-1.073-3.803-2.762-3.158-9.7-77.444-237.922-84.579-268.84-4.711-20.411-.496-32.217 2.293-40.029 1.703-4.771 2.555-7.38 1.769-9.935-3.126-10.163-41.028-115.989-41.411-117.056-.745-2.08.337-4.37 2.417-5.115 2.078-.744 4.37.337 5.114 2.417 1.564 4.367 38.347 107.066 41.526 117.401 1.604 5.214-.011 9.738-1.881 14.977-2.77 7.758-6.216 17.412-2.032 35.541 7.057 30.576 83.619 265.789 84.392 268.161.684 2.101-.465 4.358-2.565 5.042-.411.134-.829.198-1.239.198z"/><path d="m276.267 374.974c-2.209 0-4-1.791-4-4 0-2.193 1.764-3.973 3.951-4 1.634-.064 22.241-1.981 43.759-5.431 38.844-6.229 44.285-11.639 44.981-12.661 1.242-1.825 3.731-2.297 5.558-1.052 1.825 1.244 2.297 3.733 1.052 5.558-1.681 2.466-6.146 9.017-50.859 16.139-21.442 3.416-42.892 5.447-44.441 5.447z"/><path d="m783.061 1034.61c-1.702 0-3.28-1.095-3.816-2.806-7.609-24.302-74.348-237.787-74.348-250.008-.013-4.721-11.379-63.972-28.276-144.65-19.629-93.715-30.795-140.176-33.214-144.892-5.662-6.681-91.961-65.114-153.582-106.111.331 15.07-11.156 29.593-23.189 44.805-2.849 3.601-5.794 7.325-8.654 11.133-20.203 26.895-27.912 49.908-32.994 98.496-.189 1.811-1.578 3.266-3.378 3.539-1.807.271-3.559-.704-4.276-2.377-19.852-46.253-74.73-173.938-74.73-173.938l7.35-3.159s45.775 106.502 68.837 160.209c5.344-40.044 14.04-62.605 32.796-87.573 2.92-3.888 5.897-7.652 8.777-11.292 13.807-17.455 25.731-32.53 19.934-47.024-.65-1.625-.168-3.485 1.19-4.589 1.358-1.103 3.275-1.198 4.735-.229 26.201 17.393 157.229 104.604 163.702 113.46 4.079 5.581 20.839 82.608 34.18 146.243 11.956 57.03 28.794 140.635 28.794 147.95.308 9.304 44.412 153.183 73.982 247.617.66 2.108-.514 4.352-2.622 5.012-.397.125-.801.184-1.196.184z"/><path d="m505.689 683.621c-1.378 0-2.738-.251-4.048-.763-6.825-2.665-10.967-11.378-12.312-25.896-2.355-25.441-41.422-49.35-75.891-70.444-20.976-12.837-40.788-24.962-52.712-37.184-13.801-14.146-25.973-49.192-36.178-104.166-3.999-21.539-6.806-41.542-8.455-54.53-3.043-23.947-2.641-25.133-2.446-25.702.484-1.426 1.731-2.461 3.222-2.675 2.193-.314 4.214 1.206 4.527 3.392.032.226.045.45.039.67.177 2.891 3.778 39.107 11.32 79.215 9.704 51.599 21.356 85.559 33.697 98.208 11.226 11.506 30.624 23.378 51.161 35.947 37.834 23.153 76.956 47.095 79.682 76.529 1.157 12.506 4.507 18.109 7.255 19.182 2.039.796 4.267-.819 5.412-1.853 4.642-4.185 8.255-13.415 5.811-22.277-1.87-6.777-5.236-12.301-8.801-18.149-8.149-13.372-17.386-28.528-12.842-63.182 6.037-46.036 20.177-153.845 12.465-173.461-.809-2.056.203-4.378 2.259-5.186 2.055-.807 4.378.203 5.187 2.259 7.461 18.979-1.868 100.341-11.979 177.428-4.178 31.859 3.915 45.137 11.741 57.979 3.694 6.062 7.514 12.329 9.682 20.185 3.333 12.082-1.585 24.411-8.164 30.345-3.011 2.715-6.37 4.127-9.633 4.127zm-184.259-317.135c-.12 1.848-1.52 3.422-3.425 3.695 2.104-.302 3.35-2.065 3.425-3.695z"/><path d="m445.729 820.088c-.996 0-1.993-.37-2.77-1.115-4.2-4.032-21.003-10.493-86.322-8.457-37.805 1.178-73.634 4.731-73.992 4.767-2.201.217-4.158-1.384-4.378-3.582s1.384-4.158 3.582-4.378c.36-.036 36.463-3.616 74.539-4.803 78.436-2.444 88.729 7.435 92.112 10.682 1.594 1.53 1.645 4.062.115 5.656-.785.818-1.835 1.23-2.887 1.23z"/><path d="m274.861 876.709c-.996 0-1.993-.37-2.769-1.114-.34-.326-34.099-32.694-45.017-41.663-2.697-2.215-8.309-6.826-17.6-140.028-4.536-65.03-7.749-129.772-7.78-130.418-.109-2.206 1.591-4.083 3.798-4.192 2.2-.117 4.083 1.591 4.192 3.798.031.629 3.156 63.6 7.589 127.646 7.928 114.528 13.137 134.161 15.077 137.177 11.342 9.369 43.891 40.577 45.279 41.908 1.594 1.529 1.647 4.062.118 5.656-.786.819-1.836 1.231-2.887 1.231zm-42.436-48.688s0 0 0 0z"/><path d="m68.169 675.768c-5.956 0-11.283-.39-14.056-.637-14.422-1.286-32.301-4.777-39.23-10.717-8.875-7.606-12.684-40.578-13.64-50.502-.677-7.027-3.695-42.604 3.377-52.891 8.74-12.713 174.898-225.597 181.967-234.653.66-.845 1.63-1.39 2.695-1.512 1.066-.122 2.134.187 2.968.859l78.153 63.001c1.608 1.296 1.965 3.604.823 5.325l-108.457 163.482c-1.221 1.841-3.703 2.343-5.544 1.122s-2.343-3.704-1.122-5.544l106.441-160.445-72.151-58.163c-21.309 27.307-171.15 219.377-179.181 231.06-2.873 4.178-4.484 21.867-2.006 47.591 2.446 25.393 7.433 42.238 10.883 45.195 9.8 8.4 59.607 12.952 68.326 6.247 10.123-7.787 135.652-121.458 136.919-122.606 1.636-1.482 4.166-1.358 5.65.28 1.483 1.637 1.358 4.167-.28 5.65-5.182 4.693-127.037 115.036-137.412 123.017-5.065 3.896-15.856 4.84-25.124 4.84z"/><path d="m195.065 337.125c-.816 0-1.64-.249-2.351-.767-1.786-1.3-2.18-3.802-.879-5.588 9.482-13.023 15.267-23.575 16.29-29.712 2.37-14.218 4.634-62.339 3.231-68.653-.553-2.488-1.389-6.249 21.605-37.813 10.884-14.941 22.11-29.187 22.222-29.329 1.368-1.735 3.883-2.032 5.618-.664 1.734 1.368 2.032 3.883.664 5.618-20.113 25.501-41.254 55.025-42.227 60.817 1.638 9.033-.813 56.882-3.222 71.339-1.259 7.552-7.218 18.691-17.713 33.106-.783 1.075-2.002 1.646-3.237 1.646zm24.15-105.929s0 0 0 0z"/><path d="m244.77 221.982c-1.32 0-2.613-.653-3.375-1.848-1.188-1.862-.643-4.335 1.219-5.524l37.481-23.924c1.863-1.189 4.336-.643 5.524 1.219s.643 4.335-1.219 5.524l-37.481 23.924c-.667.426-1.412.629-2.148.629z"/><path d="m246.36 310.501c-.928 0-1.861-.321-2.618-.977-1.669-1.447-1.85-3.973-.403-5.642 4.614-5.324 1.817-23.518-.225-36.802-2.496-16.236-3.614-24.904.341-29.086 3.389-3.583 9.244-6.279 16.657-9.691 8.431-3.881 17.988-8.28 25.939-14.976 1.69-1.423 4.213-1.207 5.636.483s1.207 4.213-.483 5.636c-8.778 7.392-19.296 12.233-27.747 16.124-6.049 2.784-11.765 5.416-14.13 7.858-1.38 2.438.468 14.464 1.694 22.437 2.655 17.274 5.401 35.136-1.637 43.257-.791.913-1.905 1.38-3.025 1.38z"/><path d="m263.109 872.709s-48.646 102.077-57.418 144.343-10.367 114.836 0 193.787c10.367 78.95 78.153 315.003 78.153 315.003s17.544-51.038 54.228-46.254 167.47 73.368 187.407 70.975c19.937-2.392 82.14-352.823 78.153-423.23s-43.861-218.738-52.633-243.459c-8.772-24.722-5.582-48.646-5.582-48.646l-282.306 37.481z"/><path d="m524.432 1554.619c-11.694 0-41.312-12.718-87.538-32.993-38.199-16.754-81.496-35.744-99.34-38.071-33.001-4.309-49.764 43.111-49.929 43.59-.57 1.649-2.112 2.75-3.887 2.694-1.744-.046-3.258-1.216-3.739-2.893-.679-2.363-67.986-237.246-78.273-315.586-9.668-73.626-9.649-148.392.049-195.12 8.769-42.253 55.729-141.065 57.724-145.251.582-1.222 1.743-2.066 3.084-2.244l282.306-37.481c1.235-.164 2.476.257 3.355 1.137.881.881 1.301 2.122 1.136 3.356-.03.227-2.938 23.322 5.387 46.78 9.289 26.177 48.91 174.866 52.857 244.571 2.13 37.595-14.143 149.758-30.162 238.061-9.147 50.422-18.708 96.281-26.92 129.128-4.472 17.885-8.528 31.896-12.057 41.645-5.367 14.829-8.892 18.158-12.53 18.595-.469.056-.977.084-1.523.084zm-191.295-79.357c1.772 0 3.585.116 5.452.359 18.977 2.475 60.938 20.88 101.518 38.678 35.063 15.379 74.772 32.786 84.438 32.33 1.487-1.369 7.389-9.718 19.636-59.941 8.137-33.366 17.497-78.895 26.359-128.201 18.883-105.063 30.849-200.024 29.099-230.927-3.908-69.004-43.198-216.387-52.41-242.348-6.642-18.716-6.698-36.786-6.219-45.364l-275.214 36.54c-6.755 14.339-48.277 103.362-56.188 141.477-9.529 45.911-9.51 119.655.049 192.453 8.946 68.123 61.598 256.434 74.957 303.614 7.18-14.51 22.975-38.67 48.523-38.67z"/><path d="m492.783 1119.541c-.36 0-.728-.049-1.092-.152l-185.812-52.633c-2.125-.602-3.36-2.813-2.758-4.939.603-2.125 2.812-3.361 4.939-2.759l185.811 52.633c2.126.602 3.36 2.813 2.759 4.939-.499 1.761-2.103 2.911-3.847 2.911z" fill="#fff"/><path d="m385.644 92.329c-1.85 0-3.511-1.29-3.909-3.172-3.035-14.332-2.952-71.48-1.074-83.082.353-2.181 2.406-3.663 4.588-3.309 2.181.353 3.662 2.407 3.309 4.588-1.767 10.918-1.826 66.783 1.004 80.146.458 2.161-.923 4.284-3.084 4.742-.279.059-.559.087-.833.087z" fill="#fff"/><path d="m321.716 170.085c-1.588 0-3.09-.952-3.715-2.516-.82-2.051.178-4.379 2.229-5.199.621-.248 15.404-6.041 32.26-2.439 2.16.461 3.537 2.587 3.076 4.748-.462 2.16-2.588 3.538-4.748 3.076-14.496-3.098-27.489 1.993-27.619 2.044-.486.195-.989.287-1.483.287z"/><path d="m414.65 155.831c-.962 0-1.927-.345-2.694-1.044-1.632-1.489-1.749-4.019-.261-5.651 10.454-11.464 28.094-11.203 28.84-11.188 2.209.049 3.959 1.88 3.91 4.088s-1.854 3.958-4.088 3.91c-.143-.003-14.782-.159-22.75 8.58-.789.865-1.871 1.305-2.957 1.305z"/><path d="m425.223 186.465c-1.644 0-3.281-.671-4.466-1.991-2.214-2.465-2.011-6.259.454-8.473 7.755-6.965 21.223-8.197 22.732-8.314 3.292-.254 6.19 2.213 6.447 5.516.258 3.304-2.212 6.19-5.516 6.448-2.779.226-11.643 1.683-15.646 5.278-1.146 1.029-2.579 1.536-4.007 1.536z"/><path d="m334.355 201.815c-2.458 0-4.765-1.519-5.647-3.961-1.124-3.112.478-6.545 3.588-7.676.492-.179 12.2-4.374 24.206-3.068 3.295.358 5.675 3.318 5.317 6.613-.357 3.295-3.326 5.677-6.612 5.317-9.169-.996-18.727 2.386-18.822 2.42-.67.241-1.355.355-2.029.355z"/><path d="m399.672 274.817c-3.885 0-8.151-.631-12.805-2.137-2.102-.681-3.254-2.936-2.573-5.038s2.938-3.253 5.038-2.573c12.748 4.129 21.649.07 26.869-4.063 4.973-3.937 7.762-8.7 8.941-11.731-2.655.161-5.81-.035-9.45-.261-9.142-.569-20.52-1.275-28.743 3.622-1.898 1.13-4.353.508-5.483-1.39-1.131-1.898-.508-4.353 1.39-5.483 10.348-6.161 23.635-5.336 33.333-4.733 4.291.267 8.729.542 10.547-.052 2.326-.76 4.608-.081 5.957 1.771 2.966 4.07-.44 11.665-4.258 16.932-2.942 4.059-12.483 15.137-28.763 15.138z"/><path d="m612.904 188.253c-15.365 0-34.381-3.424-54.147-9.879-26.651-8.703-51.499-21.759-69.965-36.762-41.717-33.896-83.355-55.561-103.565-53.92-2.188.178-4.132-1.46-4.312-3.663-.179-2.202 1.462-4.132 3.663-4.311 22.505-1.831 65.377 20.03 109.259 55.684 39.129 31.792 100.016 48.744 130.188 44.076 2.184-.341 4.227 1.158 4.564 3.341s-1.158 4.227-3.342 4.564c-3.762.582-7.9.869-12.344.869z" fill="#fff"/><path d="m726.442 1104.774c8.701 37.481-11.165 74.963-23.127 94.102-3.268 5.229 5.981 15.152 23.781 22.809 17.824 7.668 39.343-41.949 43.667-68.266s13.894-75.76-15.613-76.558c-29.507-.797-31.403 16.306-28.709 27.912z" fill="#fff"/><path d="m731.227 1032.713c-1.983.876-3.909 1.804-5.779 2.775.6 3.379.994 6.443.994 8.677 0 9.57-15.95 29.506-14.355 46.253s.573 52.633-.112 64.595 10.479 10.367 14.467-4.785c3.987-15.152 11.165-51.038 19.139-47.848 7.975 3.19 12.76 45.456 12.76 45.456.797 7.975-27.429 54.228-33.253 66.19s22.953 14.478 30.063 0c4.008-8.161 29.507-51.038 31.102-59.811 1.506-8.285-11.182-116.979-12.596-129.028-10.465-2.131-25.315-.042-42.43 7.524z" fill="#fff"/><path d="m463.807 661.378 76.557-15.95 27.114 106.064-76.557 18.342z" fill="#fff"/><path d="m490.918 773.835c-1.794 0-3.424-1.215-3.878-3.031l-27.114-108.457c-.264-1.056-.086-2.174.492-3.096s1.508-1.568 2.573-1.791l76.558-15.949c2.095-.437 4.161.853 4.69 2.925l27.114 106.064c.266 1.038.104 2.139-.449 3.056-.554.917-1.452 1.575-2.494 1.824l-76.558 18.342c-.313.075-.626.111-.935.111zm-22.222-109.39 25.145 100.577 68.757-16.473-25.161-98.425-68.74 14.321z"/><path d="m716.303 1166.927c-.402 0-.797-.031-1.182-.092-3.751-.595-7.596-4.073-7.139-12.049.687-12.001 1.697-47.459.122-63.988-1.048-11.005 4.538-22.848 9.027-32.364 2.73-5.79 5.311-11.259 5.311-14.269 0-1.818-.313-4.502-.931-7.978-.387-2.175 1.063-4.251 3.239-4.638 2.174-.388 4.251 1.063 4.638 3.239.709 3.991 1.054 7.059 1.054 9.377 0 4.802-2.815 10.771-6.075 17.682-4.283 9.081-9.138 19.373-8.298 28.193 1.615 16.96.597 53.022-.101 65.203-.126 2.21.283 3.319.52 3.674.999-.2 4.218-2.609 6.086-9.705.603-2.29 1.298-5.137 2.034-8.152 5.469-22.398 9.874-38.527 16.781-42.083 1.819-.937 3.837-1.047 5.677-.31 3.46 1.384 7.567 5.656 11.808 26.854 2.201 11.005 3.392 21.428 3.441 21.866.248 2.195-1.329 4.176-3.524 4.424-2.202.25-4.176-1.329-4.425-3.524-2.186-19.281-6.639-37.977-9.836-41.743-.901.978-2.888 3.925-5.711 12.562-2.435 7.452-4.655 16.545-6.439 23.852-.745 3.05-1.448 5.931-2.069 8.29-2.89 10.978-9.044 15.678-14.008 15.678z"/><path d="m755.153 1218.029c-.348 0-.702-.046-1.055-.142-2.131-.581-3.388-2.78-2.807-4.912 1.167-4.276 6.364-13.543 14.786-28.296 6.91-12.106 15.511-27.173 16.239-31.178 1.037-6.355-7.198-81.789-12.633-127.843-.259-2.194 1.31-4.182 3.504-4.441 2.192-.262 4.182 1.31 4.441 3.504 2.381 20.181 14.179 121.302 12.559 130.212-.908 4.99-7.09 16.065-17.163 33.712-6.108 10.701-13.031 22.83-14.015 26.435-.485 1.779-2.098 2.948-3.857 2.948z"/><path d="m723.251 1222.017c-.495 0-.997-.092-1.484-.287-2.052-.821-3.049-3.148-2.229-5.199 4.888-12.219 27.355-45.59 28.31-47.005 1.235-1.832 3.723-2.314 5.553-1.08 1.832 1.235 2.315 3.721 1.08 5.553-.229.339-22.942 34.073-27.515 45.503-.626 1.564-2.128 2.515-3.715 2.515z"/><path d="m703.311 1202.877c-.724 0-1.457-.197-2.116-.608-1.873-1.171-2.442-3.639-1.271-5.512l11.962-19.139c1.17-1.873 3.638-2.443 5.512-1.272 1.873 1.171 2.442 3.639 1.271 5.512l-11.962 19.139c-.759 1.214-2.062 1.881-3.396 1.881z"/><path d="m688.964 1093.224c-1.499 0-2.936-.846-3.619-2.291-2.716-5.744-2.64-12.842.221-20.525 6.017-16.159 22.894-32.004 44.044-41.353 21.16-9.353 40.965-11.224 52.977-5.002 5.851 3.03 9.577 7.782 10.777 13.741.437 2.166-.966 4.275-3.131 4.711-2.164.438-4.275-.966-4.711-3.131-.715-3.549-2.94-6.314-6.615-8.217-9.729-5.039-27.38-3.042-46.063 5.215-18.956 8.379-34.57 22.835-39.781 36.828-2.091 5.615-2.259 10.565-.485 14.314.944 1.997.091 4.382-1.906 5.326-.553.261-1.135.385-1.707.385z"/></svg>