<svg height="2343.144" viewBox="0 0 744.876 2343.144" width="744.876" xmlns="http://www.w3.org/2000/svg"><path d="m238.975 228.551s-25.218-7.523-42.17-25.54c-10.749-11.425-35.767-73.801-28.113-87.739 55.4-100.876 77.48-105.01 98.396-96.742 9.931-24.806 62.61-13.067 98.396-.023 27.286 9.946 198.838 154.138 234 176.8 64.495 41.567 129.816 69.767 141.392 126.339-18.191-2.051-44.594-2.72-89.3 16.877-60.36 26.459-108.318 110.798-200.667 96.742-77.764-11.837-185.959-195.212-211.933-206.714z"/><path d="m471.043 440.817c-6.675 0-13.578-.509-20.735-1.598-53.472-8.139-118.172-91.468-165.414-152.311-21.188-27.287-39.509-50.884-47.342-54.609-3.01-.935-26.94-8.777-43.658-26.547-6.445-6.85-15.854-27.488-21.815-44.333-5.952-16.816-11.979-38.807-6.891-48.072 50.547-92.043 74.93-107.635 99.909-99.77 16.472-27.243 81.561-6.19 101.757 1.172 16.942 6.176 82.039 57.903 144.992 107.928 39.01 30.998 75.856 60.278 89.805 69.267 11.919 7.682 23.928 14.943 35.541 21.964 52.491 31.737 97.824 59.146 107.603 106.936.257 1.254-.103 2.556-.967 3.501-.863.945-2.133 1.419-3.4 1.276-19.456-2.194-45.029-1.941-87.246 16.565-19.756 8.66-38.236 23.748-57.802 39.723-34.06 27.809-72.152 58.907-124.337 58.908zm-216.61-421.012c-16.191 0-38.163 17.145-82.234 97.393-2.044 3.722-1.327 16.837 7.42 41.552 6.413 18.119 15.242 36.357 20.101 41.521 15.979 16.984 40.16 24.377 40.402 24.449.16.048.32.107.473.175 9.119 4.038 24.397 23.34 50.617 57.108 43.798 56.407 109.984 141.65 160.299 149.309 6.847 1.042 13.443 1.531 19.808 1.531 49.033.002 84.534-28.987 119.003-57.129 20-16.33 38.892-31.754 59.649-40.853 40.034-17.55 65.911-19.307 85.709-17.734-11.383-41.204-53.812-66.856-102.626-96.37-11.662-7.051-23.721-14.342-35.736-22.086-14.281-9.204-49.578-37.252-90.447-69.729-56.597-44.973-127.033-100.945-142.756-106.675-37.926-13.823-85.121-22.708-93.312-2.248-.818 2.045-3.138 3.043-5.185 2.233-3.539-1.399-7.186-2.445-11.185-2.445z"/><path d="m409.118 350.19s162.685 87.722 165.875 97.292 102.077 298.256 105.267 316.598 24.722 111.647 0 122.811c-24.722 11.165-126.262 48.646-126.262 48.646z" fill="#fff"/><path d="m44.273 1228.21s3.862 83.199 13.158 94.102c9.297 10.903 27.912 19.538 33.494 35.089s39.234 16.747 36.364-13.158-32.377-130.387-32.377-130.387l-50.64 14.355z" fill="#fff"/><path d="m94.912 903.638 397.138 110.265-13.942-611.079s-67.661-59.545-103.813-66.988-102.466 19.489-125.699 23.616-153.683 544.186-153.683 544.186z" fill="#fff"/><path d="m254.171 357.965c-9.334 4.187-141.714 21.731-152.879 24.124-11.165 2.392-73.368 404.32-74.165 429.042s-23.127 459.346-23.127 459.346 51.01-24.565 63.798-22.329c18.342 3.207 61.288 3.419 61.288 3.419l125.086-893.601z" fill="#fff"/><path d="m418.23 2077.522s14.014 37.481 14.014 51.038 11.505 86.127-7.007 90.912-71.943-12.76-81.513-27.912-15.98-125.204-15.98-125.204l90.486 11.165z"/><path d="m417.84 2224.228c-23.656 0-67.779-15.144-77.498-30.531-9.837-15.576-15.929-115.737-16.591-127.107-.069-1.185.392-2.339 1.258-3.151.865-.812 2.047-1.199 3.226-1.051l90.485 11.165c1.479.183 2.734 1.172 3.257 2.569.582 1.558 14.268 38.321 14.268 52.439 0 2.581.471 7.713 1.066 14.21 3.521 38.412 5.566 76.274-11.072 80.575-2.325.601-5.172.883-8.398.883zm-85.815-153.312c2.71 43.89 8.702 108.408 15.081 118.509 8.424 13.336 59.604 30.705 77.131 26.175 2.016-.521 6.777-4.116 7.46-26.19.468-15.144-1.163-32.926-2.353-45.909-.614-6.701-1.1-11.994-1.1-14.941 0-9.825-8.66-35.651-12.925-47.367l-83.295-10.277z"/><path d="m401.143 1981.825s13.557 98.887 16.747 109.254-16.747 57.418-29.507 58.216c-12.76.797-50.241-43.861-51.836-61.406-1.595-17.544 3.987-126.799 3.987-126.799l60.608 20.734z" fill="#fff"/><path d="m388.113 2153.302c-16.511 0-53.885-46.743-55.549-65.051-1.603-17.625 3.747-122.893 3.976-127.365.064-1.254.713-2.405 1.753-3.108 1.04-.704 2.351-.879 3.537-.472l60.608 20.734c1.431.489 2.463 1.744 2.668 3.241 3.759 27.416 14.068 100.372 16.607 108.621 2.871 9.334-7.531 36.378-17.745 51.15-5.483 7.93-10.5 11.932-15.336 12.234-.17.011-.345.016-.52.016zm-43.848-186.708c-1.087 22.061-5.086 106.062-3.734 120.933.64 7.035 9.196 21.578 20.808 35.367 14.035 16.667 23.865 22.594 26.795 22.409 1.529-.096 4.869-2.458 9.255-8.799 10.604-15.337 18.253-39.132 16.679-44.248-3.001-9.751-14.393-91.79-16.551-107.444l-53.251-18.217z"/><path d="m276.825 2139.466c-3.279 20.613-10.455 145.399-9.658 154.969s55.823 46.254 67.785 44.659 53.431-61.406 53.431-74.963-39.512-129.099-50.029-141.153-55.947-18.6-61.529 16.489z"/><path d="m334.294 2343.132c-11.894 0-42.113-19.512-56.379-30.989-12.623-10.156-14.506-14.621-14.735-17.375-.875-10.504 6.386-135.131 9.694-155.93 2.234-14.047 10.823-23.897 24.186-27.737 17.072-4.907 37.056.935 44.308 9.247 11.34 12.996 51.016 129.412 51.016 143.783 0 11.102-19.125 38.825-22.959 44.27-7.04 9.999-24.441 33.391-33.943 34.657-.371.05-.768.074-1.187.074zm-63.148-49.112c.758 2.627 10.354 12.049 28.754 24.136 17.736 11.65 31.022 17.449 34.524 16.973 2.931-.391 13.698-10.371 28.459-31.333 13.965-19.833 21.5-35.238 21.5-39.664 0-12.053-38.929-126.932-49.043-138.523-4.772-5.47-21.593-10.978-36.071-6.818-10.503 3.019-16.726 10.187-18.494 21.305-3.447 21.669-10.254 145.089-9.629 153.926zm.007.079v.004zm5.672-154.633h.01z"/><path d="m280.724 2100.648s1.595 115.634 3.19 126.001 24.722 33.494 37.481 31.899 38.279-35.089 35.089-47.051-19.139-82.14-20.734-110.849-55.026 0-55.026 0z" fill="#fff"/><path d="m320.116 2262.626c-9.415 0-20.029-8.669-24.337-12.58-6.602-5.994-14.706-15.558-15.818-22.788-1.619-10.521-3.171-121.822-3.236-126.555-.021-1.493.792-2.872 2.106-3.579 3.771-2.026 37.305-19.546 52.99-10.75 3.363 1.886 7.467 5.854 7.923 14.051 1.532 27.589 17.109 96.93 20.605 110.04 2.151 8.069-4.805 20.076-9.143 26.515-8.01 11.888-20.181 24.394-29.315 25.536-.585.073-1.178.108-1.775.108zm-35.358-159.571c.479 33.763 1.866 114.911 3.108 122.987 1.295 8.409 22.658 29.843 33.032 28.538 4.726-.591 14.873-9.007 23.673-22.067 6.62-9.826 8.812-17.117 8.047-19.984-2.64-9.901-19.194-81.617-20.863-111.658-.275-4.957-2.327-6.664-3.846-7.516-8.472-4.753-30.045 3.046-43.151 9.701z"/><path d="m94.912 903.638c-19.139 51.038-35.582 188.204-22.576 275.927 13.006 87.722 102.324 448.979 104.716 457.751s-1.595 122.811 17.544 184.217 70.975 289.484 77.355 307.028c20.734-23.127 47.051-16.747 70.178-17.544 2.392-33.494 10.657-226.359 5.328-275.927-7.975-74.165-30.847-133.976-35.632-169.862-2.998-22.481 3.987-275.927-21.978-489.208-3.857-119.341-7.549-215.061-10.146-221.324-32.301-8.911-158.514-43.73-184.789-51.057z"/><path d="m271.952 2132.56c-.252 0-.507-.024-.76-.073-1.38-.267-2.519-1.239-2.999-2.56-2.712-7.457-12.895-49.757-25.785-103.311-18.015-74.836-40.434-167.972-51.63-203.894-14.327-45.967-15.827-120.063-16.633-159.871-.235-11.623-.458-22.602-.952-24.485-.808-2.961-91.679-369.624-104.813-458.215-5.993-40.42-6.274-94.644-.792-152.683 4.856-51.413 13.892-99.4 23.58-125.235.728-1.942 2.814-3.006 4.819-2.448 11.976 3.34 53.743 14.905 184.713 51.036 1.188.328 2.225 1.203 2.697 2.342 1.83 4.416 4.362 34.434 10.442 222.551 19.378 159.293 20.426 343.533 20.931 432.093.17 29.86.293 51.433 1.021 56.892 1.825 13.688 6.413 31.243 11.727 51.571 8.468 32.4 19.007 72.725 23.918 118.393 5.442 50.624-3.2 247.029-5.315 276.639-.146 2.041-1.808 3.642-3.853 3.712-4.619.16-9.408.039-14.041-.078-19.46-.492-37.831-.955-53.296 16.295-.767.854-1.854 1.33-2.979 1.33zm-174.534-1224.073c-17.712 51.207-34.034 183.43-21.125 270.49 12.671 85.465 101.051 444.208 104.618 457.285.722 2.648.899 10.015 1.231 26.427.798 39.411 2.283 112.769 16.271 157.652 11.275 36.174 33.729 129.452 51.771 204.403 10.336 42.936 19.489 80.964 23.684 96.267 16.952-15.024 36.833-14.524 54.56-14.074 3.434.086 6.734.169 9.957.15 2.892-44.936 10.115-224.88 5.095-271.571-4.847-45.077-15.303-85.081-23.703-117.225-5.38-20.583-10.025-38.36-11.916-52.536-.795-5.963-.906-25.514-1.091-57.904-.504-88.442-1.552-272.475-20.894-431.349-.015-.118-.023-.236-.027-.354-1.617-50.057-6.41-198.384-9.504-218.23-118.582-32.714-163.179-45.053-178.927-49.431z"/><path d="m492.05 1013.902c6.385 33.281.005 197.561-12.755 297.245s-39.874 275.927-40.671 289.484 10.367 43.861 3.987 103.672-27.912 151.52-29.507 199.369 0 59.811 0 66.19-8.772 38.279-25.519 40.671-54.228-45.456-54.228-45.456-39.076-302.243-43.861-357.269-38.77-661.107-38.77-661.107z"/><path d="m386.372 2014.617c-8.283 0-19.775-7.587-35.033-23.11-11.489-11.689-20.742-23.467-21.131-23.962-.442-.566-.726-1.241-.817-1.954-.391-3.023-39.142-302.956-43.879-357.435-4.735-54.457-38.438-655.168-38.779-661.23-.072-1.288.481-2.531 1.486-3.34s2.339-1.083 3.581-.737l241.324 67.201c1.463.407 2.569 1.608 2.855 3.1 6.716 35.011-.414 202.398-12.716 298.507-7.024 54.873-18.282 132.16-27.329 194.262-7.245 49.737-12.968 89.021-13.316 94.949-.215 3.657.622 9.224 1.683 16.273 2.546 16.919 6.807 45.238 2.289 87.588-2.812 26.359-8.606 59.196-14.211 90.952-7.074 40.087-14.39 81.54-15.275 108.126-1.243 37.294-.551 52.464-.179 60.615.104 2.302.181 3.965.181 5.442 0 5.772-8.344 41.687-28.954 44.631-.575.082-1.169.124-1.779.124zm-49.19-51.147c15.058 19.028 39.987 44.519 49.838 43.104 13.27-1.896 22.085-30.219 22.085-36.711 0-1.295-.072-2.882-.173-5.078-.377-8.261-1.078-23.637.175-61.246.905-27.153 7.942-67.031 15.394-109.25 5.58-31.623 11.352-64.323 14.134-90.41 4.408-41.328.404-67.939-2.245-85.549-1.174-7.804-2.022-13.442-1.758-17.933.368-6.27 5.829-43.753 13.386-95.632 9.042-62.071 20.296-139.32 27.311-194.124 12.871-100.552 18.604-256.823 13.199-293.567l-233.494-65.02c3.441 61.264 33.969 603.889 38.449 655.409 4.577 52.653 41.114 335.977 43.7 356.008z"/><g fill="#fff"><path d="m319.797 1201.966c-.821 0-1.648-.251-2.361-.774l-77.355-56.681c-1.782-1.306-2.168-3.809-.862-5.591s3.81-2.167 5.591-.862l77.355 56.681c1.782 1.306 2.168 3.809.862 5.591-.783 1.069-1.998 1.636-3.229 1.636z"/><path d="m227.289 1692.571c-1.991 0-3.716-1.485-3.965-3.511-.271-2.193 1.288-4.189 3.48-4.459 17.243-2.124 44.217-12.625 44.487-12.731 2.063-.804 4.378.21 5.183 2.268.806 2.057-.21 4.377-2.267 5.183-1.143.447-28.192 10.975-46.425 13.222-.166.02-.331.03-.494.03z"/><path d="m370.439 2128.971c-.971 0-1.943-.351-2.712-1.061-5.382-4.967-21.034-25.564-21.698-26.439-.587-.774-.872-1.735-.804-2.704 2.385-33.383 3.594-213.598-1.745-263.251-4.847-45.077-15.303-85.081-23.703-117.226-5.38-20.583-10.025-38.36-11.916-52.536-.795-5.963-.906-25.514-1.091-57.904-.504-88.442-1.552-272.475-20.894-431.349-.267-2.193 1.294-4.187 3.487-4.454s4.188 1.295 4.454 3.487c19.397 159.333 20.447 343.678 20.952 432.27.17 29.86.293 51.433 1.021 56.892 1.825 13.688 6.413 31.243 11.726 51.571 8.469 32.4 19.008 72.724 23.918 118.393 5.296 49.254 4.2 226.026 1.872 263.162 4.99 6.531 16.059 20.712 19.847 24.209 1.623 1.499 1.725 4.029.227 5.652-.789.854-1.863 1.287-2.94 1.287z"/><path d="m283.922 287.189s-.789 78.153 0 100.482 24.477 33.494 47.722 35.886 50.625-16.963 51.688-41.976 0-107.152 0-107.152l-99.41 12.759z"/><path d="m240.391 265.074s-31.182-20.813-40.277-38.177 3.307-28.94 12.945-23.787 27.332 61.964 27.332 61.964z"/></g><path d="m240.391 269.074c-.773 0-1.547-.223-2.221-.673-1.308-.873-32.141-21.587-41.601-39.647-6.381-12.182-3.414-21.718 1.489-26.58 4.623-4.585 11.251-5.603 16.885-2.591 3.421 1.829 8.687 7.462 19.136 35.024 5.606 14.789 10.086 29.135 10.131 29.278.504 1.618-.066 3.378-1.424 4.393-.709.53-1.552.797-2.396.797zm-32.155-63.191c-1.629 0-3.232.672-4.544 1.972-2.876 2.851-4.396 8.864-.036 17.187 5.394 10.296 19.465 22.195 29.132 29.587-7.826-23.114-17.286-45.676-21.615-47.991-.947-.507-1.946-.755-2.937-.755z"/><path d="m392.77 159.043c3.026-14.08 15.972-22.011 28.113-11.523 12.341 10.661-15.095 78.345-15.095 78.345l-13.018-66.821z" fill="#fff"/><path d="m405.79 229.864c-.128 0-.257-.006-.387-.019-1.763-.17-3.203-1.479-3.541-3.217l-13.018-66.822c-.104-.531-.099-1.077.015-1.605 1.971-9.168 7.531-16.11 14.875-18.571 6.567-2.201 13.587-.474 19.765 4.861 4.146 3.581 8.479 12.383-1.695 47.316-5.312 18.238-12.239 35.387-12.309 35.559-.616 1.52-2.091 2.497-3.705 2.497zm-8.931-70.749 10.16 52.155c2.205-6.144 4.818-13.845 7.119-21.75 9.417-32.354 5.093-38.141 4.13-38.972-4.01-3.464-8.157-4.614-11.992-3.33-4.38 1.468-7.94 5.99-9.417 11.898z"/><path d="m390.29 107.004c1.133 7.64 19.548 110.143 16.537 136.431-2.97 25.933-26.807 69.985-56.64 75.995-34.582 6.967-71.526-13.378-89.714-29.691-26.122-23.43-60.36-120.072-60.36-134.867s59.698-70.162 78.551-72.675c24.806-3.307 110.493 17.166 111.625 24.806z" fill="#fff"/><path d="m335.566 324.858c-32.635 0-63.318-19.185-77.764-32.141-26.412-23.69-61.689-120.678-61.689-137.844 0-11.935 25.632-36.602 33.488-43.877 16.031-14.848 37.2-31.251 48.535-32.762 13.835-1.844 43.222 3.112 66.113 8.365 12.648 2.903 24.335 6.12 32.906 9.059 13.653 4.682 16.605 7.491 17.091 10.761.138.933.575 3.519 1.181 7.098 4.468 26.433 18.065 106.871 15.373 130.375-3.223 28.134-28.13 73.076-59.823 79.461-5.148 1.037-10.304 1.507-15.411 1.507zm-50.225-239.041c-2.319 0-4.385.11-6.148.345-7.569 1.009-25.728 13.634-44.156 30.702-20.086 18.603-30.924 33.467-30.924 38.008 0 6.396 8.25 33.712 20.087 62.682 14.051 34.386 28.245 59.611 38.944 69.207 17.317 15.533 45.927 30.034 72.883 30.036 4.525 0 8.999-.408 13.37-1.289 26.809-5.401 50.539-47.072 53.456-72.529 1.7-14.848-3.452-57.958-15.314-128.131-.507-2.997-.876-5.184-1.081-6.461-7.262-6.21-72.862-22.57-101.116-22.57zm101.429 22.871s0 0 0 0z"/><path d="m619.327 125.887c-.918 0-1.841-.314-2.594-.957-15.037-12.826-69.719-23.824-117.963-33.528-38.812-7.807-75.471-15.18-89.743-23.068-1.934-1.069-2.635-3.502-1.566-5.436 1.069-1.933 3.503-2.635 5.436-1.566 13.191 7.29 49.263 14.545 87.452 22.227 51.602 10.379 104.96 21.112 121.576 35.284 1.681 1.434 1.881 3.958.447 5.639-.791.928-1.914 1.404-3.045 1.404z"/><path d="m286.95 81.862c86.802 7.778 130.062 35.08 192.903 70.15 27.346 15.261 104.196-17.446 189.913 38.504 11.783 7.691 1.855-12.853-14.883-23.153-83.306-51.263-127.23-26.476-158.763-51.02"/><path d="m673.717 196.199c-2.237 0-4.478-1.25-6.138-2.333-55.194-36.027-106.231-34.607-143.497-33.573-20.014.557-35.815.996-46.179-4.788-4.301-2.4-8.51-4.764-12.646-7.087-55.117-30.953-98.651-55.402-178.664-62.572-2.2-.197-3.824-2.141-3.627-4.341.198-2.201 2.145-3.82 4.342-3.627 81.72 7.323 125.914 32.142 181.866 63.565 4.131 2.32 8.334 4.68 12.628 7.077 8.443 4.712 23.276 4.299 42.058 3.777 37.271-1.036 87.934-2.448 143.389 31.88-3.098-4.207-8.052-9.462-14.462-13.406-48.016-29.548-82.16-33.364-109.596-36.43-19.872-2.221-35.568-3.975-49.528-14.841-1.743-1.357-2.057-3.87-.699-5.613 1.355-1.743 3.869-2.057 5.613-.7 12.179 9.479 26.884 11.123 45.503 13.203 26.738 2.988 63.359 7.081 112.9 37.567 12.418 7.642 22.149 21.075 21.927 27.101-.075 2.034-1.075 3.696-2.745 4.561-.795.411-1.619.582-2.444.582z"/><path d="m286.954 97.361c-1.223 0-2.43-.559-3.215-1.616-9.368-12.621-19.213-66.162-20.615-76.686-.292-2.19 1.246-4.202 3.437-4.493 2.188-.292 4.202 1.247 4.493 3.436 1.91 14.331 11.729 63.033 19.109 72.975 1.316 1.774.946 4.279-.828 5.596-.716.532-1.552.788-2.381.788z" fill="#fff"/><path d="m330.753 151.52c-.858 0-1.724-.275-2.454-.844-1.743-1.357-2.057-3.87-.699-5.613 1.771-2.276 17.725-22.129 32.229-18.547 2.146.53 3.454 2.698 2.924 4.843-.529 2.144-2.696 3.455-4.842 2.924-8.072-1.995-20.336 10.99-23.998 15.694-.788 1.013-1.968 1.543-3.159 1.543z"/><path d="m234.837 171.363c-.685 0-1.378-.176-2.012-.545-1.908-1.113-2.553-3.562-1.439-5.471 6.905-11.839 31.665-7.096 36.558-6.025 2.158.472 3.524 2.605 3.052 4.763-.473 2.158-2.603 3.522-4.761 3.053-9.527-2.075-24.998-2.799-27.938 2.24-.743 1.274-2.083 1.985-3.459 1.985z"/><path d="m257.848 208.878c-2.627 0-5.145-1.485-6.338-4.019-1.647-3.498-.147-7.668 3.351-9.316 8.61-4.056 20.797-4.173 22.158-4.173 3.866 0 7 3.134 7 7s-3.134 7-7 7c-2.836.007-11.291.529-16.193 2.838-.963.454-1.979.669-2.978.669z"/><path d="m344.821 187.33c-2.393 0-4.724-1.227-6.03-3.435-1.97-3.326-.871-7.619 2.455-9.589 4.27-2.529 14.84-8.464 20.764-8.957 3.855-.318 7.235 2.542 7.557 6.395.32 3.846-2.532 7.225-6.375 7.555-1.97.254-8.884 3.546-14.812 7.054-1.119.662-2.347.977-3.559.977z"/><path d="m319.299 263.444c-2.316 0-4.406-.364-5.937-1.306-1.881-1.158-2.468-3.622-1.31-5.503 1.143-1.86 3.563-2.455 5.438-1.349 1.629.626 9.458-.235 18.864-4.142 7.407-3.076 9.857-5.672 10.132-6.338.842-2.042 3.177-3.018 5.222-2.176 2.043.841 3.018 3.179 2.177 5.221-2.673 6.49-14.969 11.094-20.132 12.772-3.778 1.228-9.611 2.82-14.455 2.82zm-1.76-8.13c.006.003.012.007.018.011-.006-.004-.012-.007-.018-.011z"/><path d="m283.922 347.118c-2.209 0-4-1.791-4-4v-34.796c0-2.209 1.791-4 4-4s4 1.791 4 4v34.796c0 2.209-1.791 4-4 4z"/><path d="m383.674 353.093c-2.186 0-3.971-1.758-3.999-3.949l-.564-44.626c-.027-2.209 1.74-4.022 3.949-4.05h.052c2.186 0 3.971 1.758 3.999 3.949l.564 44.626c.027 2.209-1.74 4.022-3.949 4.05-.018 0-.035 0-.052 0z"/><path d="m4 1274.476c-.773 0-1.544-.224-2.211-.666-1.178-.781-1.856-2.127-1.784-3.539.224-4.346 22.338-434.868 23.124-459.27.423-13.084 16.89-123.746 33.246-223.413 9.456-57.624 18.033-106.618 24.804-141.687 12.807-66.337 15.805-66.98 19.275-67.724 3.981-.853 22.084-3.457 45.004-6.753 37.951-5.459 101.472-14.595 107.077-17.109 2.013-.904 4.383-.004 5.286 2.013.904 2.016.003 4.383-2.013 5.287-6.141 2.755-51.089 9.368-109.212 17.728-20.026 2.88-37.553 5.401-43.214 6.416-4.309 8.527-16.935 67.412-40.133 209.346-17.358 106.21-31.769 205.094-32.125 216.155-.734 22.79-19.96 397.665-22.787 452.729 15.182-7.084 48.818-21.905 60.198-19.773 2.171.407 3.602 2.498 3.194 4.669-.407 2.172-2.508 3.601-4.669 3.194-8.347-1.56-42.041 12.663-61.318 21.998-.553.268-1.148.4-1.743.4z"/><path d="m90.922 1361.402c-1.729 0-3.323-1.13-3.836-2.872-1.751-5.953-10.384-12.573-18-18.415-8.44-6.473-15.106-11.585-15.639-17.441-.784-8.623-7.893-70.029-7.965-70.648-.254-2.195 1.319-4.179 3.514-4.434 2.196-.256 4.179 1.319 4.434 3.513.293 2.532 7.191 62.123 7.984 70.844.215 2.365 7.632 8.053 12.54 11.817 8.587 6.585 18.32 14.049 20.808 22.505.623 2.119-.59 4.343-2.709 4.966-.377.111-.757.164-1.131.164z"/><path d="m206.691 371.577s-18.474 290.425-20.866 327.906-7.177 74.763-31.899 114.737c-24.722 39.973-87.722 173.949-94.9 206.646s28.709-148.33 27.114-169.065c-1.595-20.734-2.392-216.116-2.392-216.116" fill="#fff"/><path d="m58.21 1028.82c-.335 0-.647-.04-.919-.095-3.842-.776-3.187-4.7-2.906-6.376.196-1.178.501-2.904.898-5.104.786-4.361 1.938-10.602 3.327-18.137 7.359-39.893 24.594-133.316 23.541-147-1.588-20.642-2.372-208.423-2.404-216.406-.009-2.209 1.774-4.007 3.983-4.016h.018c2.201 0 3.99 1.78 3.999 3.984.008 1.952.815 195.472 2.381 215.825.876 11.386-8.137 64.132-19.082 124.172 22.083-53.307 60.534-132.92 79.477-163.55 24.803-40.104 29.067-77.758 31.31-112.888 2.393-37.481 20.866-327.906 20.866-327.906l7.984.508s-18.474 290.426-20.866 327.907c-2.308 36.14-6.716 74.912-32.489 116.586-24.992 40.41-87.531 174.128-94.395 205.399-.305 1.387-.534 2.399-.693 3.063-.795 3.317-2.61 4.033-4.029 4.033z"/><path d="m340.652 745.485c-10.303 0-21.728-15.133-24.102-18.443-.414-.578-.667-1.255-.733-1.963-.095-1.033-9.632-103.764-15.923-146.295-2.773-18.75-11.427-43.866-19.796-68.154-11.059-32.094-21.504-62.409-20.11-80.992.165-2.203 2.098-3.855 4.288-3.69 2.203.165 3.855 2.085 3.69 4.288-1.271 16.938 9.388 47.872 19.695 77.788 8.488 24.633 17.265 50.105 20.146 69.59 5.969 40.353 14.819 134.359 15.872 145.626 5.785 7.762 14.164 15.302 17.52 14.165.483-.164 4.705-2.169 4.109-21.85-.901-29.739 11.44-100.357 22.33-162.663 8.079-46.228 15.71-89.892 14.398-98.422-.336-2.184 1.161-4.226 3.345-4.562 2.182-.336 4.226 1.162 4.562 3.345 1.439 9.354-4.544 44.48-14.425 101.016-10.823 61.928-23.091 132.12-22.214 161.043.541 17.856-2.491 27.284-9.542 29.67-1.018.344-2.06.502-3.111.502z"/><path d="m386.166 698.191c-4.162 0-83.91 13.255-83.91 13.255l15.152 106.862 55.026-12.303" fill="#fff"/><path d="m317.408 822.308c-.806 0-1.601-.244-2.275-.71-.917-.635-1.528-1.624-1.685-2.729l-15.152-106.862c-.306-2.15 1.161-4.151 3.304-4.507 13.372-2.222 80.291-13.309 84.566-13.309 2.209 0 4 1.791 4 4s-1.773 3.983-3.969 4c-3.574.142-48.048 7.358-79.433 12.562l13.996 98.707 50.801-11.359c2.16-.481 4.295.875 4.776 3.031.482 2.156-.875 4.294-3.03 4.776l-55.026 12.303c-.289.065-.582.096-.873.096z"/><path d="m302.256 885.308c-.014 0-.027 0-.042 0l-78.152-.798c-2.209-.022-3.981-1.832-3.959-4.041.022-2.195 1.81-3.959 3.999-3.959h.042l78.152.798c2.209.022 3.981 1.832 3.959 4.041-.022 2.195-1.81 3.959-3.999 3.959z"/><path d="m386.166 950.702c-.447 0-.901-.075-1.347-.235-11.48-4.105-145.021-37.223-205.661-39.643-2.208-.088-3.926-1.949-3.838-4.156s1.948-3.929 4.156-3.837c59.114 2.359 192.99 34.724 208.036 40.104 2.08.744 3.164 3.033 2.42 5.113-.585 1.635-2.124 2.654-3.767 2.654z"/><path d="m455.304 597.42c-1.997 0-3.723-1.492-3.967-3.524-3.193-26.637-6.463-167.192.097-192.86.546-2.141 2.725-3.433 4.865-2.885 2.141.547 3.433 2.726 2.885 4.866-6.199 24.263-2.992 164.167.097 189.928.263 2.193-1.302 4.185-3.495 4.448-.162.02-.323.029-.481.029z"/><path d="m415.5 996.158c-.352 0-.71-.047-1.065-.145l-309.308-85.33c-2.13-.587-3.38-2.79-2.792-4.92.587-2.129 2.785-3.381 4.919-2.792l309.308 85.33c2.13.587 3.38 2.79 2.793 4.92-.49 1.774-2.1 2.937-3.854 2.937z"/><path d="m58.076 1024.805s-31.746 116.864-18.189 123.052 67.797 14.96 67.797 14.96 2.913-265.737-5.75-246.918-33.45 76.79-43.858 108.906z"/><path d="m107.683 1166.817c-.212 0-.426-.017-.639-.051-2.236-.362-54.931-8.931-68.819-15.27-5.91-2.698-9.787-12.839 1.756-68.301 6.195-29.763 14.155-59.146 14.234-59.439.018-.062.035-.124.056-.185 10.532-32.5 35.764-91.39 44.028-109.345 1.747-3.795 4.835-3.311 5.438-3.176 3.553.799 4.522 4.537 5.472 14.665.619 6.612 1.149 16.215 1.575 28.542.713 20.669 1.153 49.35 1.308 85.245.263 61.079-.402 122.743-.409 123.359-.013 1.165-.533 2.266-1.424 3.016-.727.611-1.641.94-2.576.94zm-65.938-22.51c10.932 4.861 48.776 11.554 61.988 13.796.808-78.53.72-196.185-2.371-231.166-10.553 23.899-30.429 71.202-39.451 99.008-.48 1.78-7.695 28.587-13.577 56.401-11.142 52.683-7.356 60.912-6.589 61.961z"/><path d="m571.583 169.672c-.2 0-.402-.015-.606-.046-16.858-2.566-31.588-3.11-44.584-3.59-20.268-.749-37.771-1.395-54.837-9.381-15.555-7.279-29.347-14.506-42.686-21.496-42.034-22.027-78.337-41.05-143.741-46.91-2.2-.197-3.824-2.141-3.627-4.341.198-2.201 2.146-3.818 4.342-3.627 66.99 6.003 103.947 25.369 146.74 47.792 13.26 6.948 26.971 14.133 42.362 21.336 15.594 7.297 31.546 7.886 51.742 8.633 13.21.488 28.182 1.041 45.491 3.676 2.185.332 3.686 2.372 3.353 4.556-.301 1.98-2.006 3.399-3.949 3.399z" fill="#fff"/><path d="m302.256 371.577s-18.334-30.16-27.912-41.325c-11.165 3.987-23.924 85.33-19.139 87.722s31.102-56.909 47.051-46.398c15.95 10.511 27.114 32.841 27.114 32.841s15.551-32.929 28.51-30.42 51.238 44.048 51.238 44.048-5.238-84.194-11.086-87.793c-5.848 10.772-40.152 43.745-40.152 43.745" fill="#fff"/><path d="m255.538 422.078c-.681 0-1.389-.159-2.122-.525-2.895-1.448-3.643-4.919-3.076-14.287.735-12.189 3.671-30.912 7.305-46.59 7.253-31.296 12.931-33.324 15.354-34.19 1.563-.558 3.304-.095 4.382 1.162 8.942 10.423 24.864 36.246 27.834 41.099 10.864 7.456 19.396 19.681 23.992 27.237 5.505-9.977 16.089-26.038 27.195-26.119 10.262-9.94 33.756-33.492 38.114-41.521.524-.966 1.423-1.673 2.484-1.956 1.057-.283 2.19-.118 3.128.458 2.384 1.468 5.352 3.294 9.621 48.275 2.023 21.317 3.348 42.466 3.36 42.677.105 1.69-.865 3.263-2.422 3.927-1.556.665-3.364.277-4.512-.968-14.438-15.665-40.486-41.115-49.021-42.824-.024-.005-.049-.009-.073-.014-6.77-1.234-18.363 16.086-24.097 28.209-.654 1.383-2.041 2.272-3.57 2.289-1.576.04-2.938-.84-3.623-2.208-.106-.214-10.863-21.447-25.672-31.247-.04-.025-.08-.052-.12-.079-.841-.537-1.7-.676-2.767-.452-8.038 1.69-20.108 20.371-27.32 31.533-2.811 4.351-5.238 8.109-7.271 10.812-1.472 1.958-3.985 5.302-7.105 5.303zm18.471-85.875c-2.683 4.626-6.832 16.31-10.92 37.344-2.932 15.082-4.472 28.041-4.848 35.613 1.586-2.325 3.361-5.073 4.953-7.536 9.128-14.128 20.426-31.613 31.424-34.779-5.188-8.28-14.103-22.188-20.609-30.641zm90.942 36.495c11.657 6.654 29.034 23.739 39.438 34.517-1.991-28.209-4.869-56.506-7.401-68.549-8.429 10.57-24.363 26.503-32.037 34.033zm30.325-39.619s0 0 0 0z"/><path d="m158.74 810.005c-.655 0-1.32-.162-1.935-.502-1.933-1.071-2.631-3.505-1.561-5.437 6.367-11.493 6.788-49.437 1.124-101.5-5.593-51.411-15.996-106.707-27.83-147.916-9.306-32.406-3.859-93.711-1.242-123.172.673-7.571 1.31-14.737 1.216-16.478-.469-1.787.355-3.72 2.072-4.584 1.974-.993 4.378-.199 5.372 1.775.854 1.696.802 3.191-.691 19.996-2.574 28.98-7.933 89.282.963 120.256 24.448 85.139 41.784 227.038 26.015 255.501-.73 1.318-2.096 2.062-3.503 2.062zm-29.935-394.228s.004.006.005.009c0-.003-.003-.006-.005-.009z"/><path d="m573.874 914.945 40.195 140.213s-121.216 110.849-155.508 90.115c-34.291-20.734-12.76-180.229-12.76-180.229" fill="#fff"/><path d="m469.196 1151.873c-4.977 0-9.205-1.062-12.704-3.178-15.76-9.529-22.685-42.703-21.168-101.416 1.089-42.194 6.459-82.37 6.514-82.771.295-2.188 2.306-3.724 4.499-3.429 2.189.296 3.725 2.31 3.429 4.499-.054.397-5.372 40.2-6.446 81.968-1.848 71.828 10.054 89.915 17.312 94.304 7.156 4.325 27.854 5.262 86.145-37.06 29.232-21.225 55.701-44.598 62.761-50.929l-39.506-137.814c-.609-2.124.619-4.339 2.742-4.948 2.119-.607 4.338.619 4.947 2.743l40.194 140.213c.419 1.459-.025 3.03-1.146 4.054-.305.279-30.868 28.153-65.243 53.117-37.466 27.208-64.628 40.646-82.329 40.646z"/><path d="m550.554 599.002-119.107-39.076-15.95 9.569v442.599l135.057 3.19z"/><path d="m550.554 1019.284c-.031 0-.063 0-.095-.001l-135.057-3.19c-2.172-.051-3.905-1.826-3.905-3.999v-442.599c0-1.405.737-2.707 1.942-3.43l15.949-9.57c.995-.598 2.2-.732 3.305-.371l119.107 39.076c1.643.539 2.753 2.072 2.753 3.801v416.282c0 1.077-.435 2.109-1.205 2.862-.748.731-1.752 1.138-2.795 1.138zm-131.056-11.096 127.057 3.001v-409.289l-114.617-37.603-12.439 7.464v436.428z"/><path d="m680.259 764.079c3.19 18.342 24.722 111.647 0 122.811-24.722 11.165-156.305 59.811-156.305 59.811l-35.886-181.824s71.84-.972 84.6-.175 107.592-.623 107.592-.623z" fill="#fff"/><path d="m523.954 950.701c-.678 0-1.352-.172-1.956-.511-1.021-.573-1.741-1.565-1.968-2.715l-35.886-181.825c-.229-1.158.065-2.358.805-3.278.738-.92 1.846-1.468 3.026-1.495 2.807-.066 68.901-1.591 81.684-.791 13.803.863 39.483 24.683 42.366 27.396 1.608 1.514 1.686 4.045.172 5.654-1.513 1.609-4.045 1.687-5.654.172-10.081-9.484-29.146-24.723-37.383-25.238-10.501-.656-60.503.357-76.246.699l34.055 172.549c23.099-8.563 129.882-48.245 151.645-58.074 4.364-1.971 11.319-10.574 8.865-46.05-1.621-23.453-6.772-49.78-9.539-63.923-.708-3.617-1.267-6.474-1.62-8.507-1.799-10.339-35.162-110.774-99.164-298.514-3.163-9.279-5.235-15.36-5.847-17.177-6.729-8.642-103.984-62.954-164.089-95.363-1.944-1.049-2.671-3.475-1.622-5.419 1.048-1.944 3.475-2.672 5.419-1.622.407.219 41.174 22.213 81.806 45.093 83.483 47.01 85.037 51.67 85.966 54.455.426 1.277 2.558 7.531 5.939 17.453 65.039 190.783 97.577 288.824 99.473 299.725.34 1.95.892 4.771 1.59 8.342 10.404 53.18 18.08 108.881-3.884 118.8-24.567 11.095-151.187 57.929-156.565 59.917-.449.166-.919.248-1.387.248zm47.462-501.482h.01z"/><path d="m597.319 745.501c-.556 0-1.121-.117-1.66-.363-9.608-4.392-42.551-1.253-54.431.327-2.177.29-4.2-1.248-4.492-3.438-.291-2.19 1.248-4.201 3.438-4.492 4.606-.613 45.391-5.807 58.812.327 2.009.918 2.894 3.292 1.975 5.301-.672 1.47-2.123 2.338-3.641 2.338z"/><path d="m488.068 764.877c10.694-3.208 42.266 38.279 47.849 86.127 5.582 47.849 7.975 93.305-11.962 95.697s-35.769-56.748-41.034-90.969c-6.387-41.512-10.802-86.071 5.148-90.856z"/><path d="m522.751 950.774c-28.917.004-43.181-90.508-43.784-94.433-9.705-63.077-7.399-90.687 7.952-95.295 2.967-.89 6.441-.05 10.319 2.499 14.387 9.458 37.854 45.881 42.651 86.996 6.787 58.175 6.755 97.467-15.459 100.132-.564.068-1.126.101-1.68.101zm-33.538-182.065c-5.132 1.544-8.007 11.432-8.096 27.844-.1 18.322 3.237 42.202 5.755 58.571 6.714 43.625 23.039 89.229 36.604 87.605 18.85-2.262 11.306-66.921 8.467-91.262-4.393-37.644-25.569-71.698-38.528-80.847-2.502-1.767-3.9-1.977-4.202-1.911zm-1.145-3.832h.01z"/><path d="m425.877 858.359c10.508 3.551 51.531 20.695 61.247 19.43s48.792-26.784 48.792-26.784-3.589-34.419-22.456-62.92c-6.532 3.36-26.563 15.072-36.345 9.49s-32.909-43.064-44.871-42.266c-11.962.797-46.078 29.513-46.078 29.513-4.561 3.981 9.395 68.472 15.774 70.916 6.38 2.444 15.152-.347 23.936 2.621z" fill="#fff"/><path d="m458.558 810.004c-.889 0-1.782-.295-2.524-.9-7.571-6.172-20.095-15.071-24.23-15.53-4.335-.479-23.053 4.988-34.958 9.027-2.092.711-4.363-.411-5.073-2.502-.71-2.092.411-4.363 2.503-5.073 5.067-1.719 30.723-10.256 38.411-9.403 7.947.883 25.055 14.551 28.403 17.281 1.712 1.396 1.968 3.915.571 5.627-.79.969-1.941 1.472-3.103 1.472z"/><path d="m445.943 827.777c-.246 0-.496-.023-.747-.07-.295-.056-29.738-5.528-46.066-1.024-2.127.589-4.332-.663-4.919-2.792-.588-2.13.662-4.332 2.792-4.92 18.117-4.999 48.4.633 49.68.876 2.171.411 3.597 2.503 3.187 4.673-.362 1.92-2.041 3.258-3.926 3.258z"/><path d="m446.759 845.701c-.253 0-.511-.024-.769-.074-.27-.052-27.017-5.169-44.627-.423-2.134.573-4.327-.688-4.903-2.821-.575-2.133.688-4.328 2.821-4.903 19.415-5.233 47.073.068 48.241.296 2.168.424 3.582 2.524 3.159 4.692-.373 1.909-2.047 3.235-3.923 3.235z"/><path d="m485.732 881.86c-12.739 0-50.837-10.582-55.366-11.853-2.127-.597-3.367-2.805-2.771-4.932.598-2.127 2.795-3.368 4.933-2.771 17.467 4.901 47.606 12.361 54.079 11.517 6.121-.797 29.969-15.084 45.012-24.796-1.154-7.806-5.786-33.29-19.549-55.685-9.766 5.166-26.56 13.63-36.938 7.707-4.438-2.533-10.327-9.612-17.146-17.808-7.473-8.982-19.922-23.948-25.294-23.948-.062 0-.122.002-.183.006-7.757.517-30.964 17.806-43.77 28.583-1.689 1.423-4.213 1.205-5.636-.485-1.422-1.69-1.205-4.213.484-5.636 5.864-4.936 35.759-29.602 48.39-30.444 8.66-.57 18.374 10.238 32.158 26.808 5.791 6.962 11.78 14.161 14.96 15.976 6.978 3.981 23.986-5.045 30.39-8.444.816-.434 1.537-.816 2.144-1.128 1.815-.934 4.039-.352 5.165 1.349 19.188 28.986 22.949 63.268 23.1 64.714.155 1.491-.536 2.944-1.791 3.764-6.653 4.345-40.354 26.085-50.464 27.402-.548.071-1.188.105-1.908.105z"/></svg>