<svg xmlns="http://www.w3.org/2000/svg" viewBox="0 0 3000 2464" width="3000" height="2464"><g transform="translate(891.4285714285714 118.92857142857143) rotate(0.0 969.6428571428571 1111.6071428571427) scale(1.328895003491837 1.3295455914318568)"><svg width="1459.322" height="1672.161" viewBox="0 0 1459.322 1672.161"><path d="M169.742 1315.514c-9.087 0-18.181.174-27.185.666-15.207.831-27.084 2.666-36.31 5.611-24.448 7.803-45.923 21.636-63.828 41.113-17.71 19.266-29.158 40.193-34.024 62.2-5.066 22.907-5.631 47.162-1.727 74.15 2.94 20.321 7.816 36.014 15.345 49.387 10.547 18.734 25.61 29.046 46.048 31.526 19.479 2.363 39.264 4.887 58.398 7.328 30.251 3.859 61.531 7.85 92.334 11.299 101.906 11.411 212.541 23.47 338.228 36.869 29.424 3.137 59.382 6.028 88.353 8.823 26.182 2.526 53.255 5.139 79.869 7.926 14.86 1.556 29.935 3.306 44.514 4.997 37.57 4.359 76.419 8.866 114.903 10.453 35.283 1.452 65.718-6.486 93.042-24.273 6.828-4.445 9.666-6.209 9.783-6.282a4.125 4.125 0 0 1 2.454-.612c1.726.115 172.856 11.493 200.253 12.036 20.225.401 39.996.676 59.521-.355 54.231-2.864 81.173-51.133 85.417-80.886.586-4.11.859-8.222 1.147-12.576.162-2.445.329-4.973.557-7.478 1.386-15.247 2.789-30.493 4.191-45.738 2.67-29.03 5.431-59.048 8.031-88.578 2.33-26.469 4.6-53.394 6.796-79.432 1.695-20.103 3.39-40.205 5.128-60.304 1.603-18.539 3.28-37.382 4.901-55.605 2.048-23.018 4.166-46.819 6.155-70.233 1.982-23.339 3.916-47.079 5.786-70.037 1.862-22.858 3.787-46.494 5.76-69.738 2.664-31.379 5.448-63.275 8.141-94.12 2.072-23.732 4.144-47.463 6.183-71.198 1.764-20.537 3.489-41.077 5.214-61.617 2.033-24.212 4.136-49.248 6.272-73.868 3.078-35.475 6.201-70.946 9.324-106.418 2.917-33.138 5.835-66.276 8.716-99.417 2.071-23.826 4.12-48.059 6.102-71.493 1.803-21.329 3.607-42.657 5.451-63.982 2.88-33.314 5.794-66.624 8.708-99.935 2.248-25.703 4.497-51.405 6.73-77.11 1.591-18.306.723-34.978-2.653-50.969-7.062-33.447-26.761-55.756-58.551-66.305-28.55-9.473-55.225-14.949-81.548-16.738-6.38-.433-12.888-.793-19.182-1.14-11.598-.64-23.591-1.301-35.382-2.46-26.215-2.574-52.838-5.413-78.585-8.159-17.495-1.866-35.586-3.795-53.383-5.623-20.758-2.132-41.877-4.206-62.301-6.211-16.219-1.593-32.991-3.24-49.485-4.906-22.542-2.278-45.081-4.591-67.62-6.903-42.716-4.383-86.887-8.915-130.348-13.125-29.835-2.891-54.614-2.581-77.981.974-18.369 2.795-32.753 7.344-45.265 14.316-25.554 14.238-41.376 37.735-48.372 71.832-1.247 6.078-2.27 12.351-3.259 18.417-.701 4.301-1.426 8.748-2.23 13.125-3.558 19.373-7.259 39.052-10.84 58.082-7.444 39.568-15.141 80.483-21.949 120.834-3.036 17.995-6.05 35.993-9.065 53.991-18.082 107.954-36.779 219.584-59.957 328.55-16.058 75.495-36.225 164.777-64.041 254.56-38.33 123.718-92.501 247.791-161.006 368.772-1.113 1.965-2.341 3.875-3.529 5.722-.559.869-1.124 1.748-1.69 2.651a4.122 4.122 0 0 1-3.674 1.936c-9.121-.378-18.208-.797-27.271-1.214-20.233-.933-41.155-1.897-61.658-2.338-3.442-.074-6.885-.156-10.328-.238-11.031-.265-22.273-.532-33.528-.532z" fill="#fff"/><path d="M302.7 1315.704c1.781-2.844 3.568-5.464 5.125-8.215C374.121 1190.41 428.6 1068.25 468.48 939.531c25.912-83.634 45.759-168.69 63.947-254.196 26.958-126.735 47.442-254.646 68.989-382.369 10.089-59.801 21.844-119.32 32.799-178.975 1.933-10.525 3.356-21.149 5.506-31.626 6.519-31.775 21.051-58.254 50.409-74.611 14.535-8.099 30.336-12.309 46.655-14.792 26.282-3.999 52.694-3.551 79.001-1.002 66.022 6.396 131.99 13.36 197.986 20.03 37.258 3.765 74.54 7.292 111.792 11.119 43.991 4.519 87.939 9.458 131.949 13.78 18.089 1.776 36.295 2.355 54.44 3.589 28.28 1.922 55.773 8.047 82.569 16.939 33.639 11.162 53.937 34.53 61.293 69.374 3.656 17.317 4.248 34.668 2.726 52.18-5.127 59.016-10.335 118.024-15.438 177.042-3.904 45.154-7.628 90.324-11.553 135.477-5.965 68.616-12.087 137.218-18.04 205.834-3.918 45.153-7.607 90.326-11.486 135.482-4.735 55.108-9.645 110.201-14.324 165.314-3.954 46.583-7.59 93.193-11.546 139.775-3.564 41.958-7.43 83.891-11.056 125.844-4.027 46.577-7.824 93.173-11.924 139.743-3.943 44.787-8.151 89.552-12.223 134.328-.614 6.752-.773 13.563-1.728 20.263-4.898 34.341-34.982 81.561-89.291 84.43-19.894 1.051-39.888.756-59.821.36-27.811-.552-200.446-12.045-200.446-12.045s-2.839 1.762-9.708 6.234c-28.966 18.856-60.481 26.38-95.467 24.938-53.588-2.208-106.496-9.898-159.678-15.469-56.047-5.87-112.195-10.776-168.23-16.75-112.778-12.023-225.536-24.251-338.249-36.871-50.321-5.634-100.499-12.532-150.769-18.631-22.332-2.71-38.313-14.349-49.152-33.601-8.89-15.79-13.266-33.073-15.834-50.822-3.659-25.288-3.728-50.724 1.781-75.635 5.415-24.482 18.064-45.661 35.018-64.104 18.506-20.131 40.404-34.206 65.614-42.253 6.44-2.056 17.528-4.718 37.341-5.8 23.754-1.297 47.581-.416 71.357.096 29.561.636 59.101 2.315 89.011 3.554zm25.81 1.182c6.947.459 12.177 1.059 17.413 1.11 44.211.433 88.424.641 132.634 1.158 68.118.796 136.233 1.75 204.349 2.699 86.301 1.203 172.603 2.39 258.899 3.89 5.431.094 12.606.237 16.935 3.574 3.409 2.627 3.382 6.746.409 9.909-2.404 2.558-5.345 4.692-8.293 6.642-20.569 13.605-40.323 28.307-57.966 45.558-31.549 30.848-50.585 68.676-60.052 111.459-9.398 42.473-6.152 83.716 13.63 122.971 7.555 14.992 19.986 23.898 36.514 26.726 16.306 2.79 31.977-.855 47.226-6.051 33.703-11.484 62.343-31.142 87.783-55.744 21.428-20.721 38.61-44.783 54.986-69.532 50.387-76.153 90.085-157.775 125.802-241.638 24.678-57.944 45.428-117.184 58.651-178.558 14.417-66.921 26.41-134.441 37.047-202.079 11.25-71.531 20.726-143.385 29.014-215.325 8.738-75.838 15.52-151.91 22.478-227.942 5.984-65.381 11.283-130.828 16.35-196.288 2.478-32.007 4.349-64.089 5.356-96.173.77-24.546-9.135-39.124-32.278-47.357-14.676-5.221-30.1-9.355-45.524-11.274-70.771-8.801-141.649-16.747-212.512-24.803-45.353-5.156-90.697-10.476-136.132-14.809C884.826 59.63 828.371 54.683 771.862 50.6c-23.041-1.665-46.245-1.585-69.359 2.004-16.454 2.555-28.293 10.73-37.147 24.285-8.921 13.658-14.498 28.612-17.097 44.629-4.054 24.981-7.601 50.044-11.717 75.015a36591.612 36591.612 0 0 1-27.01 161.518c-10.547 62.256-20.423 124.644-32.174 186.674-9.358 49.392-21.396 98.269-31.713 147.486-19.184 91.518-40.384 182.518-67.025 272.198-18.407 61.962-42.479 121.867-65.33 182.22-15.804 41.741-33.152 82.775-55.864 121.332-9.215 15.644-18.475 31.263-28.916 48.925zm596.88 27.069c-3.52-.247-6.296-.576-9.076-.618-53.492-.798-106.986-1.494-160.478-2.348-125.167-2-250.339-3.811-375.499-6.216-72.738-1.398-145.449-4.268-218.189-5.433-19.83-.318-39.748 2.878-59.575 4.954-13.466 1.41-25.183 7.419-35.797 15.691-19.707 15.358-33.211 35.077-41.298 58.622-7.74 22.532-10.759 45.864-10.167 69.511.568 22.692 5.285 44.588 16.925 64.536 10.38 17.79 25.339 28.658 46.101 30.865 13.112 1.395 26.215 2.895 39.346 4.08 30.882 2.788 61.813 5.064 92.658 8.204 32.977 3.357 65.878 7.468 98.812 11.25 38.957 4.472 77.912 8.955 116.87 13.414 48.873 5.593 97.737 11.267 146.629 16.684 13.443 1.489 27.024 1.755 40.454 3.329 29.736 3.483 59.382 7.735 89.126 11.132 44.964 5.134 89.978 9.834 134.979 14.638 5.07.541 10.196.563 17.107.92-2.173-2.953-2.826-4.143-3.753-5.055-16.825-16.569-26.314-37.044-31.47-59.719-5.21-22.913-4.584-46.044-1.859-69.199 5.977-50.779 23.933-95.94 61.31-132.205 15.546-15.083 30.588-30.682 46.844-47.037zm322.782 295.712s7.749-1.757 8.714-1.985c45.434-10.729 61.895-34.08 68.31-68.582.652-3.506 1.305-7.031 1.625-10.577 2.371-26.296 4.673-52.598 6.967-78.901 7.008-80.344 14.031-160.687 20.992-241.036 5.175-59.732 10.192-119.477 15.408-179.205 6.116-70.036 12.456-140.052 18.539-210.091 4.817-55.461 9.321-110.949 14.094-166.413 5.996-69.69 12.184-139.363 18.171-209.053 3.269-38.045 6.253-76.115 9.441-114.168 3.366-40.184 7.203-80.333 10.108-120.55 2.111-29.217 1.908-58.454-1.878-87.642-2.252-17.365-9.226-32.011-21.193-44.559-21.264-22.297-47.221-35.914-77.686-39.195-34.732-3.741-69.661-5.605-104.472-8.657-46.536-4.079-93.074-8.181-139.55-12.879-65.637-6.636-131.197-14.033-196.83-20.71-45.02-4.58-90.074-8.923-135.182-12.515-22.247-1.772-44.18.992-64.456 11.557-12.076 6.292-21.11 15.772-28.633 27.032 25.522-14.983 53.245-17.409 81.683-16.156 7.479.33 14.952.881 22.417 1.475 33.061 2.63 66.114 5.369 99.179 7.962 39.465 3.095 78.983 5.59 118.396 9.234 53.264 4.925 106.461 10.59 159.666 16.139 45.039 4.697 90.094 9.308 135.052 14.705 20.16 2.42 40.225 6.293 59.034 14.523 22.206 9.716 35.458 26.468 36.224 51.046.577 18.49.154 37.108-1.36 55.543-2.102 25.587-6.244 51.004-8.427 76.586-3.093 36.261-5.008 72.621-7.766 108.913-3.84 50.53-7.971 101.039-12.019 151.553-4.732 59.05-9.543 118.093-14.257 177.144a93344.582 93344.582 0 0 0-11.782 149.421c-5.985 76.497-11.858 153.004-17.919 229.495-5.92 74.708-11.983 149.405-18.043 224.101-5.887 72.563-11.793 145.125-17.828 217.677-1.153 13.865-2.72 27.707-4.505 41.506-6.064 37.156-9.894 46.156-20.234 57.262zM1108.247 173.381c12.239-1.177 19.441-8.653 22.01-21.286 1.973-9.704-2.37-19.856-11.854-25.429-5.154-3.029-10.921-5.291-16.687-6.928-7.861-2.231-15.919-3.989-24.007-5.163-48.648-7.059-97.313-14.017-146.018-20.674-7.698-1.052-15.716-1.217-23.432-.373-15.91 1.74-24.233 14.447-20.377 29.961 2.261 9.099 7.611 16.253 15.521 20.943 6.07 3.599 12.638 6.72 19.378 8.733 9.526 2.846 19.317 5.298 29.167 6.482 43.844 5.27 148.194 14.513 156.299 13.734zM1404.515 510.6c-.825 9.59-.767 19.256-1.606 28.844-.713 8.147-1.911 16.272-3.352 24.324-.549 3.067-1.951 6.188-3.696 8.795-5.127 7.66-11.683 8.022-17.418.835-6.201-7.772-9.219-17.039-9.448-26.825-.384-16.391-.966-32.868.212-49.187 2.877-39.851 6.459-79.658 10.291-119.431 1.538-15.96 4.311-31.812 6.865-47.657.956-5.935 2.025-12.425 9.912-13.408 6.2-.773 12.02 3.203 15.674 10.794 4.792 9.955 5.168 20.676 4.817 31.423-.221 6.772-8.49 107.772-12.251 151.493zm-21.953 53.97c7.129 5.828 8.833-10.53 9.456-16.232.542-4.96.48-9.995 1.166-14.931 7.081-50.983 9.527-102.283 10.504-153.676.231-12.125-.091-24.262-.302-36.392-.073-4.204-.607-13.394-6.373-10.109-2.078 1.184-1.946 4.418-2.292 6.704-1.066 7.051-2.023 14.131-2.672 21.231-4.778 52.22-9.544 104.442-14.109 156.681-.681 7.792-.926 15.738-.203 23.503.677 7.247 1.277 20.321 4.825 23.221zm-23.664 111.664c1.045-12.403 1.943-24.82 3.217-37.199.433-4.209 1.509-8.421 2.832-12.454 2.422-7.384 5.904-10.169 12.027-10.006 6.667.177 11.877 3.136 13.949 9.599 1.499 4.674 2.82 9.794 2.498 14.599-1.709 25.536-2.833 51.177-9.115 76.165-.769 3.06-1.81 6.247-3.537 8.832-4.569 6.838-10.772 6.941-15.45.213-5.222-7.51-7.495-16.142-7.414-25.22.073-8.172.758-16.34 1.174-24.509l-.181-.02zm13.925 41.72c5.643-.936 3.849-8.922 4.255-12.613 2.333-21.219 4.387-42.47 6.305-63.731.367-4.07-1.186-9.004-5.658-8.782-7.768.386-13.512 86.555-4.902 85.126z"/></svg></g><g transform="translate(1721.7857142857142 422.1428571428571) rotate(0.0 438.75 670.1785714285714) scale(1.06705481925733 1.0691782546065258)"><svg width="822.357" height="1253.633" viewBox="0 0 822.357 1253.633"><defs><style>.cls-1,.cls-2{stroke-width:0}.cls-2{fill:#fff}</style></defs><path class="cls-1" d="M790.32 169.659c-21.045 6.042-42.504 10.732-64.587 10.386-28.892-.452-54.622-7.19-66.975-36.115-16.083 5.313-31.558 11.169-47.453 15.468-16.161 4.371-32.942 5.55-49.141.375-8.015-2.56-15.559-7.18-22.609-11.92-3.452-2.32-4.809-3.297-4.809-3.297-21.109 9.038-47.531 16.856-70.623 17.319-35.161.705-66.236-7.814-86.508-38.459-15.041 4.217-29.473 9.159-44.294 12.201-20.575 4.223-41.358 4.07-61.675-2.265-14.695-4.582-28.191-11.303-37.291-24.039-2.497-3.495-3.872-5.161-3.872-5.161-15.587 5.392-35.763 9.422-52.354 8.498-28.077-1.563-45.033-15.835-51.073-43.912-20.484 14.729-60.327 34.019-65.969 35.814-5.643 1.795 3.244-5.552 5.106-6.915 18.688-13.682 58.749-35.027 62.961-50.267 4.606-15.31 11.415-29.243 23.014-40.462 7.537-7.291 14.321-8.765 19.338-4.643 4.465 3.669 4.928 10.46-.526 18.78-5.786 8.826-18.926 26.592-25.402 34.932-5.103 6.571-3.934 22.604 10.747 32.275 3.796 2.501 8.274 4.307 12.693 5.461 15.306 3.998 40.831.825 56.08-6.702-3.716-24.328 4.41-45.079 21.065-62.764 10.511-11.161 22.905-19.665 38.236-22.479 5.479-1.005 11.569-.898 16.976.393 10.993 2.625 16.965 12.43 15.619 23.673-1.224 10.225-5.965 18.902-12.085 26.897-13.01 16.996-29.817 29.421-48.323 39.759-2.27 1.268-3.574 1.984-7.828 4.343 4.848 5.947 11.361 10.825 17.727 14.214 17.918 9.539 37.527 10.5 56.94 7.403 14.274-2.277 33.035-8.769 47.087-12.498 0 0 .19-2.027-.199-6.343-2.564-28.428 8.839-50.312 32.254-66.033 7.668-5.148 16.316-7.884 25.795-6.464 11.211 1.679 19.142 9.572 18.022 20.806-.845 8.477-3.72 17.317-7.875 24.778-8.098 14.54-20.961 24.938-34.526 34.322-2.533 1.752-5.125 3.418-8.27 5.51 4.376 7.639 10.65 12.925 17.996 17.023 15.365 8.572 32.136 10.977 49.385 10.342 19.857-.731 43.564-7.445 61.974-14.874 0 0 .077-1.172-.285-5.362-2.685-31.089 19.317-65.152 48.675-75.689 3.704-1.329 7.687-2.185 11.608-2.557 15.1-1.434 27.069 9.149 25.472 24.166-.9 8.467-4.235 17.215-8.503 24.675-9.514 16.63-24.148 28.594-39.816 39.267-1.965 1.338-3.914 2.699-6.404 4.418 7.484 5.687 15.646 7.223 23.959 7.575 26.697 1.13 54.045-9.212 77.203-21.358 0 0-.114-2.533.45-4.871 5.455-22.632 18.061-40.2 37.683-52.455 4.897-3.058 10.907-5.176 16.633-5.882 10.379-1.281 18.058 6.372 16.142 16.607-1.292 6.901-4.54 13.889-8.521 19.744-9.562 14.064-27.476 29.675-41.677 38.811 0 0 .113 2.2 2.711 6.635 5.194 8.865 13.644 12.974 23.057 15.467 16.282 4.313 32.873 3.823 49.461 2.694 15.439-1.051 30.852-2.692 46.306-3.229 7.479-.26 26.69.809 22.566 2.892-10.125 5.114-20.616 9.976-31.463 13.09ZM242.598 80.205c19.454-9.861 34.402-20.249 47.034-35.42 3.499-4.203 6.666-8.937 8.8-13.933 1.419-3.322 2.365-9.179.585-10.952-2.272-2.262-7.903-2.919-11.396-1.9-23.908 6.974-38.438 23.293-44.515 47.193-1.108 4.355-1.454 8.676-.508 15.012Zm302.209 35.398s17.834-12.657 25.384-20.33c7-7.114 12.626-15.676 18.191-24.045 1.492-2.243 2.338-7.591.738-9.216-1.6-1.625-6.301-.497-8.869.609-18.017 7.756-28.935 21.78-34.201 40.389-1.114 3.938-1.244 12.594-1.244 12.594ZM389.836 95.047c15.178-9.939 28.479-20.303 36.831-35.766 1.445-2.676 2.447-5.715 3.026-8.709.936-4.843-1.597-7.269-6.345-6.667-2.789.354-5.61 1.349-8.154 2.594-16.392 8.021-27.593 28.936-25.358 48.548Zm294.414 6.081c9.308-6.47 17.573-13.854 22.862-23.936-10.603 5.211-17.964 13.446-22.862 23.936Zm-407.963 908.289c-16.822-36.72-154.236-17.445-186.836-6.08-45.452 15.846-16.832 26.425 27.799 13.066 40.865-12.232 90.064-15.905 117.621-9.611-23.743 4.724-52.954 12.823-67.897 18.06-38.638 13.542-74.861 31.972-105.522 59.802-19.485 17.686-34.873 38.223-42.147 63.98-12.233 43.319 8.415 83.937 50.216 98.703 23.592 8.334 47.713 8.218 71.138.692 74.339-23.887 122.449-75.28 140.836-149.769 9.501-38.491-4.922-88.275-5.207-88.843Zm-11.797 77.948c-18.862 65.616-58.66 112.491-124.225 135.15-10.081 3.484-20.947 5.676-31.717 6.186-12.812.607-24.858-3.345-36.092-9.215-19.138-9.999-29.102-28.268-27.095-49.758 1.51-16.167 8.514-30.064 18.143-42.781 13.685-18.072 31.11-31.941 50.209-43.782 35.42-21.96 73.792-37.028 113.871-47.922 8.942-2.431 18.744-5.182 27.134-7.164 5.411-1.278 7.485 1.625 9.126 6.373 6.084 17.609 5.659 35.47.645 52.913Zm119.453-820.116c26.122 2.811 52.223 5.835 78.371 8.381 36.505 3.553 73.028 6.945 109.575 10.036 31.713 2.683 63.449 5.188 95.212 7.16 35.524 2.205 71.103 3.521 106.63 5.695 7.855.481 16.485.205 22.05 8.134 3.282 4.677 2.254 8.332.21 13.353-4.162 10.226-12.473 9.218-20.315 8.778-29.345-1.646-58.684-3.501-87.988-5.761-33.933-2.617-67.835-5.655-101.736-8.669-42.484-3.777-84.975-7.501-127.425-11.644-39.582-3.864-79.128-8.122-118.664-12.44-33.582-3.668-67.126-7.682-100.69-11.512-7.452-.85-15.014-1.09-22.342-2.539-4.11-.813-8.224-3.006-11.661-5.505-5.383-3.915-4.298-11.243 2.082-13.46 4.711-1.637 9.893-2.383 14.904-2.59 9.493-.393 117.425 7.811 161.787 12.584ZM226.278 394.761c44.929 3.826 89.844 7.88 134.706 12.414 60.261 6.091 120.51 12.363 180.683 19.264 51.165 5.868 102.226 12.648 153.306 19.231 11.166 1.439 22.282 3.451 33.306 5.751 9.576 1.998 14.269 6.907 13.513 12.835-.805 6.311-6.865 9.868-16.957 8.755-38.887-4.29-77.761-8.711-116.603-13.394-59.471-7.17-118.904-14.654-178.367-21.897a50885.175 50885.175 0 0 0-161.938-19.476c-50.467-5.984-100.967-11.681-151.425-17.742-18.849-2.264-37.636-5.081-56.401-7.975l-.071-.012c-4.016-.688-4.281-6.515-.379-7.685a5.072 5.072 0 0 1 1.226-.218c9.707-.442 120.031 6.284 165.399 10.148Zm118.255 352.768c48.163 4.722 96.189 10.889 144.231 16.779 14.013 1.718 27.904 4.508 41.795 7.107 6.54 1.224 9.909 6.618 8.644 12.694-1.189 5.706-6.916 8.714-13.34 7.799-27.984-3.988-55.913-8.639-84.022-11.427-62.254-6.176-124.581-11.663-186.925-16.866-35.688-2.979-71.466-4.882-107.208-7.188-5.174-.334-10.141-1.084-10.951-7.25-.819-6.237 3.341-9.378 8.753-10.585 4.933-1.1 10.02-1.92 15.06-2.05 11.491-.296 134.248 6.113 183.962 10.987ZM159.775 572.988a1.246 1.246 0 0 1 1.216-.995c6.581-.029 13.176-.32 19.733.063 26.033 1.522 52.069 3.066 78.073 5.011 42.547 3.183 85.079 6.574 127.6 10.09 37.45 3.097 74.884 6.394 112.31 9.769 41.603 3.751 83.193 7.65 124.781 11.562 28.381 2.669 56.751 5.468 85.125 8.215 1.319.128 2.688.123 3.939.497 4.63 1.385 8.118 3.968 7.521 9.384-.583 5.293-4.224 7.91-9.191 7.594-12.34-.784-24.658-1.954-36.97-3.124-39.825-3.783-79.654-7.52-119.461-11.491-45.743-4.563-91.476-9.237-137.19-14.084-45.936-4.87-91.873-9.756-137.753-15.12-33.539-3.921-66.984-8.637-100.474-12.971-4.804-.622-9.643-.989-14.437-1.675-1.383-.198-2.713-.776-4.051-1.291a1.248 1.248 0 0 1-.775-1.415l.004-.021ZM45.12 518.291c26.618.138 43.7 26.016 36.804 51.737-7.207 26.884-33.274 34.959-46.265 32.444C12.344 597.959-2.133 582.31.257 559.304c2.299-22.127 23.082-41.126 44.863-41.013Zm-2.766 65.435c15.362.124 27.331-10.484 27.568-24.434.223-13.126-10.465-24.137-23.688-24.404-13.839-.28-26.484 11.18-25.658 24.755 1.016 16.7 7.268 24.26 21.778 24.083Zm59.47-373.305c16.168.567 29.528 6.864 38.97 20.238 10.816 15.32 8.747 34.648-4.682 47.666-19.717 19.114-54.738 16.805-71.397-4.706-13.14-16.967-10.214-38.505 6.878-51.394 8.979-6.771 18.374-12.312 30.231-11.804Zm-.682 65.973c3.61-.346 6.052-.426 8.437-.835 12.282-2.103 22.185-11.227 23.29-21.348 1.193-10.932-6.012-21.568-18.207-26.313-11.886-4.625-22.649-3.234-32.479 5.69-8.435 7.658-9.518 17.81-8.245 27.388 1.036 7.791 9.448 11.038 16.682 13.385 3.727 1.209 7.746 1.52 10.523 2.033Z"/></svg></g><g transform="translate(500.35714285714283 139.28571428571428) rotate(0.0 615.0 1096.0714285714287) scale(1.0693476283956136 1.0686962400348168)"><svg width="1150.234" height="2051.231" viewBox="0 0 1150.234 2051.231"><path d="M1146.058 2040.082c-.99-6.941-2.57-15.916-6.021-23.764-13.182-29.968-36.248-52.324-70.519-68.346-13.491-6.309-27.185-12.763-40.428-19.004a13962.867 13962.867 0 0 0-42.206-19.834c-14.058-6.568-31.163-23.112-40.108-32.389-5.56-5.767-10.951-11.794-15.18-16.973-6.852-8.392-6.967-9.829-6.579-11.647l.172-.806c3.912-18.284 8.346-39.009-38.162-179.842-21.825-66.09-45.875-137.078-69.132-205.729-23.999-70.837-48.814-144.086-71.288-212.25-49.67-150.65-113.927-290.705-142.778-326.995a3.999 3.999 0 0 1 .317-5.332c.473-.469 47.52-47.115 63.167-69.987 6.971-10.188 21.365-32.386 21.51-32.608a4 4 0 0 1 7.354 2.035c.017.489 1.954 49.556 21.209 105.455 28.809 83.631 58.367 145.926 87.855 185.155 10.284 13.682 25.775 31.297 41.171 37.516.98.396 1.688.682 2.372 1.382.526.539.89 1.216 1.049 1.952.177.82 17.858 82.478 33.383 119.975 4.312 10.413 14.157 22.905 23.909 25.545 3.231.881 8.163-.615 9.721-1.497a4.008 4.008 0 0 1 2.038-1.504 3.995 3.995 0 0 1 4.204 1.125c2.789 3.088 10.759 7.664 22.943 5.192 3.146-.636 4.14-4.1 4.419-6.893l.031-.291a4 4 0 0 1 7.314-1.691c4.702 7.176 10.159 8.576 13.923 8.551 4.567-.073 7.82-2.266 8.345-3.125 1.149-1.882 3.628-2.515 5.513-1.371 6.921 4.202 13.379 4.885 18.187 1.915 4.536-2.802 7.132-8.702 6.613-15.031-.885-10.802-2.591-22.189-5.071-33.848-5.282-24.823-14.466-30.873-14.558-30.931-1.085-.623-1.745-1.676-1.904-2.917l-.404-3.156c-2.366-18.511-4.234-33.132-10.714-54.935-.634-2.133-3.042-8.423-5.371-14.507-2.516-6.572-4.893-12.779-5.617-15.226a4 4 0 0 1 .339-3.079c.083-.149 8.408-15.333 8.296-28.55-.146-17.188-3.454-35.581-10.113-56.228-6.202-19.229-18.775-47.563-32.086-77.562-13.144-29.622-26.736-60.253-33.889-81.877-14.571-44.047-28.888-105.898-30.638-132.361-.956-14.449-1.034-29.138-1.11-43.342-.041-7.599-.083-15.456-.26-23.159-1.018-44.426-3.636-91.845-15.807-137.617-15.021-56.497-38.73-93.152-76.876-118.854a4.001 4.001 0 0 1-.433-6.298c.963-.862 1.884-1.672 2.77-2.451 1.758-1.545 3.418-3.005 4.955-4.483 11.252-10.823 24.528-13.716 39.46-8.599 8.169 2.802 17.071 5.413 28.862 8.469 14.215 3.688 24.735.016 32.162-11.217 1.307-1.978 2.671-3.943 3.99-5.846 3.101-4.47 6.029-8.691 8.425-13.227 4.845-9.17 11.531-13.268 21.661-13.268h.26c2.473 0 5.774-.531 7.635-3.026 1.625-2.179 1.871-5.519.695-9.406-7.047-23.284-2.777-41.94 13.051-57.036 13.501-12.876 21.722-29.359 25.872-51.875 7.743-42.011-1.103-76.923-27.045-106.73-23.13-26.576-53.589-42.261-90.532-46.616-10.048-1.185-11.934-2.192-13.149-12.153-.075-.615-.156-1.281-.249-2.001-1.303-10.131-2.651-20.605-6.566-29.575-14.083-32.261-50.418-48.239-88.362-38.865-24.802 6.13-44.578 24.55-52.899 49.272-8.201 24.364-3.713 50.533 12.004 70.002 2.712 3.359 6.11 6.434 9.396 9.405 1.577 1.427 3.207 2.901 4.763 4.406a3.999 3.999 0 0 1 .762 4.73l-2.897 5.528c-1.992 3.799-3.872 7.384-5.742 10.973-21.363 41.002-22.995 78.243-4.986 113.853 7.242 14.319 5.778 23.505-5.596 35.102-6.679 6.812-12.145 13.128-17.43 19.237a813.01 813.01 0 0 1-5.541 6.361 3.999 3.999 0 0 1-6.314-.41c-2.094-3.102-11.998-11.312-17.653-15.333-8.938-6.354-18.853-12.286-27.918-16.705-86.723-42.261-180.141-61.328-277.659-56.696-21.029 1.001-43.52 4.056-66.849 9.08-77.655 16.727-143.434 51.934-195.509 104.644C23.933 414.785-.707 479.986 4.754 553.857c2.933 39.67 11.891 80.387 27.386 124.478 11.044 31.426 25.534 67.89 49.256 100.057 9.324 12.644 28.872 35.067 55.04 43.196a4 4 0 0 1 2.757 3.155c10.253 60.818 31.755 106.808 63.91 136.691a4.001 4.001 0 0 1 1.038 4.291l-.766 2.109c-61.173 168.301-52.103 357.552-33.721 486.678 23.271 163.481 61.239 337.923 79.639 384.673.239.608.326 1.265.252 1.914-.154 1.363-4.252 33.593-45.846 52.849-11.854 5.488-24.29 10.105-36.316 14.571-12.43 4.616-25.284 9.39-37.364 15.087l-2.962 1.396c-20.8 9.795-42.308 19.924-59.306 35.949-22.413 21.132-33.308 40.797-35.325 63.763-.314 3.587.195 4.742.527 5.112.253.282 1.209.944 4.612 1.011 4.805.093 9.611.212 14.417.332 14.149.352 28.78.715 43.103.365 48.045-1.172 88.387-2.384 129.106-4.493 14.091-.729 28.102-4.181 39.948-7.46 18.749-5.189 29.144-16.614 31.779-34.928 1.147-7.969 3.105-16.406 5.818-25.076 3.266-10.436 10.907-14.98 21.514-12.796 22.657 4.669 36.45 15.829 42.169 34.119l.578 1.852c2.434 7.802 4.951 15.868 8.129 23.4 4.503 10.672 11.898 15.116 23.978 14.392 2.504-.149 5.2-.494 8.742-1.12 13.623-2.401 21.926-10.501 24.012-23.421 1.489-9.228 1.827-17.959 1.003-25.951-1.66-16.11-4.956-57.13.274-89.999a3.997 3.997 0 0 1 2.262-2.997c.343-.17 9.346-4.751 14.784-21.043 2.783-8.336 3.453-17.685 4.102-26.725l.221-3.041c2.029-27.198-.076-54.961-6.257-82.518-8.641-38.525-18.632-79.47-30.545-125.173-15.299-58.69-24.403-117.895-27.058-175.969-5.989-130.985 15.259-243.032 24.346-263.513 3.968-8.944 11.306-15.095 20.131-16.874 8.8-1.775 17.922 1.042 25.026 7.729 7.287 6.858 13.939 14.825 19.24 23.039 22.587 35.011 40.4 74.261 54.456 119.994 8.242 26.814 16.45 54.127 24.389 80.54 14.898 49.57 30.304 100.828 46.551 150.864 4.712 14.512 9.391 29.036 14.069 43.561 24.703 76.687 50.246 155.982 80.583 232.108 9.25 23.214 21.509 42.931 37.476 60.279 4.525 4.918 9.144 8.589 9.19 8.625a4.005 4.005 0 0 1 1.466 2.487c3.585 21.737 4.405 53.95 1.908 74.931-1.703 14.31-2.294 26.636-1.809 37.684.818 18.63 13.548 30.613 33.222 31.273 11.839.395 19.972-4.514 24.862-15.018 2.715-5.832 4.627-11.411 5.682-16.583 4.774-23.396 19.815-37.273 45.983-42.424 8.544-1.684 15.158 1.565 18.143 8.911 2.603 6.408 5.138 13.329 6.049 20.521 2.965 23.402 10.289 37.628 40.445 45.768 10.17 2.747 21.871 4.465 35.772 5.253 23.422 1.326 47.276 2.276 70.344 3.194 10.758.429 21.516.856 32.271 1.323 1.878.081 3.653.379 5.37.666.628.105 1.256.211 1.885.304h8.613c.37-.076.74-.163 1.11-.249 1.29-.3 2.752-.64 4.351-.667 13.411-.223 26.824-.404 40.236-.586 6.487-.088 12.974-.177 19.46-.27 4.009-.057 5.059-.784 5.324-1.095.177-.207.72-1.128.27-4.282zM348.665 553.512c-10.058 18.991-21.833 40.187-34.298 62.625-14.757 26.563-30.017 54.031-42.031 77.27-12.227 23.649-13.752 45.893-13.767 46.114a4.003 4.003 0 0 1-7.373 1.891c-.471-.744-47.179-75.576-53.541-173.15-1.521-23.337 5.51-47.692 19.798-68.577 14.955-21.858 36.873-37.998 61.717-45.444 21.703-6.509 46.677-2.945 63.626 9.072 13.537 9.599 21.1 23.526 21.871 40.278.289 6.27-2.685 24.772-16.004 49.922z" fill="#fff"/><path d="M1150.018 2039.517c-1.201-8.417-2.923-17.086-6.32-24.808-14.58-33.147-40.193-55.262-72.486-70.36-27.571-12.891-55.061-25.955-82.635-38.838-23.752-11.097-60.158-54.161-59.648-56.551 4.138-19.411 9.399-38.889-38.104-182.736-44.331-134.241-96.153-283.712-140.419-417.975-50.456-153.035-115.188-292.69-143.446-328.232 0 0 47.607-47.115 63.655-70.572 7.08-10.348 21.565-32.692 21.565-32.692s1.729 49.438 21.425 106.617c73.704 213.959 130.836 224.027 132.319 225.545 0 0 17.752 82.391 33.598 120.662 4.282 10.342 14.833 24.701 26.559 27.876 5.597 1.516 13.894-1.708 14.039-3.058 3.308 3.666 12.637 9.281 26.706 6.434 7.07-1.431 7.523-9.791 7.626-10.604 10.564 16.124 26.4 9.73 29.05 5.282 18.764 11.398 32.106-1.695 30.864-16.862-.944-11.526-2.742-23.056-5.146-34.353-5.842-27.457-16.408-33.526-16.408-33.526-2.543-19.796-4.307-35.352-11.251-58.72-1.36-4.575-9.631-25.151-10.986-29.728 0 0 8.922-16.054 8.8-30.527-.166-19.524-4.33-38.892-10.306-57.421-12.593-39.042-51.868-116.793-65.984-159.468-14.343-43.358-28.691-104.858-30.444-131.37-1.458-22.043-.855-44.218-1.362-66.329-1.069-46.669-3.873-93.167-15.94-138.554-12.862-48.378-34.288-91.349-78.507-121.143 2.924-2.617 5.454-4.746 7.831-7.032 10.231-9.842 21.874-12.331 35.39-7.697 9.573 3.282 19.354 6.017 29.156 8.557 14.936 3.871 27.582.609 36.502-12.883 4.259-6.441 9.025-12.615 12.616-19.41 4.043-7.653 9.397-11.178 18.284-11.136 10.432.049 15.32-7.473 12.258-17.591-6.049-19.988-3.821-37.91 11.984-52.984 15.452-14.736 23.193-33.147 27.045-54.044 7.597-41.219-.131-78.104-27.962-110.082-24.66-28.334-56.083-43.601-93.081-47.963-9.434-1.112-8.667-1.106-9.899-10.692-1.334-10.374-2.746-21.223-6.868-30.665C815.168 9.706 776.383-6.972 737.1 2.736c-55.25 13.655-78.612 81.616-43.047 125.67 4.248 5.262 9.707 9.546 14.491 14.174-3.12 5.957-5.891 11.228-8.643 16.509-20.008 38.4-25.003 77.969-5.009 117.505 6.703 13.253 4.97 20.451-4.882 30.496-9.189 9.37-16.229 17.954-23.114 25.751-2.736-4.053-13.929-12.998-18.651-16.354-8.788-6.248-18.843-12.343-28.483-17.041-88.262-43.011-181.688-61.755-279.601-57.097-22.609 1.076-45.354 4.395-67.501 9.165-75.8 16.327-142.678 50.24-197.512 105.743C21.345 411.714-4.932 477.086.764 554.151c3.187 43.112 13.28 84.76 27.601 125.51 12.562 35.742 27.171 70.405 49.811 101.104 12.66 17.167 32.661 37.059 57.072 44.642 8.553 50.733 26.971 103.492 65.131 138.957-12.642 34.928-75.892 201.242-34.686 490.712 23.862 167.629 62.045 340.268 79.877 385.575 0 0-3.521 31.135-43.552 49.668-23.963 11.094-49.774 18.382-73.706 29.67-22.385 10.56-45.039 20.83-63.305 38.052-19.191 18.094-34.15 38.824-36.566 66.323-.667 7.597 1.503 10.326 9.046 10.472 19.23.373 38.48 1.165 57.695.697 43.085-1.05 86.181-2.268 129.216-4.497 13.713-.71 27.502-3.917 40.809-7.6 19.154-5.301 31.688-17.486 34.671-38.212 1.189-8.259 3.183-16.483 5.676-24.452 2.644-8.446 8.295-11.843 16.89-10.072 18.256 3.761 33.121 12.087 39.158 31.394 2.695 8.621 5.336 17.31 8.84 25.613 5.246 12.432 14.383 17.634 27.901 16.83 3.08-.183 6.157-.637 9.199-1.173 14.986-2.643 24.833-11.662 27.265-26.723 1.427-8.842 1.949-18.112 1.034-26.999-2.77-26.88-4.045-61.998.246-88.96 0 0 10.749-5.004 16.891-23.402 3.26-9.767 3.747-20.414 4.517-30.734 2.103-28.181-.188-56.25-6.343-83.692-9.408-41.946-19.733-83.704-30.578-125.305-14.988-57.498-24.222-115.859-26.933-175.143-6.018-131.608 15.631-242.832 24.006-261.708 7.184-16.191 25.819-20.034 38.759-7.854 7.01 6.598 13.401 14.206 18.62 22.295 23.848 36.964 41.1 77.047 53.994 118.999 23.709 77.139 46.04 154.722 70.958 231.465 30.03 92.483 58.7 185.475 94.741 275.915 9.104 22.844 21.536 43.35 38.248 61.507 4.815 5.232 9.652 9.054 9.652 9.054 3.456 20.952 4.415 52.539 1.883 73.808-1.509 12.682-2.393 25.598-1.833 38.332.934 21.265 15.685 34.377 37.084 35.096 13.483.453 23.035-5.326 28.623-17.328 2.587-5.557 4.753-11.482 5.975-17.472 4.817-23.607 20.539-34.91 42.836-39.299 6.293-1.239 11.299.671 13.664 6.492 2.547 6.27 4.944 12.861 5.787 19.518 3.322 26.215 12.817 40.879 43.371 49.127 11.831 3.194 24.313 4.688 36.588 5.383 34.198 1.938 68.443 3.037 102.668 4.52 2.391.104 4.762.639 7.143.974h9.287c1.712-.318 3.421-.888 5.138-.916 19.895-.331 39.792-.572 59.688-.855 7.665-.109 10.57-2.422 9.497-9.942zM921.37 1270.766c-8.618-21.961-11.838-37.491-17.375-56.988-.98-3.454-.901-13.46 4.901-13.124s19.424 20.908 28.933 55.547c2.501 9.112 8.143 30.09.637 32.541s-14.299-10.847-17.097-17.976zm49.844 17.66c-5.138 1.565-8.715-2.96-10.775-7.525-2.138-4.739-13.051-40.917-16.124-54.23-2.008-8.697.777-15.133 5.65-16.328 4.582-1.124 9.341 3.006 11.885 11.799 5.315 18.368 10.324 46.022 12.16 51.226 2.958 8.385-.303 14.298-2.796 15.058zm27.438-1.536c-10.008 4.726-19.369-32.754-21.521-45.631-.876-5.245-1.217-10.791-.517-16.027.678-5.07 4.08-5.841 7.915-2.302 1.889 1.743 3.391 3.998 4.735 6.222 10.116 16.738 19.396 53.013 9.388 57.739zm-25.168-117.769c3.488 13.526 5.091 23.717 6.884 37.57 0 0-5.517-4.056-12.017 5.697-1.946-3.058-9.174-19.459-24.694-15.846-8.9 2.073-13.947 8.896-13.947 8.896-4.681-5.342-14.631-18.024-20.72-21.377-9.916-5.461-19.2.687-19.43 11.951-.098 4.781.232 9.657 1.097 14.355 4.407 23.93 22.095 70.963 22.095 70.963-10.008 3.336-21.683-13.344-27.969-39.485-3.384-14.074-18.039-76.577-19.729-90.828 20.645-.285 41.404-1.455 61.361-6.915 5.893-1.612 32.484-14 32.484-14s8.896 16.958 14.585 39.019zM678.136 347.404c5.252-7.847 11.75-14.87 17.843-22.143 17.862-21.321 35.785-42.59 53.64-63.916.417-.498.802-1.022 1.175-1.569 1.433-2.1.608-4.983-1.742-5.951-1.746-.719-3.42-1.42-5.074-2.169-12.207-5.527-15.972-18.415-9.554-32.556 5.819-12.822 16.934-17.259 29.354-10.554 5.106 2.757 8.921 7.947 13.234 12.123 5.495 5.321 10.231 11.725 16.461 15.931 21.968 14.829 46.831 22.385 72.794 26.315 24.648 3.731 74.191-.333 82.068-5.893-2.78 9.452-6.558 14.647-16.865 24.834-17.312 17.11-23.238 36.779-16.924 60.346.564 2.105.727 4.359.781 6.55.165 6.635-2.767 10.23-9.394 9.817-9.16-.57-14.909 3.675-19.665 10.852-4.26 6.428-9.083 12.488-13.74 18.648-10.351 13.69-23.519 16.227-39.423 10.886-10.813-3.631-21.971-6.617-33.208-8.492-10.18-1.699-19.387 1.621-27.265 9.017-5.986 5.621-12.342 12.933-19.65 14.603-13.191 3.016-26.772-.033-38.931-6.933-18.785-10.659-26.729-20.327-34.84-39.432-3.309-7.794-3.376-16.878-1.076-20.315zM206.837 949.407c-20.153-21.469-34.385-49.772-43.159-79.293-4.184-14.078-6.789-28.626-10.194-43.295 0 0 17.459-1.796 25.739-3.435 50.033-9.9 78.857-35.49 78.857-35.49 4.375 3.93 13.344 21.127 51.707 48.093 7.297 5.129 21.406 18.347 25.854 38.085 1.71 7.591 2.845 15.472-3.892 18.764-12.231 5.977-33.958-36.253-34.563-36.967-4.666-5.501-17.37-23.218-41.695-18.344-21.457 4.299-27.798 19.562-24.277 38.648.476 2.577 10.604 33.481 75.982 69.044 6.51 3.541 26.384 15.076 21.715 19.223-4.668 4.147-28.582-3.83-37.61-8.223-25.992-12.648-46.008-31.768-57.894-41.565-3.502-2.887-7.667-5.497-11.929-4.136s-.007 7.329 1.854 10.905c1.861 3.577 38.826 40.309 88.031 53.745-13.384 2.104-29.378 1.515-40.589-3.564-12.336-5.589-56.053-43.341-57.296-44.17-1.682-1.122-5.58-1.469-6.636-.384-1.576 1.619.576 5.659 2.405 8.457 1.83 2.798 34.842 41.328 76.17 47.815-6.297 8.06-23.455 3.384-24.278 3.151-24.834-7.042-53.257-35.953-54.301-37.066zm47.74-210.134s-46.561-73.586-52.929-171.271c-2.926-44.876 27.657-94.639 78.672-109.931 34.071-10.213 78.486 5.172 80.354 45.703.191 4.147-1.682 21.695-15.543 47.867-22.312 42.127-54.455 97.583-76.348 139.929-12.801 24.759-14.206 47.704-14.206 47.704zm163.967 1146.679c-2.076 11.293-5.328 22.21-5.834 33.253-.846 18.465-.176 37.018.325 55.521.288 10.636 1.342 21.241-3.394 31.262-1.125 2.381-2.297 4.809-3.875 6.892-3.603 4.755-6.903 4.89-9.57-.417-4.234-8.426-8.264-17.092-11.094-26.063-10.69-33.893-46.632-52.999-80.743-42.561-14.857 4.546-22.979 14.868-26.138 29.64-.923 4.315-1.826 8.637-2.618 12.978-3.965 21.723-15.211 32.454-37.664 35.245-8.089 1.006-16.281 1.416-24.438 1.607-38.651.904-77.304 1.764-115.961 2.379-19.211.306-38.431.053-58.877.053 5.158-13.663 12.624-24.712 21.924-34.538 17.357-18.338 39.324-29.74 61.687-40.469 22.672-10.876 45.49-21.451 68.073-32.508 29.772-14.578 53.371-35.252 64.452-67.935 50.386 32.217 105.223 42.301 163.745 35.66zm176.185-976.298c-5.509 4.996-23.022 9.814-30.476 9.378-33.201-1.945-61.151-8.156-93.236-16.411-42.618-10.963-84.146-24.884-123.975-43.118-5.534-12.195-11.431-24.367-22.449-32.791-10.474-8.008-22.131-17.021-33.388-25.48-9.822-7.38-16.315-18.366-17.996-30.536-1.995-14.441-1.222-27.532 1.272-38.402 7.437-32.415 19.803-58.257 35.792-87.012 17.265-31.05 53.155-102.79 57.475-127.042 3.763-21.127-6.631-50.766-16.958-61.297-20.988-21.406-55.047-26.113-86.821-12.534-32.84 14.035-54.462 39.729-69.274 71.709-15.818 34.153-13.966 69.647-5.263 104.468 16.177 64.728 50.212 121.224 54.199 133.577 3.978 12.324-.496 19.046-4.438 22.542-14.198 12.591-31.022 20.285-48.587 26.36-10.138 3.507-20.717 6.708-31.318 7.705-23.795 2.237-42.179-8.75-56.874-26.703-21.428-26.179-36.958-55.895-51.876-86.035-31.841-64.329-40.507-132.513-30.45-202.634 7.968-55.549 37.189-100.933 79.625-136.747 28.722-24.24 61.934-42.407 96.051-58.143 81.373-37.533 168.536-50.729 256.077-36.076 49.328 8.256 96.293 24.131 142.73 41.984 20.305 7.806 44.408 23.621 50.474 28.904 8.618 7.506 5.977 14.456 11.589 31.568 9.466 28.863 26.213 51.444 54.28 64.198 13.753 6.249 28.314 9.237 42.854 2.259 3.897-1.87 6.314-1.341 9.452 1.02 15.935 11.991 28.91 26.505 38.788 43.877 21.057 37.034 32.963 77.083 37.408 119.146 4.062 38.442 4.755 77.227 9.126 115.644 18.41 161.802 64.107 223.333 77.35 250.761 15.155 31.389 27.894 61.208 35.092 95.558 1.983 9.465 14.594 53.792-30.99 71.229-8.244 3.154-61.873 15.941-85.744-1.805-35.051-26.058-91.87-156.682-107.606-202.861-25.437-74.641-29.203-136.823-29.203-136.823 5.99-19.109 12.921-56.537 17.466-76.062 2.848-12.234 4.704-24.714 6.656-37.139 1.522-9.688-3.491-14.23-11.967-11.746-12.191 123.762-65.099 191.299-124.867 245.508zm539.689 1130.873c-29.623.067-59.258.651-88.867.014-34.221-.737-68.454-2.002-102.61-4.161-14.765-.934-29.21-5.484-35.674-21.035-3.181-7.652-4.582-16.081-6.466-24.233-5.565-24.071-17.86-34.353-42.791-34.785-14.357-.249-27.934 3.165-40.611 10.192-14.125 7.83-19.886 21.033-24.432 35.52-2.678 8.535-6.464 16.82-10.628 24.757-2.801 5.34-7.447 5.524-10.115.197-3.263-6.515-6.485-13.895-6.635-20.966-.431-20.309 1.836-40.706.854-60.962-.801-16.527-4.754-32.9-7.248-48.938 59.251 13.146 115.242 8.161 162.63-37.921 1.074 3.206 2.089 6.264 3.123 9.315 9.326 27.554 28.586 46.475 53.655 59.496 27.388 14.227 55.286 27.488 83.144 40.787 27.717 13.232 52.907 29.449 69.729 56.11 3.138 4.973 5.78 10.26 9.09 16.189-2.827.202-4.487.421-6.147.425z"/></svg></g><g transform="translate(440.35714285714283 219.64285714285714) rotate(-33.349623213547524 605.8928571428571 892.5) scale(1.4406503026681878 1.4399213972319629)"><svg width="841.138" height="1239.651" viewBox="0 0 841.138 1239.651"><path d="M824.607 1229.795c23.363-19.487-13.933-255.723-13.933-255.723L205.068 8.661C124.216 19.508 33.387 81.538 5.36 142.893l614.539 965.711s181.345 140.678 204.708 121.191z" fill="#fff"/><path d="M839.665 1157.277c.532 18.655 1.782 37.325 1.403 55.962-.409 20.138-23.063 32.841-40.717 23.029-16.701-9.282-32.884-19.505-49.194-29.48-16.312-9.976-32.602-19.994-48.712-30.292-18.056-11.541-36.298-22.857-53.703-35.327-13.434-9.625-26.17-20.375-38.275-31.638-5.584-5.196-9.007-12.753-13.258-19.337a18938.544 18938.544 0 0 1-42.619-66.281c-11.213-17.528-22.315-35.127-33.473-52.689-16.498-25.967-33.197-51.808-49.452-77.926-19.416-31.195-38.293-62.725-57.704-93.922-16.743-26.909-33.948-53.529-50.87-80.327-10.54-16.691-20.833-33.539-31.419-50.2-10.231-16.101-20.727-32.034-31.052-48.076-19.056-29.611-38.04-59.269-57.116-88.868-11.716-18.179-23.674-36.202-35.289-54.445-11.171-17.545-22.064-35.269-33.037-52.94a11346.263 11346.263 0 0 1-27.415-44.373c-12.999-21.15-25.776-42.438-38.967-63.466-18.688-29.792-37.682-59.391-56.515-89.092-16.582-26.15-33.089-52.348-49.717-78.469-3.081-4.84-3.511-8.812-.603-14.5 11.767-23.019 31.592-38.747 49.599-56.006 19.352-18.548 40.547-35.155 64.547-47.204 15.427-7.745 32.213-12.813 48.47-18.866 8.726-3.249 17.576-6.187 26.46-8.981 4.972-1.564 10.079-2.99 15.226-3.55 1.781-.194 4.494 1.994 5.713 3.811a2343.179 2343.179 0 0 1 28.244 43.101c16.912 26.45 33.488 53.117 50.551 79.469 22.602 34.906 45.806 69.423 68.248 104.43 20.404 31.828 40.139 64.085 60.159 96.159 22.476 36.009 44.778 72.13 67.454 108.013 27.212 43.061 54.77 85.904 82.119 128.879 16.075 25.259 32.301 50.428 47.954 75.947 10.618 17.31 20.025 35.361 30.573 52.716 14.884 24.487 30.4 48.589 45.488 72.953 6.577 10.619 12.6 21.581 19.17 32.205 7.8 12.613 15.965 24.999 23.889 37.536 11.451 18.119 22.928 36.221 34.208 54.446 13.868 22.407 26.809 45.434 41.625 67.189 7.038 10.334 9.042 20.877 10.061 32.592.93 10.692 3.762 21.212 4.845 31.9 2.025 19.979 3.148 40.049 5.098 60.037 2.098 21.512 4.739 42.971 7.079 64.461.413 3.793.51 7.62.754 11.431l.171-.007zM80.538 67.227c1.596 2.755 2.489 4.434 3.507 6.033 23.89 37.54 47.941 74.978 71.652 112.631 24.073 38.228 47.849 76.644 71.683 115.023 12.533 20.181 24.806 40.523 37.383 60.676 15.608 25.008 31.43 49.883 47.122 74.839 9.374 14.909 18.674 29.865 28.011 44.798 9.566 15.299 19.186 30.564 28.691 45.9 12.395 19.999 24.629 40.098 37.066 60.071 11.441 18.371 23.146 36.578 34.582 54.953 24.444 39.275 48.767 78.625 73.181 117.918 18.243 29.362 36.606 58.649 54.815 88.032 15.328 24.732 30.444 49.595 45.777 74.325 17.101 27.583 34.344 55.077 51.52 82.614 11.794 18.909 23.516 37.864 35.454 56.682 1.357 2.14 3.679 4.637 5.929 5.086 17.37 3.467 34.832 6.469 53.307 9.803 5.262-17.15 10.208-33.05 14.931-49.015.471-1.593.124-3.922-.754-5.348-14.686-23.837-29.497-47.596-44.32-71.347-13.915-22.296-27.939-44.524-41.797-66.855-13.978-22.523-27.741-45.18-41.725-67.7-18.247-29.386-36.699-58.645-54.912-88.051-15.172-24.496-30.01-49.198-45.213-73.674-13.986-22.517-28.375-44.785-42.377-67.292-14.318-23.015-28.298-46.24-42.58-69.277-15.426-24.881-31.108-49.604-46.536-74.484-16.421-26.482-32.595-53.118-49.024-79.595-17.774-28.646-35.801-57.136-53.563-85.79-15.746-25.401-31.216-50.973-46.928-76.396-13.27-21.472-26.914-42.715-40.028-64.28-21.39-35.176-42.648-70.436-63.503-105.931-2.772-4.718-5.239-4.61-9.079-3.103-20.718 8.131-41.209 16.703-59.308 30.03-4.049 2.982-8.343 5.631-12.963 8.727zm610.268 1041.378c.621-8.75.556-17.076 2.008-25.128 1.007-5.583-.243-9.872-3.049-14.312-5.44-8.61-10.711-17.327-16.102-25.968-19.543-31.323-39.152-62.605-58.649-93.956-14.55-23.396-28.922-46.903-43.451-70.311-16.78-27.035-33.66-54.009-50.471-81.025-13.448-21.612-26.904-43.219-40.27-64.881-13.14-21.298-26.049-42.738-39.279-63.98-15.133-24.297-30.653-48.353-45.743-72.677-21.584-34.791-42.877-69.764-64.396-104.595-17.725-28.69-35.618-57.276-53.403-85.928-15.996-25.77-31.953-51.564-47.917-77.353-25.578-41.32-51.285-82.56-76.673-123.996-18.613-30.378-36.747-61.05-55.208-91.521C90.1 99.601 81.713 86.4 73.047 72.463 60.095 84.124 46.986 95.16 34.813 107.148c-8.562 8.431-16.05 17.999-23.522 27.451-1.304 1.649-1.214 5.951.035 7.829 12.559 18.88 25.782 37.32 38.259 56.252a7308.836 7308.836 0 0 1 60.126 92.786c17.774 27.879 35.12 56.032 52.635 84.077 16.824 26.939 33.57 53.926 50.451 80.829 9.254 14.748 18.64 29.414 28.101 44.031 17.858 27.593 35.896 55.069 53.704 82.694 18.257 28.321 36.265 56.802 54.498 85.139 15.366 23.882 31.041 47.565 46.314 71.506 13.083 20.508 25.633 41.356 38.708 61.869 12.42 19.485 25.369 38.632 37.769 58.13 5.213 8.197 9.417 17.03 14.422 25.368 10.702 17.832 21.397 35.675 32.518 53.246 15.532 24.541 31.44 48.844 47.207 73.236 8.872 13.726 17.836 27.393 26.664 41.147 9.051 14.102 17.851 28.368 27.115 42.327 1.46 2.201 4.62 4.009 7.287 4.546 11.616 2.34 23.304 4.388 35.034 6.064 9.157 1.308 18.416 1.912 28.668 2.932zM168.623 24.228c2.95 4.908 5.754 9.831 8.8 14.598 19.998 31.299 40.177 62.483 60.042 93.867 16.004 25.284 31.63 50.807 47.458 76.202 15.478 24.832 31.048 49.606 46.491 74.459 17.58 28.293 35.016 56.677 52.607 84.963 13.449 21.626 27.135 43.104 40.549 64.751 16.428 26.512 32.582 53.195 49.042 79.687 14.914 24.002 30.145 47.807 45.119 71.772 14.262 22.827 28.348 45.764 42.557 68.624 16.245 26.136 32.577 52.219 48.805 78.365 18.795 30.281 37.48 60.631 56.282 90.907 19.826 31.925 39.763 63.781 59.599 95.7 18.035 29.019 36.134 58.002 53.853 87.213 2.599 4.285 5.403 6.204 10.179 6.925 6.921 1.045 13.714 2.936 20.665 4.49-.742-6.246-1.144-11.509-2.029-16.691-1.768-10.358-1.44-21.132-7.641-30.544a3211.884 3211.884 0 0 1-39.155-60.893c-17.165-27.375-33.971-54.975-51.016-82.425-15.988-25.747-32.152-51.384-48.118-77.144-15.066-24.308-29.947-48.73-44.963-73.069-11.228-18.2-22.637-36.288-33.785-54.536-10.616-17.377-20.645-35.123-31.572-52.3-14.907-23.433-30.738-46.28-45.599-69.742-21.543-34.012-42.589-68.339-63.817-102.551-19.182-30.914-38.255-61.896-57.5-92.771-18.152-29.121-36.378-58.196-54.736-87.187-16.271-25.695-33.032-51.083-49.102-76.901-23.621-37.952-47.224-75.929-69.879-114.458-4.872-8.285-10.201-10.046-18.281-8.879-1.453.21-2.881.657-4.289 1.095-6.593 2.053-13.176 4.142-20.569 6.472zm536.383 1057.06c-.493 6.721-.468 12.891-1.511 18.875-1.181 6.777-2.849 13.567-5.299 19.972-.847 2.216-4.815 4.838-7.106 4.62-8.834-.84-17.567-2.745-26.336-4.268-6.389-1.109-12.775-2.241-19.162-3.362l-1.076 2.497 119.353 74.164c18.655-17.413 35.496-35.15 60.737-40.627l-10.027-119.027-28.338-6.293c-.773 2.422-1.725 4.577-2.138 6.831-3.434 18.766-10.687 36.074-20.414 52.329-1.22 2.039-5.166 3.668-7.701 3.481-9.294-.683-18.585-1.881-27.762-3.527-7.597-1.363-15.032-3.63-23.222-5.666z"/></svg></g><g transform="translate(502.5 396.42857142857144) rotate(0.0 204.10714285714283 404.99999999999994) scale(1.0659728051032398 1.06730617192853)"><svg width="382.95" height="758.92" viewBox="0 0 382.95 758.92"><path class="cls-2" d="M136.436 579.93a4 4 0 0 1 2.757 3.155c10.253 60.818 31.755 106.808 63.91 136.691 1.175 1.093 36.593 33.784 64.151 33.008 19.737-.556 21.587-5.508 26.687-11.676 22.795 0 24.874-7.486 28.633-10.842 0 0 12.788-1.946 13.622-8.34 1.474-11.302-14.36-20.034-33.081-30.857-13.464-7.784-93.096-54.855-57.544-83.12 22.378-17.792 37.807-.278 61.686 37.341 7.559 11.908 28.384 16.868 31.997 8.528 19.585-45.197-51.979-84.591-59.212-94.517-25.019-34.332-36.266-68.227-43.459-82.959-14.449-29.59-34.679-84.596-38.926-149.739-1.521-23.337 5.51-47.692 19.798-68.577 14.955-21.858 36.873-37.998 61.717-45.444 18.502-5.549 39.383-3.777 55.641 4.313l.085.043c3.837 1.938 8.313-1.064 7.895-5.342-1.789-18.292-4.59-56.108-1.037-87.074 7.784-67.834 22.038-93.351 32.806-111.67 2.292-3.899-.518-8.821-5.041-8.829a594.034 594.034 0 0 0-29.174.666c-21.029 1.001-43.52 4.056-66.849 9.08-77.655 16.727-143.434 51.934-195.509 104.644C23.933 173.128-.707 238.328 4.754 312.199c2.933 39.67 11.891 80.387 27.386 124.478 11.044 31.426 25.534 67.89 49.256 100.057 9.324 12.644 28.872 35.067 55.04 43.196Z"/><path class="cls-1" d="M78.177 539.108c12.66 17.167 32.661 37.059 57.072 44.642 8.553 50.733 25.905 102.513 63.131 138.957 23.559 23.064 63.315 54.541 103.709 22.74 12.285 2.194 23.821-4.338 26.601-12.122 6.672-.278 25.023-7.388 12.51-22.1-9.34-10.981-110.679-66.31-94.556-90.217 29.899-44.333 37.289 53.105 89.552 42.541 20.652-4.174 15.448-34.749 10.846-45.702-5.534-12.195-11.431-24.367-22.449-32.791-10.475-8.009-22.133-17.023-33.391-25.482a46.164 46.164 0 0 1-15.719-21.282c-1.066-2.965-15.183-30.778-20.906-40.677-2.393-4.138-3.764-5.949-9.298-16.709-13.93-27.084-39.073-84.652-43.631-154.563-2.926-44.876 27.657-94.639 78.672-109.931 18.298-5.485 39.578-3.583 55.649 5.63 3.225 1.849 7.318 1.033 9.621-1.884a7.549 7.549 0 0 0-1.299-10.639c-21.109-16.373-51.643-19.024-80.322-6.768-32.84 14.035-54.462 39.729-69.274 71.709-15.818 34.153-13.966 69.647-5.263 104.468 16.177 64.728 50.212 121.224 54.199 133.577 3.978 12.324-.496 19.046-4.438 22.542-14.198 12.591-31.022 20.285-48.587 26.36-10.138 3.507-20.717 6.708-31.318 7.705-23.795 2.237-42.179-8.75-56.874-26.703-21.428-26.179-36.958-55.895-51.876-86.035-31.841-64.329-40.507-132.513-30.45-202.634 7.968-55.549 37.189-100.933 79.625-136.747 28.722-24.24 61.934-42.407 96.051-58.143 56.627-26.119 116.059-40.439 176.471-41.801 5.472-.123 13.027-6.646 10.038-13.03-1.285-2.744-5.867-3.979-5.867-3.979a609.134 609.134 0 0 0-36.248.65c-22.609 1.076-45.354 4.395-67.501 9.165-75.8 16.327-142.678 50.24-197.512 105.743-53.8 54.458-80.077 119.83-74.381 196.896 3.187 43.112 13.28 84.76 27.601 125.51 12.562 35.742 27.171 70.405 49.811 101.104Zm101.047 42.619c50.033-9.9 78.857-35.49 78.857-35.49 4.375 3.93 13.344 21.127 51.707 48.093 7.297 5.129 21.406 18.347 25.854 38.085 1.71 7.591 2.845 15.472-3.892 18.764-12.231 5.977-33.958-36.253-34.563-36.967-4.666-5.501-17.37-23.218-41.695-18.344-21.457 4.299-27.798 19.562-24.277 38.648.476 2.577 10.604 33.481 75.982 69.044 6.51 3.541 26.384 15.076 21.715 19.223-4.668 4.147-28.582-3.83-37.61-8.223-25.992-12.648-46.008-31.768-57.894-41.565-3.502-2.887-7.667-5.497-11.929-4.136-4.262 1.361-.007 7.329 1.854 10.905 1.861 3.577 38.826 40.309 88.031 53.745-13.384 2.104-29.378 1.515-40.589-3.564-12.336-5.589-56.053-43.341-57.296-44.17-1.682-1.122-5.58-1.469-6.636-.384-1.576 1.619.576 5.659 2.405 8.457 1.83 2.798 34.842 41.328 76.17 47.815-6.297 8.06-23.455 3.384-24.278 3.151-24.834-7.042-53.257-35.953-54.301-37.066-20.153-21.469-34.385-49.772-43.159-79.293-4.184-14.078-6.789-28.626-10.194-43.295 0 0 17.459-1.796 25.739-3.435Z"/></svg></g><g transform="translate(1451.7857142857142 1402.5) rotate(0.0 66.42857142857144 63.75) scale(1.0636995929347475 1.066374493994848)"><svg width="124.901" height="119.564" viewBox="0 0 124.901 119.564"><path class="cls-2" d="M120.834 96.932c-.885-10.802-2.591-22.189-5.071-33.848-5.282-24.823-14.466-30.873-14.558-30.931a3.792 3.792 0 0 1-.863-.7c-5.434-2.487-12.748-5-16.614.423-5.616 7.879-10.25-.335-13.933-5.582-3.133-4.465-4.661-9.543-11.144-9.072-6.036.439-11.582 4.242-15.228 8.877-1.763 2.24-5.22 1.609-7.071 0-3.322-2.887-6.021-6.742-9.661-9.225C22.14 13.77 13.108 9.127 10.002 17.9c-.554 1.565-.628 3.219-.722 4.873-.347 6.136 1.22 12.132 2.48 18.084 2.675 12.63 5.367 25.316 9.57 37.534 10.774 31.322 22.973 38.948 35.157 36.476 3.146-.636 4.14-4.1 4.419-6.893l.031-.291a4 4 0 0 1 7.314-1.691c4.702 7.176 10.159 8.576 13.923 8.551 4.567-.073 7.82-2.266 8.345-3.125 1.149-1.882 3.628-2.515 5.513-1.371 6.921 4.202 13.379 4.885 18.187 1.915 4.536-2.802 7.132-8.702 6.613-15.031Z"/><path class="cls-1" d="M124.821 96.605c-.944-11.526-2.506-23.109-5.146-34.353-3.02-12.864-8.622-27.596-16.408-34.526-4.027-3.585-9.727-6.275-15.987-3.888-2.058.785-5.21 1.611-8.474 6.509-1.946-3.058-9.174-19.459-24.694-15.846-8.9 2.073-13.947 8.896-13.947 8.896-4.681-5.342-14.631-18.024-20.72-21.377C9.531-3.44.247 2.708.017 13.971c-.098 4.781.232 9.657 1.097 14.355 4.407 23.93 22.095 70.962 22.095 70.962s3.104 8.436 7.367 13.066c3.345 3.632 12.637 9.281 26.706 6.435 7.07-1.431 7.523-9.791 7.626-10.604 10.564 16.124 26.4 9.73 29.05 5.282 18.765 11.398 32.106-1.695 30.864-16.862Zm-75.898 10.096c-7.506 2.451-14.299-10.847-17.097-17.976-8.618-21.961-11.838-37.491-17.375-56.988-.98-3.454-.901-13.46 4.901-13.124S38.776 39.521 48.285 74.16c2.501 9.111 8.143 30.09.637 32.541Zm32.748-.316c-5.138 1.565-8.715-2.96-10.775-7.525-2.138-4.739-13.051-40.917-16.124-54.23-2.008-8.697.777-15.133 5.65-16.328 4.582-1.124 9.341 3.006 11.885 11.799 5.315 18.368 10.324 46.022 12.16 51.227 2.958 8.385-.303 14.298-2.796 15.058Zm27.438-1.536c-10.008 4.726-19.369-32.754-21.521-45.631-.876-5.245-1.217-10.791-.517-16.027.678-5.07 4.08-5.841 7.915-2.302 1.889 1.743 3.391 3.998 4.735 6.222 10.116 16.738 19.396 53.013 9.388 57.739Z"/></svg></g></svg>