<svg xmlns="http://www.w3.org/2000/svg" viewBox="0 0 3000 3000" width="3000" height="3000"><g transform="translate(718.5 1212.0) rotate(0.0 771.75 839.25) scale(1.4998163490184875 1.4997560718453298)"><svg width="1029.126" height="1119.182" viewBox="0 0 1029.126 1119.182"><g fill="#fff"><path d="M912.964 15.098c-186.211 988.163-779.21 474.469-748.435 52.934 186.822 75.109 584.234 21.011 748.436-52.934zM258.931 1104.977c-4.161-332.205-44.428-249.529 110.287-260.092 158.689 1.778 316.355-10.081 480.936 3.73 47.364-14.211.94 135.923 11.255 194.521 6.118 91.491 6.452 39.954-602.478 61.84zm496.774-141.516c19.411-128.513-39.533-64.931-122.676-71.482-295.195 26.629-260.345 1.813-262.571 48.757 4.165 28.758-5.361 70.504 6.41 97.789 56.21.634 106.583.758 165.439 1.799 263.452-.283 201.736 30.573 213.398-76.863z"/><path d="M489.575 590.499c37.588 5.979 74.038 4.175 111.062-5.864-10.582 292.983 35.886 232.968-65.837 247.633-60.569 27.881-30.798-207.155-45.225-241.769zM195.48 305.345c43.805 66.735-107.43 58.392-137.111 21.407-99.724-80.745-26.168-214.343 84.158-211.062 14.122-4.269 9.931 13.098 13.947 34.273 11.612 22.291-48.299 21.452-62.017 41.425-89.397 83.38 20.38 150.238 101.023 113.957zm692.351-119.888c-5.228-55.042 86.749-28.81 115.771 4.097 70.229 105.893-77.758 129.768-151.924 102.717 2.375-.588 18.517-79.158 21.018-39.756 88.42 58.412 125.602-55.094 15.135-67.058zM708.33 926.171c23.717 41.71-60.411 20.568-135.783 25.971-13.103-7.98-153.85 13.497-157.631-7.425 93.533-18.062 194.121-1.108 293.414-18.547zm-287.567 55.304c19.072.164 327.265-12.262 295.559 22.889-50.145-.446-103.259-8.583-159.311-7.391-50.437-6.352-140.52 9.714-136.248-15.498z"/></g><path d="M755.705 963.461c-7.44 25.78 12.333 86.271-17.991 79.744-120.971-4.972-247.352 2.017-364.646-7.975-3.713-157.468-25.956-117.801 93.071-130.895 369.436-22.818 281.012-48.889 289.566 59.127zm-47.375-37.29c-72.597 6.921-493.77 23.657-177.676 24.661 16.361-5.709 215.284 23.044 177.676-24.661zm-287.567 55.304c-4.732 25.934 118.555 9.413 136.238 15.504 27.419-8.352 174.774 25.521 159.218-5.791-85.069-16.742-197.408-10.5-295.455-9.713z"/><path d="M741.912 1044.187c-1.338 0-2.773-.164-4.304-.494-49.898-2.043-101.612-2.056-151.624-2.067-70.853-.017-144.118-.034-212.959-5.899l-.447-.038-.011-.448c-.629-26.678-1.78-47.523-2.706-64.272-1.864-33.742-2.715-49.142 4.057-56.506 5.716-6.218 16.747-6.535 36.772-7.112 13.414-.386 31.785-.916 55.393-3.513 88.158-5.446 149.206-10.981 193.782-15.023 64.778-5.874 89.015-8.071 96.67-.081 4.46 4.658 3.38 12.699 1.745 24.872-1.599 11.902-3.789 28.204-2.077 49.816l.007.091-.025.087c-2.602 9.015-1.833 22.54-1.089 35.62 1.049 18.453 2.041 35.883-5.566 42.392-2.004 1.715-4.557 2.576-7.619 2.576zm-368.355-9.418c68.671 5.823 141.747 5.84 212.428 5.857 50.021.012 101.746.024 151.75 2.079 4.861 1.038 8.479.429 11.146-1.854 7.23-6.187 6.207-24.177 5.218-41.575-.746-13.122-1.518-26.688 1.101-35.866-1.707-21.674.487-38.008 2.09-49.938 1.597-11.885 2.651-19.737-1.476-24.047-7.321-7.643-31.429-5.457-95.857.385-44.582 4.042-105.638 9.579-193.787 15.023-23.624 2.6-42.019 3.129-55.449 3.517-19.754.569-30.635.882-36.065 6.789-6.485 7.054-5.642 22.322-3.794 55.774.92 16.663 2.064 37.377 2.696 63.856zm315.007-29.505c-17.542 0-40.806-2.463-63.648-4.881-29.526-3.126-57.414-6.078-67.769-2.924l-.155.047-.153-.053c-5.851-2.016-23.764-1.509-44.504-.924-36.024 1.016-80.854 2.283-90.335-8.764-1.583-1.844-2.164-3.99-1.728-6.378l.074-.407.414-.003c18.4-.148 36.877-.48 56.439-.832 83.559-1.501 169.963-3.056 239.117 10.554l.242.048.109.22c1.556 3.132 1.595 5.8.115 7.928-3.274 4.709-13.819 6.37-28.217 6.37zm-117.61-10.15c13.702 0 33.486 2.095 54.066 4.273 39.38 4.169 84.014 8.895 90.939-1.065 1.24-1.784 1.214-3.975-.083-6.692-69.009-13.539-155.251-11.986-238.662-10.487-19.414.349-37.76.679-56.024.829-.253 1.935.262 3.62 1.567 5.141 9.17 10.686 53.739 9.427 89.548 8.416 20.663-.583 38.532-1.088 44.703.927 3.222-.948 8.015-1.341 13.945-1.341zm75.711-40.287c-22.66 0-47.726-1.431-69.497-2.674-23.421-1.337-41.921-2.394-46.349-.849l-.081.028h-.085c-116.579-.371-116.645-2.835-116.681-4.159-.03-1.105-.075-2.775 57.478-6.795 33.745-2.357 77.375-4.844 119.567-7.25 49.982-2.85 97.192-5.541 117.265-7.455l.271-.026.168.214c4.688 5.946 5.966 11.071 3.798 15.233-5.606 10.765-33.236 13.731-65.856 13.731zm-106.219-5.279c8.644 0 21.695.745 36.779 1.606 49.859 2.847 125.208 7.148 134.409-10.521 1.944-3.733.756-8.422-3.529-13.938-20.245 1.914-67.264 4.595-117.03 7.432-75.856 4.325-169.949 9.689-175.92 13.014 2.799 1.333 25.764 2.906 115.418 3.191 1.688-.557 5.112-.784 9.873-.784z"/><path d="M243.38 835.481c326.766-17.999 232.854 61.33 238.3-246.048-115.925-26.439-204.705-120.488-259.952-226.195-7.974-10.75-2.774-26.236-24.495-12.671-230.297 67.325-274.724-253.696-45.639-239.35 3.048-29.044-15.043-63.562 38.449-39.111 144.773 38.121 288.202 23.988 438.527 4.614 359.275-49.165 308.813-174.208 269.737 68.272 202.884-13.745 151.465 227.465-34.619 164.478-9.486 4.908-15.115-18.401-27.057 15.12-128.939 289.104-220.804 225.153-228.555 267.139 14.268 348.075-48.842 200.014 252.703 240.464 40.658-7.949 15.272 134.563 18.146 168.079-8.505 161.282 65.415 103.987-265.67 113.817-452.477-14.994-370.144 97.005-369.876-278.609zM912.964 15.098C696.99 102.587 355.087 136.331 159.813 67.652c-15.01 245.068 235.255 660.615 519.485 464.291C808.566 443.129 901.82 118.195 912.965 15.098zM258.931 1104.977c731.219-24.443 584.826 41.945 602.461-108.828-3.061-50.051 35.457-157.342-18.922-148.603-165.643-10.593-321.483-3.975-490.335-.68-124.814-4.649-101.985-47.621-93.205 258.111zm230.644-514.478c27.381 277.648-29.576 243.765 98.364 237.215 32.261.68 2.748-230.955 12.698-243.079-37.024 10.04-73.473 11.843-111.062 5.864zM195.48 305.345c-93.831 37.668-183.303-37.419-101.026-113.963 23.427-27.798 60.297-13.958 62.928-34.259-5.927-12.862 6.486-48.869-22.555-41.381-124.098 5.107-164.57 146.81-71.043 215.174 34.864 34.117 178.605 38.766 131.696-25.571zm692.351-119.888c130.94 22.98 46.941 127.677-16.932 62.473 2.493-.266-6.432-12.305 14.414-2.129 91.366 30.546 83.676-38.435-.81-50.237-10.965 29.799-19.177 62.209-32.831 96.706 147.13 41.397 216.113-48.844 137.23-117.762-29.417-9.405-99.783-48.042-101.072 10.949zm-729.164-14.548c-173.428 53.288-32.773 201.932 30.553 117.564-13.702-38.215-23.331-76.12-30.553-117.564z"/><path d="M312.128 1119.178c-31.188 0-50.016-3.195-61.052-14.229-16.989-16.988-15.374-52.381-12.156-122.894 1.745-38.239 3.917-85.829 3.96-146.574v-.473l.473-.026c67.6-3.724 117.191-3.283 153.397-2.961 49.753.442 74.726.664 85.416-10.837 9.993-10.752 8.278-31.595 4.862-73.118-3.001-36.478-7.108-86.414-5.855-158.236-54.623-12.535-105.946-40.593-152.562-83.4-41.022-37.671-78.135-87.106-107.326-142.96-2.284-3.068-3.501-6.57-4.575-9.659-1.333-3.834-2.386-6.862-4.95-7.766-2.765-.976-7.297.597-14.263 4.947l-.125.056c-69.687 20.373-130.745 6.625-167.518-37.716-32.276-38.922-39.15-94.193-17.106-137.538 10.727-21.09 27.92-38.149 49.724-49.333 24.474-12.553 54.305-17.859 88.673-15.773.642-6.619.215-13.392-.197-19.947-.726-11.524-1.352-21.477 4.563-25.544 5.617-3.864 16.657-1.812 34.741 6.455 143.973 37.902 283.662 24.497 438.255 4.573 139.917-19.147 216.817-49.474 258.131-65.767 21.763-8.582 32.687-12.89 37.149-9.023 4.683 4.059 1.774 16.315-4.6 43.169-5.18 21.823-12.996 54.755-20.285 99.847 59.862-3.908 104.455 14.617 122.411 50.868 14.229 28.727 8.734 64.083-14 90.075-14.153 16.182-33.733 27.326-56.624 32.229-26.148 5.6-55.404 3.04-86.962-7.612-3.33 1.61-6.154.045-8.89-1.47-2.345-1.298-4.563-2.527-6.937-1.627-3.452 1.305-6.984 7.142-10.796 17.844-39.723 89.069-80.691 154.865-121.78 195.596-34.495 34.194-62.335 44.328-80.757 51.034-14.835 5.4-23.798 8.661-25.986 20.378 2.451 59.817 2.619 105.558 2.742 138.96.21 57.157.306 83.244 11.289 93.243 8.536 7.771 23.695 6.403 51.217 3.918 37.742-3.407 94.778-8.555 186.939 3.8 4.675-.894 8.716.14 12.016 3.07 16.519 14.673 11.949 75.574 8.612 120.041-1.469 19.574-2.737 36.479-1.97 45.432-1.605 30.525-.261 53.323.721 69.969 1.255 21.283 1.946 33.007-4.467 39.558-8.211 8.385-27.112 7.671-72.779 5.945-39.784-1.504-99.907-3.776-189.628-1.112-106.613-3.533-183.02-.039-238.809 2.512-24.894 1.138-45.43 2.077-62.335 2.077zm-68.249-283.224c-.054 60.539-2.22 107.998-3.96 146.146-3.205 70.219-4.813 105.464 11.864 122.14 16.705 16.704 52.105 15.086 122.634 11.861 55.806-2.551 132.235-6.044 238.855-2.512 89.725-2.665 149.868-.392 189.664 1.112 44.031 1.663 64.125 2.423 72.026-5.646 6.104-6.234 5.422-17.801 4.184-38.799-.983-16.669-2.329-39.5-.72-70.011-.773-8.964.498-25.906 1.97-45.523 3.321-44.259 7.869-104.874-8.279-119.219-3.116-2.767-6.793-3.69-11.241-2.82l-.081.016-.082-.011c-92.1-12.354-149.086-7.21-186.797-3.806-27.804 2.509-43.12 3.892-51.98-4.175-11.308-10.295-11.404-36.52-11.616-93.978-.123-33.405-.291-79.155-2.743-138.98l-.002-.056.01-.055c2.274-12.323 11.445-15.661 26.637-21.191 35.731-13.006 110.081-40.069 201.952-246.061 3.958-11.112 7.575-16.973 11.371-18.408 2.807-1.062 5.333.336 7.775 1.688 2.675 1.48 5.202 2.879 8.139 1.359l.188-.098.201.068c58.696 19.867 112.046 10.799 142.71-24.261 22.466-25.686 27.905-60.609 13.856-88.973-17.83-35.997-62.32-54.326-122.075-50.272l-.627.042.1-.621c7.324-45.448 15.193-78.601 20.4-100.539 6.087-25.647 9.143-38.521 4.917-42.183-4.005-3.472-15.415 1.029-36.127 9.197-41.353 16.308-118.326 46.664-258.366 65.827-67.235 8.666-145.333 18.015-221.406 19.259-80.214 1.318-151.299-6.5-217.317-23.884-17.814-8.135-28.542-10.214-33.839-6.569-5.448 3.747-4.838 13.437-4.131 24.658.405 6.439.865 13.737.146 20.591l-.05.477-.479-.03c-64.734-4.05-115.004 19.467-137.923 64.531-21.866 42.995-15.041 97.828 16.985 136.444 36.496 44.007 97.142 57.642 166.402 37.414 7.31-4.558 11.958-6.103 15.066-5.005 3.017 1.064 4.196 4.455 5.561 8.381 1.05 3.021 2.241 6.446 4.475 9.458 36.989 70.761 119.848 194.119 259.662 226.006l.396.09-.007.406c-1.275 71.992 2.84 122.016 5.845 158.542 3.44 41.816 5.167 62.805-5.126 73.88-10.989 11.824-36.108 11.601-86.157 11.157-36.11-.321-85.534-.76-152.862 2.934zm14.567 269.539-.014-.502c-1.456-50.667-3.303-91.901-4.788-125.033-3.775-84.263-5.338-119.141 7.806-131.699 8.843-8.449 24.159-7.062 49.534-4.765 11.775 1.066 25.122 2.274 41.171 2.873 29.032-.567 58.05-1.241 86.112-1.892 137.332-3.187 267.043-6.198 404.18 2.569 8.982-1.432 15.992.258 20.842 5.022 14.041 13.79 8.718 51.217 3.569 87.413-3.032 21.317-5.896 41.453-4.967 56.64-3.034 26.003-1.187 45.729.162 60.133 1.458 15.572 2.421 25.86-3.669 32.494-11.056 12.043-44.077 11.781-142.101 11.005-86.491-.684-231.254-1.831-457.335 5.727l-.502.017zm25.864-262.752c-10.056 0-17.229 1.519-22.169 6.24-12.815 12.245-11.258 46.989-7.498 130.932 1.48 33.026 3.32 74.1 4.773 124.547 225.816-7.54 370.437-6.395 456.875-5.709 95.038.752 130.6 1.034 141.355-10.682 5.79-6.307 4.843-16.418 3.411-31.725-1.353-14.448-3.205-34.235-.162-60.254-.938-15.2 1.933-35.384 4.973-56.754 5.113-35.949 10.4-73.122-3.28-86.558-4.687-4.603-11.243-6.151-20.038-4.739l-.056.009-.056-.003c-137.114-8.769-266.824-5.758-404.149-2.571-28.064.651-57.083 1.325-86.145 1.892-16.104-.599-29.464-1.809-41.252-2.876-10.531-.954-19.312-1.749-26.583-1.749zm239.574-9.78c-8.003 0-13.509-1.164-17.276-4.565-7.934-7.162-8.071-23.874-8.372-60.488-.302-36.702-.758-92.167-9.159-177.36l-.063-.645.64.102c37.858 6.021 74.118 4.107 110.852-5.853l1.51-.41-.992 1.209c-3.497 4.261-1.855 38.554.046 78.262 3.146 65.71 7.062 147.488-7.564 162.511-1.649 1.694-3.504 2.54-5.578 2.488-15.67.804-28.729 2.033-39.222 3.021-10.188.959-18.327 1.726-24.821 1.726zm-33.748-241.867c8.345 84.875 8.799 140.177 9.101 176.806.298 36.313.435 52.886 8.042 59.754 6.499 5.866 18.872 4.702 41.333 2.585 10.502-.989 23.573-2.22 39.301-3.025 1.834.038 3.407-.678 4.876-2.186 14.323-14.712 10.419-96.25 7.282-161.766-1.872-39.099-3.374-70.468-.43-77.841-36.281 9.678-72.123 11.535-109.504 5.673zm39.152-7.544c-41.117 0-82.061-11.349-121.823-33.787-71.811-40.522-137.632-116.229-185.339-213.173-44.81-91.059-67.704-189.094-62.812-268.968l.041-.661.625.22c206.006 72.452 551.156 29.137 752.797-52.546l.775-.314-.09.831c-5.735 53.058-32.504 160.746-72.568 263.906-34.427 88.646-90.36 204.549-161.313 253.297-46.658 32.228-94.632 49.408-142.586 51.062-2.569.089-5.139.133-7.707.133zM160.273 68.343c-9.243 156.118 90.052 391.599 247.684 480.549 88.547 49.965 182.277 43.963 271.057-17.36 70.743-48.604 126.571-164.321 160.948-252.836 39.826-102.545 66.5-209.541 72.415-262.82-106.202 42.896-245.998 73.708-383.71 84.561-145.673 11.48-276.463.083-368.393-32.093zm-11.638 287.629a181.56 181.56 0 0 1-17.912-.913c-29.508-2.931-55.292-12.045-67.289-23.785-22.042-16.106-37.895-37.388-45.789-61.501-7.396-22.591-7.636-46.605-.695-69.445 15.227-50.103 60.363-82.7 117.803-85.083 6.669-1.71 11.566-1.279 14.972 1.32 5.868 4.48 6.013 14.437 6.153 24.066.092 6.39.18 12.426 1.958 16.283l.061.13-.019.143c-1.311 10.116-10.724 12.03-22.642 14.454-12.631 2.568-28.35 5.765-40.399 20.063-32.102 29.87-40.848 62.166-24.039 88.65 9.874 15.558 27.494 26.863 49.614 31.835 23.429 5.266 50.024 2.67 74.882-7.308l.361-.145.229.314c14.897 20.432 9.306 32.261 1.992 38.587-9.178 7.938-27.263 12.334-49.241 12.334zm-6.742-240.751c-2.037 0-4.344.335-6.941 1.005l-.104.015c-57.027 2.347-101.836 34.678-116.939 84.376-14.747 48.525 2.944 98.298 46.171 129.895 11.897 11.635 37.45 20.642 66.743 23.551 29.583 2.939 55.029-1.346 66.4-11.182 10.109-8.744 9.463-21.167-1.918-36.927-24.939 9.934-51.598 12.495-75.112 7.211-22.38-5.03-40.222-16.492-50.239-32.275-7.867-12.396-10.262-26.73-6.925-41.455 3.716-16.396 14.175-32.687 31.085-48.419 12.232-14.52 28.14-17.755 40.923-20.354 11.469-2.333 20.54-4.176 21.83-13.463-1.808-4.05-1.896-10.125-1.989-16.553-.136-9.391-.277-19.101-5.76-23.286-1.87-1.427-4.26-2.139-7.226-2.139zm.296 199.199c-6.559 0-13.313-1.15-20.149-3.491-27.854-9.537-47.759-36.008-47.331-62.942.309-19.442 11.608-55.37 83.812-77.556l.542-.167.098.559c7.479 42.914 17.18 80.244 30.531 117.481l.091.254-.162.215c-12.627 16.823-29.274 25.646-47.432 25.646zm16.083-142.866c-71.119 22.012-82.26 57.326-82.563 76.449-.421 26.513 19.2 52.579 46.655 61.98 25.243 8.643 49.392.772 66.295-21.595-13.267-37.047-22.928-74.194-30.387-116.834zm762.984 131.679c-20.458 0-43.771-3.181-69.718-10.481l-.534-.15.204-.515c7.802-19.711 13.803-38.67 19.606-57.005 4.382-13.844 8.521-26.921 13.22-39.689l.139-.378.399.056c38.749 5.413 60.986 22.429 65.835 36.892 1.988 5.93.921 11.359-3.004 15.289-9.442 9.451-32.131 9.095-62.249-.974-9.005-4.391-12.066-4.433-13.056-3.695-.788.585-.564 1.97-.367 3.192.156.965.281 1.733-.057 2.233 23.364 23.55 48.498 23.656 64.289 15.857 14.177-7.003 22.088-20.239 20.153-33.72-1.425-9.93-10.94-34.113-68.373-44.192l-.423-.074.009-.43c.295-13.501 4.29-22.912 11.872-27.969 17.226-11.491 49.653 1.179 73.332 10.429 6.117 2.39 11.895 4.647 16.521 6.126l.177.1c31.345 27.385 41.302 59.91 26.635 87.004-12.852 23.742-45.484 42.095-94.611 42.097zm-68.915-11.294c87.422 24.44 144.667 1.933 162.646-31.279 14.417-26.63 4.57-58.665-26.336-85.707-4.64-1.489-10.393-3.736-16.482-6.115-23.472-9.171-55.619-21.73-72.412-10.529-7.216 4.813-11.056 13.804-11.417 26.731 57.699 10.238 67.313 34.84 68.765 44.96 1.998 13.917-6.127 27.561-20.699 34.759-16.2 8.003-42.01 7.875-65.865-16.479l-.723-.738 1.027-.109c.117-.158-.014-.966-.101-1.501-.231-1.429-.519-3.207.757-4.155 1.143-.848 3.84-1.399 14.03 3.575 29.248 9.773 52.134 10.228 61.164 1.19 3.644-3.647 4.625-8.713 2.764-14.264-4.582-13.664-26.75-30.774-64.626-36.163-4.633 12.626-8.73 25.57-13.065 39.267-5.758 18.191-11.711 36.998-19.427 56.556z"/></svg></g><g transform="translate(570.0 219.0) rotate(0.0 1021.5 863.25) scale(1.4994770546248557 1.4999661171858845)"><svg width="1362.475" height="1151.026" viewBox="0 0 1362.475 1151.026"><g fill="#fff"><path d="M249.531 546.561c-16.58-31.74-26.266-68.17-42.787-101.952-8.328-4.202-15.291 6.137-25.532 5.619-21.012 1.459-28.598-28.905-12.614-41.717 50.683 3.71 80.826-51.723 100.269-92.168 5.27-10.376 6.418-21.904 11.922-32.32 12.198 10.436 22.801 24.336 24.966 43.133.196 43.084 61.504 24.229 30.872 59.954-1.794 4.642-1.723 3.905.171 10.793 12.328 42.435 24.798 46.381-17.358 66.816-17.437 5.518-7.019 56.385 3.082 50.344-9.5 26.802-46.734 32.415-72.991 31.498zm1017.365-255.405c-2.474-27.034-25.662-43.694-51.443-51.467 58.105-68.452-2.145-180.611 61.662-228.009 18.988 47.623 28.435 99.9 42.409 150.537 7.94 17.02-38.221 14.955-24.149 44.903 6.071 20.894 30.317 17.151 48.184 10.395 8.727.387 20.859 36.446 5.144 40.052-29.512 6.435-53.319 21.636-81.807 33.59zm-359.92 681.033c20.528 34.533 43.955 28.926 68.381 34.977 46.658 78.667 114.293 54.591 103.604 138.809-50.606-13.558-100.111-35.775-149.492-56.643-34.923-8 24.954-35.675-11.756-50.292-16.252-5.661-19.035 19.78-31.101 29.665-3.493 7.636-34.35-8.414-28.596-15.245 16.98-26.015 29.71-54.851 48.96-81.271zM722.411 548.815c-8.928 11.348-19.832 18.47-31.989 31.836-1.89 20.462 26.872-3.741 36.656-9.126 27.802-12.604 64.426-22.275 89.595-7.687 7.548 14.762-44.706 6.558-54.522 10.576-16.199 3.502-25.456 10.514-40.624 19.5 6.873 16.568 29.228-10.391 42.73-11.23 14.593-2.359 33.604-1.336 50.05-4.282 8.893-3.703 15.276-6.828 22.628 3.55-28.236 15.339-72.573 3.126-98.923 28.111 3.643 14.504 20.853-5.836 31.856-6.3 15.571-3.429 28.971-5.75 45.359-7.347 8.258 5.673-1.784 11.294-9.123 13.382-31.219 5.641-62.912 10.337-89.045 32.137-6.704 6.117-5.48-10.808-9.726-15.247-7.791-12.686-21.159-22.958-37.152-24.108-19.159 11.66-27.838 32.899-42.612 50.474-32.441 44.767-76.934 84.803-133.423 99.11-81.229 16.672-84.889-24.924-110.773-73.446-15.6-33.809-57.241-60.227-94.813-44.824 12.206-10.422 29.787-8.197 46.345-4.118 62.778 8.301 64.068 71.881 99.647 106.153 82.321 56.622 168.341-73.78 204.502-122.328 6.654-7.481 12.734-9.971 22.069-14.244 15.695-20.029 36.019-48.272 61.289-50.541zM556.205 127.132c13.262 2.434 26.247-1.015 39.867-1.837-5.525 10.289-7.571 29.487 11.337 24.399.185 7.345 4.8 14.27 15.062 14.779 9.484 32.194 26.61 9.208 42.142-1.715-1.228 13.989-5.654 26.575-8.757 39.777-20.322-8.267-45.002-20.732-68.04-7.462-98.38-87.344-16.983-112.563.708-82.23 13.063 18.15-35.31 1.116-32.319 14.289z"/><path d="M643.536 90.373c27.679.204-39.186 54.947-44.896 55.947-3.424-16.478 32.856-49.963 44.896-55.947zm-28.764 68.818c-1.737-13.001 14.284-23.685 23.046-34.71 8.177-9.7 27.403-32.427 17.466-2.919-10.127 13.648-22.658 28.82-40.513 37.629zm49.001-32.868c7.719 15.524-3.961 26.964-15.462 37.847-6.552 8.785-25.07 17.409-16.189-1.929 10.306-12.822 19.885-22.405 31.65-35.918z"/></g><path d="M979.972 999.958c49.023 77.122 129.941 53.878 109.327 150.546-58.525-3.097-117.237-41.836-172.825-63.043-22.43-12.493.427-23.47 3.386-41.201-11.261 7.022-15.886 30.201-29.149 31.592-13.209-6.354-55.854-16.114-37.12-34.867 16.967-25.681 32.267-49.124 49.663-75.349 5.703-23.167 7.6-49.963 18.788-72.866 14.528-34.624 128.586-239.679 48.26-201.713-178.563 89.067-220.108 95.983-352.254 114.619-23.567 18.967-47.817 39.571-76.214 53.843-29.69 15.365-59.669 24.647-93.662 28.607-141.515 22.79-236.009-184.214-241.312-261.406-1.354-75.318 37.954-68.017 26.047-94.353-18.498-47.127-4.818-38.139-46.065-43.319-54.754-10.552-89.964-65.995-86.626-121.004-54.098 41.898-116.022-15.979-95.796-75.135 24.7-85.142 119.952-81.437 121.236 4.787 51.047-65.564 139.476-58.177 181.631 4.25 20.574 57.447 6.2 30.543 45.521 60.274 2.308 3.731 2.006 6.648-.09 11.866-17.021 18.756 4.133 35.277 7.186 55.969-3.974 37.693-57.717 18.037-33.635 69.287 19.903-44.157 51.352-51.408 87.823-70.425 48.626-26.884 91.2-60.255 120.742-107.297 28.209-43.655 20.311-92.495 45.54-126.452-24.37-20.328-69.634-60.585-43.784-91.454 19.543-15.182 52.516-9.992 65.304 12.649 27.912-28.612 42.784-53.057 62.523-4.718 16.656 47.612-4.497 69.584.96 100.423 63.526 91.215-107.452 272.756-147.305 322.958 80.432 19.136 164.44-.319 235.593-40.326 33.346-30.273 74.765-46.664 112.987-70.927 120.998-79.046 317.932-186.542 337.01-186.341 44.668-11.137 22.794-162.087 32.017-182.14 4.575-24.197 20.059-45.617 42.318-56.75 24.207 8.584 44.31 131.477 50.937 141.531 17.965 50.533-16.486 35.711-29.648 60.912 10.532 12.71 29.242 4.312 44.533 1.201 9.399 15.817 32.732 60.752 5.055 65.053-25.684 5.271-45.48 15.905-70.167 25.702-7.654 3.673-13.033-.985-14.62 10.642-41.679 90.179-242.885 179.825-284.701 212.153 355.149-16.028 112.65 396.949.584 482.222zM249.531 546.561c25.934.786 62.842-4.116 72.991-31.498-3.836.815-5.142 2.998-7.081-5.897-28.066-70.629 56.246-33.198 27.059-92.931-20.233-40.687 16.322-33.749-2.627-52.738-10.938-7.35-29.348-9.675-31.963-25.926-3.153-20.353-8.937-39.424-27.12-53.545-3.52 4.616-3.736 11.877-6.941 19.383-19.47 49.153-51.41 106.825-107.204 106.437-11.847 11.94-8.075 37.502 11.498 40.147 10.921 2.43 14.863-6.583 27-6.064 19.077 29.185 26.105 70.437 44.389 102.632zm1017.365-255.405c21.262-8.256 41.099-21.155 64.302-28.888 7.791-3.255 19.574-1.885 24.734-11.303 3.95-5.249-5.781-38.195-14.578-32.607-15.301 6.148-42.549 8.828-46.924-14.167-8.532-21.446 15.55-23.178 26.198-36.053-12.887-52.879-24.151-105.46-43.514-156.458-65.841 56.084-3.543 164.284-61.662 228.009 22.836 6.724 49.465 23.566 51.443 51.467zm-359.92 681.033c-18.337 25.786-32.781 55.011-49.97 83.715.768 5.474 24.75 20.365 29.604 12.809 9.501-7.949 16.308-32.681 28.733-30.512 29.717 10.38 5.486 25.29 2.728 44.801 49.341 25.896 105.193 46.079 160.891 62.972 12.446-82.621-74.461-76.106-101.493-135.746-3.351-4.251-2.772-7.329-9.355-5.205-23.023 2.748-48.961-11.158-61.136-32.834zM722.411 548.815c-24.381 1.918-46.045 30.385-61.291 50.537-38.756 17.465-50.853 65.038-83.645 92.593-144.126 141.267-168.767-12.37-190.884-31.347-20.229-28.748-74.654-44.705-98.032-26.705 100.273-27.226 99.352 100.47 142.87 115.5 60.162 21.66 124.185-17.451 164.884-59.582 28.118-24.917 41.254-58.293 69.054-83.76 10.225-11.635 34.324 9.721 39.226 16.333 6.528 4.222 4.196 20.721 10.648 20.6 18.098-13.451 38.09-23.512 61.732-27.824 14.582-4.657 29.919-.712 42.144-13.416-3.642-3.463-2.116-7.886-11.759-4.699-15.637 3.853-31.394 3.044-47.421 10.358-7.361 3.415-24.764 15.736-19.767.803 22.479-23.571 104.398-13.656 94.694-28.884-3.245-2.411-6.138-6.115-11.913-4.579-9.551 5.648-19.026 4.724-31.167 5.923-51.268-3.104-60.031 33.198-70.257 13.247 42.017-35.294 107.741-11.092 94.1-31.186-39.593-17.338-81.595 3.975-115.58 25.198-29.606 1.768 16.508-29.189 22.363-39.111zM556.205 127.132c-.641-8.644 11.047-3.855 18.709-5.336 26.496 2.719 13.894-12.754 1.262-19.801-28.961-8.264-43.381 15.423-32.443 39.671 9.849 17.469 33.66 52.085 47.63 51.766 21.899-10.6 42.245.289 64.493 9.103 3.103-13.203 7.528-25.789 8.757-39.777-23.194 17.072-26.749 30.012-44.992 1.202-6.617-.868-11.997-5.368-12.212-14.265-16.179 5.275-18.511-11.434-11.337-24.399-13.62.822-26.605 4.271-39.867 1.837zm87.331-36.759c-13.073 5.118-55.76 50.932-43.602 55.985 10.365-6.863 70.364-55.719 43.602-55.985zm-28.764 68.818c15.003-.868 64.458-64.933 35.317-48.415-9.45 14.947-35.368 28.998-35.317 48.415zm49.001-32.868c-9.686 13.344-28.415 26.148-34.073 42.907.529 21.281 49.318-30.843 34.073-42.907z"/><path d="m1089.699 1151.026-.427-.023c-40.413-2.138-81.032-21.286-120.314-39.803-17.396-8.2-35.384-16.68-52.663-23.271-5.699-3.168-8.881-6.443-9.793-10.042-1.276-5.036 1.858-9.969 5.488-15.682 2.792-4.395 5.933-9.337 7.149-14.851-4.258 3.131-7.627 8.72-10.892 14.138-4.752 7.885-9.666 16.038-17.483 16.857l-.141.015-.128-.062c-2.509-1.207-6.049-2.523-10.148-4.047-12.536-4.66-29.705-11.043-31.735-20.34-.789-3.611.756-7.395 4.591-11.248a16115.637 16115.637 0 0 0 20.89-31.721c9.183-13.966 18.677-28.406 28.698-43.515 1.75-7.121 3.114-14.441 4.558-22.19 3.189-17.112 6.487-34.807 14.246-50.691 2.47-5.888 7.841-16.749 14.642-30.5 26.616-53.815 76.159-153.986 58.169-172.299-4.244-4.32-12.28-3.729-23.888 1.757-90.804 45.293-145.087 68.774-193.6 83.747-48.446 14.952-89.796 21.184-158.662 30.896-2.333 1.878-4.674 3.773-7.024 5.675-21.426 17.343-43.582 35.277-69.171 48.139-30.154 15.605-59.97 24.712-93.829 28.657a136.409 136.409 0 0 1-21.715 1.756c-33.121.001-65.438-12.36-96.338-36.904-42.288-33.59-71.42-81.382-88.413-115.561-19.873-39.972-33.438-82.565-35.403-111.16-.786-43.709 12.177-59.874 20.755-70.57 6.385-7.961 10.238-12.767 5.335-23.611-3.957-10.078-6.469-17.669-8.304-23.212q-5.507-16.636-22.601-18.241c-3.909-.367-8.774-.824-14.767-1.577-26.071-5.023-49.303-20.663-65.446-44.042-15.394-22.294-23.072-49.384-21.677-76.4-23.003 17.333-49.67 18.391-71.525 2.767-24.242-17.329-34.186-49.865-24.184-79.121 13.778-47.498 48.375-65.33 74.69-61.792 13.194 1.775 24.622 8.471 33.047 19.363 8.958 11.58 13.939 27.452 14.442 45.971 23.71-29.81 57.424-46.194 92.708-45.003 35.67 1.206 68.062 19.568 88.868 50.379l.056.111c3.1 8.654 5.386 15.334 7.222 20.702q6.67 19.493 15.196 24.259c4.563 2.551 11.459 6.406 22.934 15.082l.124.136c2.523 4.08 1.994 7.222-.052 12.316l-.094.149c-11.032 12.157-5.612 23.537.125 35.585 3.019 6.339 6.141 12.894 7.185 19.974l.009.063-.007.063c-1.728 16.386-12.865 22.192-22.691 27.315-13.031 6.794-24.305 12.674-11.445 40.723 16.365-35.542 40.458-46.982 68.316-60.21 6.233-2.959 12.678-6.02 19.279-9.462 55.678-30.783 93.987-64.823 120.55-107.12 14.23-22.022 19.194-45.144 23.994-67.503 4.616-21.499 8.977-41.815 21.287-58.6-22.78-19.033-49.035-43.898-51.193-68.019-.785-8.773 1.809-16.793 7.708-23.838l.077-.074c9.677-7.517 23.313-10.428 36.475-7.785 12.625 2.534 23.243 9.81 29.239 20.007 2.915-2.999 5.673-5.932 8.345-8.774 12.991-13.816 23.245-24.73 33.1-22.902 7.508 1.393 14.32 10.161 21.438 27.591 10.067 28.777 6.349 48.477 3.069 65.856-2.174 11.518-4.228 22.397-2.099 34.56 24.216 34.878 16.896 87.143-21.758 155.345-32.054 56.558-79.096 112.479-107.203 145.891-7.165 8.517-13.387 15.913-17.935 21.612 73.932 17.355 157.135 3.012 234.417-40.429 21.891-19.861 47.799-34.06 72.853-47.791 13.276-7.275 27.003-14.799 40.16-23.15 123.374-80.599 317.853-186.36 337.217-186.419 30.187-7.623 29.539-79.706 29.066-132.348-.216-24.008-.387-42.986 2.531-49.444 4.696-24.736 20.608-46.058 42.575-57.045l.19-.095.2.071c17.119 6.071 31.952 67.37 41.768 107.933 4.166 17.218 7.457 30.818 9.419 33.794l.054.108c11.729 32.991 1.147 38.6-11.104 45.094-6.789 3.599-13.808 7.318-18.414 15.921 8.363 9.758 21.846 6.285 34.885 2.924 3.115-.802 6.057-1.561 8.948-2.148l.348-.071.182.306c5.723 9.629 23.825 42.256 16.503 57.801-2.08 4.416-6.051 7.107-11.801 8.001-18.645 3.827-34.274 10.534-50.822 17.634-6.162 2.644-12.534 5.378-19.236 8.038-2.506 1.204-4.765 1.525-6.757 1.81-4.071.581-6.528.931-7.553 8.436l-.041.142c-30.687 66.393-146.961 132.107-223.901 175.591-26.839 15.168-48.245 27.266-59.677 35.782 96.31-4.025 155.737 23.214 176.67 80.958 26.109 72.024-15.543 171.428-42.694 224.271-37.391 72.769-92.555 145.734-134.3 177.681 19.391 30.309 43.519 44.856 64.817 57.699 31.745 19.141 56.819 34.26 44.33 92.833l-.089.417zM920.536 1045.25l-.183 1.093c-1.033 6.189-4.479 11.612-7.52 16.398-3.505 5.517-6.533 10.282-5.362 14.9.841 3.317 3.865 6.387 9.245 9.383 17.25 6.575 35.255 15.063 52.667 23.271 39.056 18.411 79.438 37.446 119.514 39.687 5.578-26.441 3.866-45.495-5.378-59.935-8.502-13.279-22.439-21.684-38.578-31.415-21.483-12.954-45.834-27.636-65.393-58.406l-.247-.388.366-.278c41.683-31.717 96.942-104.757 134.382-177.621 27.078-52.698 68.624-151.806 42.644-223.473-20.881-57.604-80.522-84.595-177.284-80.23l-1.578.071 1.25-.966c11.126-8.601 33.165-21.057 61.067-36.826 76.801-43.405 192.853-108.997 223.454-175.073 1.136-8.18 4.339-8.637 8.392-9.215 1.922-.274 4.1-.584 6.497-1.735 6.722-2.668 13.087-5.4 19.243-8.042 16.597-7.122 32.272-13.848 51.039-17.699 5.427-.844 9.145-3.347 11.074-7.443 7.038-14.942-10.428-46.671-16.276-56.559-2.756.573-5.573 1.299-8.55 2.065-13.454 3.467-27.367 7.054-36.119-3.51l-.212-.256.153-.294c4.747-9.089 12.313-13.099 18.989-16.638 12.323-6.532 22.06-11.69 10.65-43.82-2.059-3.212-5.193-16.167-9.522-34.057-9.726-40.193-24.404-100.852-40.933-107.153-21.605 10.885-37.247 31.916-41.857 56.299l-.037.116c-2.852 6.2-2.682 25.12-2.466 49.074.477 53.01 1.129 125.61-29.884 133.342l-.063.015h-.117c-19.151 0-213.37 105.705-336.678 186.259-13.189 8.373-26.931 15.903-40.22 23.187-26.171 14.343-50.891 27.89-72.704 47.692l-.091.065c-77.779 43.733-161.575 58.071-235.953 40.376l-.765-.182.489-.616c4.595-5.789 11.013-13.417 18.443-22.25 28.084-33.385 75.09-89.262 107.098-145.74 38.481-67.897 45.797-119.835 21.745-154.371l-.082-.199c-2.192-12.386-.116-23.384 2.082-35.028 3.257-17.257 6.949-36.816-3.021-65.317-6.967-17.062-13.543-25.637-20.686-26.962-9.309-1.728-19.406 9.01-32.188 22.604-2.815 2.994-5.727 6.09-8.819 9.26l-.465.477-.328-.58c-5.787-10.246-16.319-17.57-28.897-20.095-12.864-2.583-26.175.245-35.623 7.562-5.698 6.823-8.203 14.583-7.444 23.065 2.137 23.882 28.484 48.694 51.199 67.643l.363.303-.282.379c-12.396 16.684-16.766 37.041-21.393 58.594-4.819 22.448-9.803 45.66-24.129 67.831-26.652 42.44-65.077 76.589-120.92 107.463-6.629 3.457-13.083 6.521-19.324 9.484-27.937 13.265-52.064 24.722-68.285 60.709l-.447.99-.462-.983c-13.987-29.767-1.641-36.204 11.431-43.019 10.059-5.245 20.46-10.666 22.152-26.471-1.032-6.907-4.111-13.373-7.089-19.626-5.876-12.338-11.426-23.993-.023-36.621 2.12-5.305 2.155-7.962.145-11.255-11.375-8.595-18.215-12.418-22.744-14.951q-8.86-4.953-15.654-24.808c-1.832-5.353-4.109-12.01-7.196-20.629-20.626-30.512-52.71-48.693-88.038-49.887-35.414-1.199-69.198 15.466-92.75 45.717l-.874 1.122-.021-1.421c-.539-36.205-18.851-62.016-46.652-65.756-25.904-3.487-59.983 14.15-73.604 61.102-9.868 28.864-.074 60.932 23.812 78.006 21.75 15.549 48.367 14.276 71.198-3.406l.872-.675-.067 1.101c-3.494 57.569 34.379 110.492 86.221 120.482 5.945.745 10.801 1.201 14.704 1.568 17.579 1.65 17.798 1.827 23.457 18.922 1.831 5.532 4.339 13.107 8.275 23.137 5.146 11.38.92 16.649-5.476 24.625-8.488 10.584-21.315 26.579-20.537 69.902 1.955 28.446 15.481 70.896 35.299 110.757 16.947 34.087 45.996 81.748 88.139 115.223 37.389 29.698 76.853 41.452 117.294 34.941 33.756-3.933 63.463-13.007 93.512-28.558 25.5-12.816 47.612-30.715 68.997-48.025 2.387-1.932 4.764-3.856 7.133-5.763l.107-.086.136-.019c127.653-18.002 170.656-24.066 352.101-114.571 12.042-5.693 20.462-6.216 25.038-1.559 18.489 18.821-31.259 119.406-57.985 173.444-6.793 13.735-12.159 24.583-14.628 30.469-7.711 15.788-10.996 33.415-14.173 50.461-1.453 7.794-2.824 15.156-4.591 22.331l-.069.157c-10.038 15.133-19.547 29.596-28.744 43.584-6.865 10.44-13.743 20.902-20.919 31.764l-.063.078c-3.604 3.608-5.071 7.095-4.357 10.363 1.914 8.764 18.787 15.037 31.107 19.616 4.053 1.507 7.563 2.812 10.104 4.021 7.241-.849 11.784-8.386 16.592-16.364 3.574-5.93 7.27-12.062 12.205-15.14l.94-.586zm158.833 101.371-.554-.168c-65.239-19.786-117.896-40.396-160.978-63.008l-.312-.164.049-.349c.886-6.269 3.998-12.144 6.743-17.327 3.493-6.594 6.509-12.289 4.568-17.238-1.5-3.825-5.985-6.996-13.709-9.694-7.418-1.285-12.941 7.911-18.285 16.805-3.266 5.435-6.351 10.57-9.904 13.57-1.409 2.116-4.311 2.759-8.394 1.865-8.672-1.901-21.468-10.558-22.083-14.94l-.024-.175.09-.151c5.888-9.832 11.521-19.844 16.968-29.527 10.777-19.157 20.957-37.252 33.024-54.222l.457-.643.386.688c12.145 21.624 37.645 35.332 60.642 32.583 5.299-1.721 6.362.024 7.97 2.666.497.816 1.06 1.741 1.837 2.727l.063.103c10.92 24.093 31.666 37.329 51.727 50.128 29.438 18.781 57.243 36.521 49.805 85.899zm-160.752-63.896c42.843 22.452 95.173 42.936 159.934 62.603 7.043-48.303-20.396-65.806-49.438-84.334-20.17-12.869-41.025-26.174-52.075-50.503-.795-1.015-1.365-1.951-1.868-2.778-1.598-2.625-2.259-3.711-6.903-2.213a51.369 51.369 0 0 1-6.095.359c-21.483.001-43.839-13.047-55.241-32.741-11.839 16.742-21.885 34.6-32.514 53.493-5.42 9.635-11.025 19.597-16.884 29.388.839 3.701 12.797 12.079 21.276 13.937 2.566.563 5.933.76 7.38-1.493l.1-.113c3.448-2.885 6.507-7.977 9.746-13.367 5.518-9.184 11.229-18.682 19.393-17.255 8.095 2.82 12.775 6.181 14.389 10.293 2.109 5.376-1.007 11.259-4.615 18.071-2.655 5.014-5.658 10.683-6.585 16.651zM467.225 756.097c-12.414 0-24.42-2.076-35.966-6.232-15.868-5.481-26.047-26.066-36.824-47.86-19.686-39.813-41.995-84.936-105.746-67.628l-2.437.662 2-1.54c8.885-6.841 22.759-9.247 39.067-6.768 24.118 3.663 48.077 17.134 59.644 33.53 4.379 3.793 8.711 12.466 14.19 23.437 12.744 25.518 30.198 60.465 63.968 66.127 29.801 4.993 67.482-14.598 112.002-58.235 13.793-11.592 24.02-26.883 33.909-41.67 14.029-20.976 27.28-40.79 49.764-50.969 14.699-19.428 36.876-48.689 61.574-50.632l.958-.075-.489.828c-1.799 3.049-7.31 8.033-13.145 13.311-9.175 8.299-20.594 18.628-18.804 22.892.728 1.733 3.749 2.46 8.998 2.162 35.372-22.079 76.795-42.304 115.937-25.165l.132.058.081.119c1.836 2.704 2.344 4.774 1.554 6.327-1.751 3.442-9.416 3.698-21.018 4.084-20.315.677-50.968 1.696-74.421 21.182 1.628 3.074 3.238 4.74 5.047 5.232 2.949.799 6.604-1.521 11.66-4.735 10.05-6.39 25.236-16.049 52.951-14.368 2.718-.275 5.36-.438 7.915-.595 8.432-.521 15.713-.97 22.967-5.259l.126-.053c5.031-1.337 8.042 1.153 10.698 3.35.548.453 1.089.901 1.641 1.311l.124.133c.935 1.467 1.12 2.812.549 3.995-2.164 4.49-15.27 5.873-31.863 7.625-22.932 2.42-51.458 5.43-63.362 17.798-1.042 3.155-1.096 5.236-.157 6.021 2.116 1.766 9.179-2.115 14.337-4.948 1.831-1.005 3.561-1.955 4.937-2.594 10.223-4.666 20.437-6.062 30.314-7.413 5.65-.772 11.492-1.571 17.197-2.977 7.048-2.332 8.464-.718 10.183 2.109.549.902 1.116 1.834 2.04 2.713l.364.347-.349.362c-8.216 8.538-17.606 9.645-27.547 10.816-4.877.575-9.921 1.169-14.804 2.729-21.65 3.953-41.775 13.025-61.586 27.749l-.129.096-.16.003c-3.754.068-4.801-4.618-5.909-9.581-.96-4.302-2.049-9.178-5.02-11.1l-.13-.122c-4.179-5.636-19.56-19.077-30.394-19.526-3.347-.14-6.052.947-8.055 3.226-13.66 12.517-23.922 27.145-33.847 41.292-10.279 14.651-20.908 29.802-35.251 42.513-22.772 23.575-49.516 42.691-75.277 53.798-18.72 8.071-36.825 12.112-54.142 12.113zM314.679 629.602c17.003 0 31.576 5.501 44.135 16.582 16.206 14.298 26.998 36.122 36.519 55.377 10.683 21.605 20.774 42.012 36.26 47.36 73.611 26.505 144.415-38.809 164.361-59.457 14.284-12.66 24.878-27.761 35.124-42.365 9.956-14.19 20.25-28.864 33.952-41.416 2.174-2.479 5.144-3.683 8.81-3.526 11.65.483 27.091 14.508 31.103 19.858 3.255 2.172 4.382 7.217 5.376 11.671 1.042 4.666 1.944 8.707 4.759 8.797 19.894-14.759 40.113-23.858 61.807-27.815 4.913-1.573 10.005-2.173 14.929-2.754 9.619-1.133 18.712-2.206 26.602-10.167-.815-.863-1.36-1.758-1.848-2.559-1.421-2.337-2.358-3.881-9.052-1.669-5.794 1.429-11.663 2.232-17.338 3.008-9.806 1.341-19.946 2.728-30.032 7.331-1.342.623-3.057 1.564-4.873 2.562-6.009 3.301-12.822 7.043-15.459 4.839-1.33-1.111-1.368-3.47-.116-7.211l.112-.187c12.112-12.7 40.915-15.74 64.058-18.183 15.639-1.651 29.145-3.076 31.067-7.064.407-.844.262-1.809-.444-2.948a41.88 41.88 0 0 1-1.606-1.287c-2.58-2.133-5.247-4.337-9.738-3.171-7.441 4.379-14.817 4.834-23.354 5.36-2.546.158-5.179.32-7.958.594-27.467-1.657-42.491 7.895-52.433 14.215-5.272 3.352-9.08 5.775-12.459 4.856-2.168-.589-4.029-2.526-5.858-6.094l-.182-.354.305-.256c23.756-19.955 54.798-20.989 75.339-21.673 10.435-.348 18.677-.623 20.16-3.538.6-1.179.139-2.878-1.409-5.193-38.717-16.864-79.847 3.281-114.982 25.223l-.108.067-.127.007c-5.87.35-9.177-.554-10.106-2.766-2.064-4.917 8.672-14.628 19.055-24.021 5.248-4.747 10.231-9.254 12.39-12.228-23.882 2.64-45.514 31.231-59.897 50.242l-.077.102-.116.053c-22.294 10.046-35.49 29.777-49.461 50.666-9.929 14.845-20.195 30.196-34.068 41.854-44.734 43.849-82.709 63.528-112.84 58.481-34.272-5.746-51.857-40.957-64.698-66.667-5.232-10.477-9.751-19.525-13.994-23.166l-.083-.092c-11.407-16.21-35.122-29.539-59.012-33.167-14.692-2.232-27.344-.458-36.027 4.987 8.322-2.065 16.16-3.103 23.536-3.103zm-60.424-82.47c-1.718 0-3.305-.028-4.739-.071l-.281-.009-.139-.244c-8.611-15.162-14.792-32.496-20.769-49.258-6.921-19.411-13.461-37.751-23.463-53.132-5.512-.174-9.281 1.665-12.92 3.445-4.127 2.02-8.027 3.928-13.911 2.617-8.167-1.102-14.453-6.385-17.205-14.488-3.178-9.355-.983-20.005 5.46-26.5l.148-.149h.21c43.439.283 78.331-34.41 106.735-106.12 1.345-3.15 2.145-6.197 2.918-9.145 1.072-4.084 1.998-7.612 4.091-10.357l.306-.401.398.31c18.945 14.713 24.32 34.583 27.308 53.864 1.827 11.349 11.592 15.77 21.035 20.046 3.888 1.76 7.56 3.423 10.713 5.542 8.843 8.848 5.958 12.529 2.304 17.19-4.462 5.693-10.572 13.49.492 35.74 14.337 29.343 1.556 35.673-11.975 42.375-14.448 7.156-29.388 14.557-15.067 50.594.845 3.847 1.593 5.752 2.447 6.255.539.317 1.219.136 2.376-.21.497-.149 1.06-.319 1.689-.453l.889-.188-.316.852c-10.383 28.015-48.478 31.896-68.736 31.896zm-4.428-1.063c18.1.517 60.376-1.509 71.882-30.29-.243.068-.475.138-.693.204-1.195.359-2.227.67-3.171.115-1.16-.683-1.971-2.597-2.893-6.826-14.637-36.816 1.415-44.767 15.577-51.781 13.64-6.756 25.42-12.591 11.521-41.038-11.344-22.812-5.008-30.896-.382-36.799 3.608-4.604 5.992-7.646-2.15-15.805-3.009-2.011-6.645-3.657-10.493-5.399-9.684-4.385-19.698-8.918-21.61-20.8-2.935-18.941-8.186-38.445-26.527-52.913-1.768 2.535-2.63 5.821-3.621 9.596-.783 2.982-1.592 6.066-2.96 9.271-28.525 72.013-63.715 106.923-107.455 106.743-5.974 6.153-8.064 16.531-5.077 25.324 2.626 7.73 8.616 12.77 16.434 13.826 5.581 1.241 9.33-.592 13.296-2.532 3.808-1.863 7.739-3.789 13.658-3.536l.256.011.141.215c10.147 15.524 16.735 34 23.709 53.56 5.931 16.632 12.061 33.827 20.558 48.855zm1016.618-254.202-.048-.676c-1.92-27.092-27.647-44.121-51.085-51.022l-.767-.226.539-.591c28.026-30.73 27.918-72.359 27.813-112.618-.11-42.463-.225-86.372 33.894-115.434l.54-.46.252.663c16.379 43.142 27.185 88.321 37.634 132.013 1.951 8.157 3.905 16.327 5.897 24.503l.06.244-.159.193c-3.546 4.287-8.511 7.327-13.313 10.268-9.865 6.042-18.385 11.26-12.807 25.281 1.322 6.903 4.755 11.874 10.228 14.867 10.506 5.745 25.984 3.063 36.045-.979 1.43-.919 3.862-1.388 6.85 1.847 6.27 6.788 11.632 27.117 8.314 31.525-3.637 6.648-10.416 8.018-16.973 9.343-2.882.583-5.604 1.133-7.969 2.121-13.02 4.341-25.056 10.345-36.695 16.15-9.393 4.685-18.265 9.11-27.618 12.742zm-50.089-52.431c23.356 7.081 48.681 24.091 50.986 51.008 9.08-3.569 17.745-7.891 26.906-12.46 11.671-5.821 23.738-11.84 36.791-16.191 2.421-1.013 5.19-1.573 8.121-2.165 6.332-1.28 12.88-2.603 16.333-8.904 2.853-3.799-1.851-23.419-8.211-30.305-2.022-2.189-3.928-2.742-5.66-1.64-10.347 4.166-26.165 6.881-36.98.971-5.747-3.143-9.349-8.346-10.703-15.466-5.862-14.712 3.417-20.396 13.24-26.412 4.659-2.853 9.474-5.802 12.903-9.861-1.972-8.096-3.906-16.185-5.838-24.262-10.389-43.438-21.129-88.343-37.345-131.225-33.224 28.746-33.117 70.265-33.003 114.208.105 40.193.211 81.749-27.541 112.705zM656.21 203.214l-.539-.213a633.722 633.722 0 0 1-7.567-3.072c-19.197-7.887-37.33-15.336-56.524-6.045l-.207.05-.201.002c-15.132.002-40.24-38.478-47.876-52.023-5.707-12.647-4.789-25.631 2.377-33.925 6.701-7.757 17.87-10.116 30.639-6.473l.106.044c8.263 4.609 15.909 12.233 14.401 17.014-1.083 3.436-6.429 4.691-15.885 3.729-2.512.471-5.383.299-8.16.133-3.861-.232-7.512-.451-9.138 1.198-.683.692-.997 1.702-.955 3.078 8.889 1.556 17.527.496 26.666-.625 4.131-.506 8.404-1.03 12.693-1.289l.908-.055-.44.796c-4.499 8.13-5.071 17.293-1.36 21.787 2.485 3.011 6.671 3.666 12.104 1.894l.638-.208.017.671c.188 7.801 4.481 12.825 11.777 13.782l.232.03.125.198c6.948 10.973 11.85 15.958 16.389 16.671 4.86.762 9.611-3.195 16.798-9.186 3.182-2.652 6.789-5.659 11.087-8.822l.891-.656-.097 1.102c-.871 9.92-3.38 19.279-5.808 28.329-1.008 3.759-2.05 7.646-2.96 11.52l-.132.564zm-45.848-14.658c12.692 0 25.167 5.125 38.122 10.448 2.321.954 4.659 1.914 7.018 2.854.882-3.701 1.874-7.402 2.835-10.986 2.324-8.668 4.725-17.62 5.672-27.043-3.882 2.902-7.194 5.662-10.14 8.118-7.397 6.166-12.284 10.243-17.594 9.406-4.889-.768-9.808-5.675-16.954-16.928-7.376-1.063-11.962-6.282-12.388-14.058-6.989 2.085-10.68-.133-12.557-2.405-3.838-4.647-3.462-13.833.828-22.108-3.959.272-7.908.756-11.736 1.226-9.35 1.146-18.182 2.23-27.356.546l-.38-.07-.028-.385c-.14-1.88.259-3.267 1.219-4.24 1.946-1.972 5.817-1.739 9.911-1.495 2.743.165 5.579.334 7.983-.13l.072-.014.074.008c11.164 1.146 14.266-1.014 14.901-3.028 1.292-4.094-6.128-11.471-13.884-15.812-12.356-3.508-23.126-1.258-29.553 6.18-6.908 7.997-7.767 20.572-2.242 32.821 11.245 19.939 33.903 51.475 46.98 51.475h.076c6.481-3.119 12.828-4.379 19.118-4.379zm23.114-13.776c-.348 0-.68-.032-.996-.098-1.442-.302-3.183-1.491-3.281-5.44l-.002-.089.028-.083c3.654-10.822 12.581-19.888 21.215-28.655 4.862-4.938 9.455-9.602 12.927-14.385l.306-.422.409.323c4.119 3.259 4.202 9.452.241 17.91-6.336 13.529-22.761 30.94-30.848 30.94zm-3.274-5.475c.082 2.59.917 4.07 2.483 4.398 6.622 1.389 23.853-15.596 30.732-30.287 2.532-5.407 4.609-12.556.44-16.365-3.474 4.691-7.962 9.248-12.705 14.065-8.531 8.664-17.353 17.622-20.951 28.189zm-15.928-9.584v-.528c-.034-12.733 10.691-22.988 21.064-32.905 5.659-5.41 11.004-10.52 14.329-15.779l.067-.106.109-.062c4.675-2.649 7.611-3.395 8.98-2.279.93.758 1.036 2.27.316 4.493-3.964 12.24-33.076 46.484-44.338 47.136l-.527.031zm36.171-48.571c-3.394 5.324-8.749 10.443-14.415 15.861-10.067 9.624-20.471 19.571-20.751 31.625 11.073-1.662 39.167-34.832 42.91-46.389.563-1.741.564-2.952.002-3.41-.558-.455-2.305-.754-7.746 2.313zm-50.457 35.772-.246-.102c-1.631-.678-2.482-2.086-2.462-4.072.129-12.483 34.396-48.269 46.073-52.841l.09-.035h.097c4.06.041 6.457 1.204 7.123 3.457 3.432 11.608-43.768 49.019-50.453 53.446zm43.64-56.048c-11.039 4.44-45.224 39.901-45.348 51.884-.016 1.485.511 2.479 1.608 3.029 9.419-6.347 52.884-41.797 49.816-52.175-.522-1.766-2.566-2.687-6.076-2.738z"/></svg></g><g transform="translate(1387.5 112.5) rotate(0.0 75.75 187.5) scale(1.4829969263298028 1.49207410236822)"><svg width="102.158" height="251.328" viewBox="0 0 102.158 251.328"><g><path d="M42.3 164.217v9.495c0 1.05.308 2.076.887 2.952l6.617 10.015c1.873 2.835.666 6.674-2.491 7.928l-4.814 1.912a5.355 5.355 0 0 0-3.337 5.639l2.586 20.73a5.354 5.354 0 0 1-3.699 5.768l-26.926 8.516c-3.439 1.087-4.841 5.194-2.785 8.158a5.356 5.356 0 0 0 4.4 2.303h62.36c4.27 0 6.822-4.753 4.464-8.313l-1.861-2.809c-.138-.209-2.201 2.21-4.254.042l-9.469-6.959c-.432-.487 1.758-6.48 1.182-6.782l-10.73-2.968c-2.373-1.242-5.005-5.871-4.095-8.39l6.7-12.485c.22-.609.549-1.174.971-1.666l4.94-5.762a5.351 5.351 0 0 0 1.289-3.407l.349-23.841a5.354 5.354 0 0 0-5.354-5.433H47.658a5.355 5.355 0 0 0-5.355 5.355Z" fill="#fff"/><path d="M11.146 60.844c26.454 1.313 52.21.069 78.375-2.955-.531 132.695-74.163 127.349-78.375 2.955Z" fill="#fff"/><path d="M90.03 11.344c3.22 12.977-.072 25.918.909 39.246C10.02 51.966 6.162 72.581 11.118 25.041 31.31 12.689 64.68 18.623 90.03 11.344Z" fill="#fff"/><g><path d="M9.935 247.634c25.365 2.539 55.197-7.915 80.018 1.604-29.95 3.102-144.27 4.344-54.289-22.636 6.473-4.781 1.556-20.66 6.835-30.083 2.913 9.758 2.148 21.417 3.009 33.003-9.707 1.747-34.871 4.676-35.573 18.112Z"/><path d="M50.492 251.321c-23.482 0-47.934-1.719-49.166-7.884-.895-4.477 10.261-10.132 34.108-17.287 3.179-2.424 3.402-8.02 3.638-13.94.224-5.609.455-11.409 2.989-15.934l.577-1.031.338 1.132c2.048 6.859 2.29 14.513 2.547 22.617.109 3.435.221 6.986.482 10.491l.034.449-.444.08c-.853.153-1.826.316-2.89.494-10.912 1.826-31.096 5.203-32.236 16.675 9.749.913 19.947-.049 30.734-1.065 16.582-1.562 33.727-3.177 48.929 2.653l1.952.749-2.08.216c-7.218.748-23.13 1.584-39.512 1.584Zm-34.515-2.816c19.118 2.733 53.491 2.108 71.71.451-14.465-4.849-30.681-3.321-46.39-1.842-8.426.793-17.082 1.61-25.321 1.391Zm26.388-50.613c-1.886 4.15-2.092 9.332-2.292 14.357-.248 6.209-.481 12.075-4.111 14.756l-.153.077c-30.151 9.041-33.931 14.004-33.5 16.159.336 1.681 2.96 3.012 7.149 4.046.998-12.397 21.842-15.884 33.084-17.765.88-.147 1.697-.284 2.436-.414-.239-3.379-.347-6.785-.452-10.083-.239-7.551-.466-14.709-2.16-21.133Z"/></g><g><path d="M62.607 192.746c-1.223-12.493-1.179-28.332-17.552-31.303-1.778 15.46-5.247 17.574-6.935-.318-6.753-8.188-18.499-13.964-22.004-26.184C1.179 100.803-1.822 60.189 2.02 21.625c6.964-8.878 21.947-10.044 33.644-13.7C99.718-.121 102.56-15.008 101.51 49.456c-2.223 144.453-34.66 84.115-30.242 129.63-.62 4.32-2.076 13.566-8.661 13.66ZM11.146 60.844c7.076 136.912 79.816 117.447 78.375-2.955-26.165 3.024-51.921 4.268-78.375 2.955Zm78.884-49.5C64.162 21.005 1.442 7.33 10.183 40.569c1.618 5.073-3.703 15.76 4.829 15.476 24.685-1.338 49.971-4.881 75.927-5.454-.981-13.329 2.311-26.27-.909-39.246Z"/><path d="m62.154 193.252-.045-.458c-.1-1.021-.191-2.065-.284-3.123-1.018-11.613-2.17-24.756-16.336-27.637-.973 8.14-2.332 12.265-4.041 12.265h-.011c-.636-.006-2.564-.025-3.802-12.974-2.198-2.639-4.89-5.003-7.737-7.504-5.842-5.131-11.882-10.437-14.264-18.743C-1.476 95.983-1.486 51.77 1.522 21.576l.015-.145.089-.114C6.93 14.556 16.72 12.194 26.188 9.909c3.133-.756 6.373-1.538 9.327-2.461C47.304 5.959 57.077 4.24 64.93 2.859c16.733-2.943 25.952-4.565 31.201-.085 5.957 5.083 6.355 17.484 5.879 46.691-1.408 91.474-14.81 100.992-23.679 107.29-4.917 3.492-8.166 5.799-6.566 22.283l.006.06-.008.06c-.549 3.825-2.008 13.987-9.148 14.089l-.46.006ZM44.62 160.855l.525.095c15.412 2.797 16.615 16.524 17.677 28.634.078.891.155 1.772.238 2.638 5.191-.449 6.849-7.216 7.705-13.149-1.642-17.007 1.979-19.578 6.988-23.135 8.704-6.181 21.858-15.522 23.258-106.491.47-28.873.102-41.109-5.528-45.915-4.891-4.174-13.944-2.581-30.378.31-7.864 1.383-17.65 3.104-29.376 4.578-2.899.914-6.155 1.7-9.304 2.46-9.247 2.231-18.808 4.539-23.92 10.939-2.984 30.073-2.95 74.023 14.069 112.922 2.324 8.086 8.252 13.293 13.986 18.33 2.92 2.565 5.679 4.988 7.946 7.736l.098.119.014.153c1.139 12.065 2.814 12.222 2.831 12.222h.001c.485 0 1.984-2.137 3.109-11.915l.061-.53Zm6.47-4.313c-16.498 0-36.789-24.959-40.444-95.672l-.028-.553.553.027c24.831 1.231 50.442.267 78.292-2.952l.551-.064.007.555c.349 29.119-3.586 54.149-11.379 72.385-6.995 16.368-16.848 25.94-27.032 26.265a17.91 17.91 0 0 1-.519.008ZM11.674 61.37c1.612 30.316 6.646 55.16 14.567 71.869 6.957 14.676 15.941 22.585 25.336 22.295 18.656-.594 38.079-34.812 37.45-97.084-27.488 3.151-52.802 4.106-77.353 2.921Zm3.012-4.82c-1.736 0-2.999-.451-3.862-1.373-1.714-1.832-1.383-5.135-1.063-8.329.223-2.23.454-4.536-.054-6.128-1.561-5.933-.999-10.604 1.71-14.304 6.746-9.213 25.946-10.168 44.515-11.091 12.482-.621 25.389-1.262 33.924-4.45l.525-.196.135.544c1.959 7.894 1.522 15.912 1.101 23.665-.278 5.114-.566 10.402-.179 15.666l.039.525-.526.012c-15.164.335-30.248 1.698-44.836 3.016-10.235.925-20.819 1.881-31.075 2.438-.12.004-.238.006-.354.006Zm74.989-44.545c-8.673 3.075-21.389 3.707-33.694 4.319-18.334.912-37.293 1.854-43.758 10.683-2.52 3.441-3.029 7.836-1.557 13.435.563 1.765.322 4.175.089 6.506-.297 2.972-.604 6.045.799 7.546.712.761 1.83 1.101 3.442 1.051 10.228-.555 20.802-1.51 31.029-2.435 14.437-1.304 29.358-2.653 44.379-3.008-.336-5.152-.057-10.292.214-15.269.427-7.847.831-15.268-.943-22.829Z"/></g></g></svg></g><g transform="translate(1548.0 675.0) rotate(0.0 330.0 298.5) scale(1.5001568345781604 1.500848469612218)"><svg width="439.954" height="397.775" viewBox="0 0 439.954 397.775"><g><path fill="#fff" d="m101.08 238.174 58.942 14.465 9.966 2.876 29.667 25.313-19.171 17.516-57.043 25.916-48.829 13.802 148.221 53.443 28.384-2.281 140.097-83.109 16.885-64.29 22.817-190.751-28.846-13.57-118.553-14.723-72.39-10.44-68.163-8.27-41.984 234.103z"/><g><path d="M.66 313.598c3.616-10.077 20.174 4.206 32.332 7.049 267.667 98.442 158.903 80.649 354.117-18.029-466.346-93.408-123.077-34.102 3.345-10.298 8.738-78.82 33.563-169.833 32.993-244.786-81.033-24.282-161.309-19.782-243.159-35.547-12.121-.646-28.102-12.244-35.029-.542-4.005 35.452-13.569 69.572-18.952 107.453-19.008 142.363-37.607 117.927 5.111 127.449-17.981 7.908-42.545-5.637-64.991 4.666 4.607-12.752 18.662-9.159 29.217-17.045 10.037-38.542 13.287-77.236 19.354-118.512 11.385-50.268 9.397-122.657 29.724-114.291 59.036 12.642 113.794 16.353 173.572 21.407C495.813 54.48 428.299 26.82 420.027 195.231c-26.351 163.259 3.434 83.135-160.157 194.15C240.033 427.146 16.8 317.356.66 313.598Z"/><path d="M239.351 397.72c-45.628 0-149.675-45.413-205.083-69.598-17.633-7.697-30.374-13.257-33.721-14.037L0 313.958l.189-.529c.619-1.724 1.648-2.887 3.061-3.458 3.876-1.565 10.11 1.508 16.709 4.763 4.457 2.198 9.066 4.472 13.146 5.426 32.113 11.806 59.327 22.14 81.194 30.443q118.666 45.06 173.698 9.097c21.316-13.93 50.436-32.959 97.597-56.875-82.569-16.542-144.408-29.232-183.814-37.722-52.759-11.367-52.566-12.361-52.395-13.239.172-.892.469-2.385 91.681 13.205 47.506 8.12 107.271 18.818 148.95 26.661 3.347-29.955 9.106-62.266 14.678-93.521 9.122-51.176 18.554-104.094 18.255-150.301-47.481-14.178-95.619-18.575-142.172-22.826-32.858-3-66.835-6.103-100.584-12.603-3.904-.204-8.301-1.579-12.553-2.908-8.942-2.795-17.391-5.437-21.896 2.038-2.172 19.17-5.896 37.613-9.839 57.135-3.262 16.155-6.636 32.86-9.104 50.225-6.643 49.749-13.24 79.157-17.181 96.728-3.275 14.6-4.77 21.263-2.747 24.206 1.461 2.125 5.023 2.649 10.926 3.517 3.632.534 8.153 1.198 13.727 2.44l1.488.332-1.396.614c-8.534 3.754-18.439 2.752-28.927 1.69-11.916-1.207-24.238-2.453-36.057 2.973l-1.084.498.405-1.122c2.869-7.942 9.327-9.748 16.165-11.659 4.431-1.239 9.011-2.519 13.083-5.512 7.32-28.166 10.982-56.13 14.858-85.732 1.387-10.587 2.82-21.535 4.44-32.557 3.8-16.785 6.064-35.638 8.254-53.87 3.571-29.734 6.655-55.414 15.43-60.56 2.008-1.177 4.271-1.26 6.726-.25 53.161 11.376 103.146 15.527 156.065 19.921 5.744.477 11.527.957 17.357 1.45 15.421 2.77 28.934 5.082 40.856 7.122 49.887 8.538 70.536 12.072 77.732 22.806 5.457 8.14 2.833 19.862-1.93 41.144-4.822 21.547-12.11 54.11-14.467 102.11-2.867 17.778-5.021 32.333-6.922 45.176q-10.108 68.283-51.208 89.083c-21 10.627-52.724 26.682-102.143 60.211-3.02 5.599-10.422 7.994-20.9 7.994ZM1.334 313.259c4.065 1.171 15.882 6.329 33.333 13.947 34.248 14.949 86.004 37.539 131.978 53.025 54.953 18.509 86.167 21.509 92.779 8.918l.059-.111.104-.07c49.529-33.611 81.319-49.7 102.356-60.346q40.637-20.565 50.669-88.336c1.902-12.845 4.057-27.404 6.918-45.133 2.356-48.031 9.655-80.644 14.484-102.225 4.702-21.011 7.292-32.585 2.075-40.368-6.957-10.378-27.482-13.891-77.07-22.377-11.924-2.041-25.438-4.354-40.817-7.118-5.784-.487-11.566-.967-17.31-1.444-52.953-4.397-102.969-8.55-156.278-19.967-2.268-.924-4.178-.863-5.924.162-8.347 4.896-11.404 30.347-14.943 59.816-2.192 18.258-4.46 37.137-8.264 53.934-1.612 10.977-3.045 21.92-4.431 32.503-3.889 29.693-7.562 57.74-14.927 86.024l-.044.17-.14.104c-4.256 3.18-8.982 4.501-13.552 5.778-6.51 1.82-12.178 3.404-15.045 9.914 11.713-4.963 23.773-3.743 35.448-2.562 9.738.985 18.967 1.918 26.931-1.009-4.819-1.018-8.804-1.604-12.069-2.083-6.382-.938-9.897-1.455-11.604-3.939-2.27-3.303-.846-9.652 2.595-24.991 3.938-17.555 10.529-46.936 17.166-96.646 2.472-17.397 5.849-34.117 9.114-50.286 3.945-19.537 7.672-37.991 9.837-57.157l.066-.199c4.895-8.268 14.155-5.373 23.109-2.574 4.193 1.311 8.53 2.667 12.376 2.872 33.768 6.5 67.719 9.6 100.553 12.598 46.719 4.266 95.029 8.678 142.723 22.969l.354.106.003.369c.353 46.387-9.113 99.494-18.268 150.854-5.602 31.425-11.394 63.919-14.728 93.992l-.06.536-.53-.1c-74.36-14.001-223.359-40.163-238.964-40.564 7.813 2.837 57.488 14.163 235.811 49.881l1.418.284-1.291.652c-47.869 24.197-77.3 43.43-98.79 57.473q-55.459 36.242-174.6-8.999c-21.865-8.303-49.076-18.635-81.125-30.422-4.134-.962-8.795-3.262-13.303-5.485-6.393-3.152-12.428-6.13-15.892-4.732-1.014.41-1.767 1.184-2.291 2.36Z"/></g><g><path d="M132.158 225.211c9.97-64.546 25.534-128.015 33.274-194.803 299.006 47.103 229.262-8.159 215.723 152.225-8.784 26.813-3.359 92.677-24.06 81.553-76.939-13.046-147.95-24.578-224.936-38.975ZM366.206 76.27c16.841 4.692-5.964 42.588-7.884 53.707-14.899-1.461-1.858-14.081-1.345-26.587-23.71 15.505-92.564 122.956-89.587 51.32-57.824 40.981-68.582 77.916-80.986 24.817-2.756 4.28-56.6 46.158-33.444 46.222 70.552 12.057 139.218 23.79 209.657 35.826C386.02 13.066 419.426 78.018 292.582 52.902c-34.561-.331-118.54-25.614-120.891-11.264-7.488 56.043-16.26 107.193-21.844 164.834 19.972-17.136 35.253-56.218 50.215-12.966 57.452-36.968 78.399-90.982 78.05-30.163 26.563-17.867 49.039-46.559 71.601-72.083-6.096 1.627-9.253 2.889-18.059 5.769-13.76-2.887 27.589-15.841 34.552-20.759Z"/><path d="M361.419 265.936c-1.392 0-2.892-.423-4.488-1.27-16.712-2.834-33.145-5.596-49.419-8.332-59.245-9.959-115.205-19.366-175.445-30.631l-.476-.089.074-.479c4.057-26.266 9.134-52.845 14.044-78.549 7.197-37.675 14.638-76.634 19.228-116.234l.06-.518.514.082c67.854 10.689 116.23 16.052 151.553 19.968 50.182 5.563 70.953 7.866 78.182 17.946 5.429 7.57 2.929 18.959-1.611 39.636-3.861 17.589-9.15 41.679-11.981 75.211l-.023.114c-3.047 9.302-4.394 23.53-5.695 37.29-1.997 21.097-3.882 41.024-11.503 45.105a6.292 6.292 0 0 1-3.012.751Zm-228.693-41.127c60.051 11.225 115.866 20.607 174.951 30.539 16.302 2.74 32.761 5.507 49.501 8.345l.153.053c2.575 1.384 4.743 1.566 6.628.557 7.148-3.828 9.096-24.412 10.979-44.318 1.305-13.787 2.653-28.042 5.723-37.451 2.837-33.569 8.13-57.676 11.996-75.283 4.478-20.396 6.944-31.63 1.775-38.838-6.969-9.718-27.611-12.006-77.48-17.535-35.244-3.907-83.475-9.253-151.083-19.893-4.598 39.459-12.01 78.26-19.178 115.79-4.878 25.539-9.922 51.943-13.964 78.035Zm230.339 37.351-210.189-35.917c-3.26-.002-5.291-.89-5.952-2.633-2.388-6.29 13.892-21.514 30.771-36.567 4.3-3.834 7.696-6.863 8.289-7.785l.639-.992.269 1.149c3.855 16.503 7.553 24.186 12.365 25.686 6.014 1.875 14.55-5.862 27.466-17.578 10.33-9.371 23.187-21.035 40.379-33.219l.831-.589-.042 1.018c-.569 13.697 1.496 21.579 6.137 23.426 10.585 4.206 33.125-21.703 53.014-44.565 11.648-13.389 22.651-26.035 29.663-30.621l.813-.532-.04.971c-.181 4.405-1.883 8.814-3.384 12.704-1.746 4.521-3.253 8.425-1.808 10.77.84 1.363 2.685 2.198 5.632 2.547.651-3.135 2.67-8.008 4.991-13.608 5.138-12.402 11.533-27.837 7.917-35.263-.911-1.87-2.394-3.096-4.531-3.743-2.445 1.637-8.113 3.985-14.646 6.692-9.498 3.936-22.506 9.325-22.275 11.795.043.462.863.9 2.255 1.208 2.708-.886 4.878-1.619 6.766-2.255 4.214-1.421 6.998-2.361 11.192-3.48l1.601-.427-1.098 1.241c-3.916 4.43-7.906 9.044-11.764 13.506-18.646 21.563-37.927 43.859-59.933 58.661l-.784.527.005-.945c.097-16.905-1.462-25.127-5.055-26.66-4.368-1.858-12.517 6.05-23.804 17-11.742 11.392-27.824 26.993-48.42 40.246l-.535.344-.208-.601c-4.166-12.043-8.574-18.331-13.476-19.22-6.62-1.204-13.9 7.579-21.608 16.877-4.556 5.497-9.268 11.18-14.333 15.525l-.943.809.12-1.237c3.768-38.887 8.874-74.054 14.279-111.285 2.521-17.367 5.129-35.325 7.566-53.567.184-1.125.801-2.056 1.836-2.781 7.203-5.051 34.842.131 64.107 5.618 20.621 3.866 41.943 7.864 55.448 7.994 25.39 5.019 44.355 6.445 58.203 7.486 16.97 1.276 26.317 1.979 30.99 7.846 6.055 7.603 3.707 23.069-1.967 60.435-4.332 28.53-10.877 71.645-16.698 133.453l-.05.537Zm-176.918-81.545c-1.313 1.401-4.143 3.925-7.787 7.174-11.479 10.237-32.845 29.292-30.501 35.466.5 1.316 2.216 1.987 5.103 1.995l209.208 35.743c5.811-61.552 12.333-104.513 16.655-132.973 5.462-35.979 7.956-52.4 2.172-59.662-4.4-5.526-13.594-6.217-30.283-7.472-13.873-1.043-32.873-2.472-58.23-7.493-13.5-.12-34.867-4.126-55.53-8.001-27.772-5.208-56.491-10.593-63.349-5.782-.818.573-1.283 1.263-1.421 2.11-2.437 18.233-5.044 36.194-7.566 53.563-5.346 36.817-10.398 71.614-14.151 109.979 4.647-4.174 9.025-9.456 13.269-14.574 7.899-9.529 15.36-18.528 22.556-17.223 5.203.944 9.796 7.252 14.033 19.276 20.258-13.125 36.122-28.515 47.732-39.779 11.995-11.636 19.915-19.325 24.893-17.203 3.997 1.705 5.702 9.689 5.667 26.638 21.57-14.728 40.571-36.7 58.951-57.955 3.498-4.044 7.103-8.214 10.665-12.26-3.324.931-5.889 1.796-9.52 3.021a722.1 722.1 0 0 1-6.903 2.3l-.127.042-.131-.027c-2.043-.429-3.082-1.123-3.175-2.122-.278-2.981 8.882-7.008 22.888-12.812 6.387-2.646 12.419-5.146 14.653-6.723l.194-.137.229.064c2.513.7 4.324 2.158 5.384 4.333 3.813 7.83-2.677 23.496-7.892 36.083-2.415 5.828-4.5 10.861-5.017 13.857l-.079.458-.462-.045c-3.545-.348-5.782-1.351-6.84-3.066-1.705-2.767-.115-6.886 1.726-11.655 1.356-3.513 2.879-7.458 3.249-11.369-6.926 4.937-17.473 17.059-28.613 29.864-20.108 23.113-42.899 49.31-54.138 44.837-5.027-2.001-7.256-9.654-6.805-23.38-16.731 11.938-29.315 23.354-39.459 32.557-13.638 12.372-21.874 19.833-28.436 17.792-5.163-1.61-8.897-9.004-12.812-25.44Z"/></g><g><path d="M89.804 328.626c21.996-9.274 23.788 15.581 55.488-11.679l-10.579-3.971c13.383-1.934 27.905-1.892 42.384-16.034 2.882-2.53-12.466-6.291-2.798-8.307 10.408 4.884 15.616 1.122 25.355-7.806L184.25 274.5c177.323 35.795 199.143 17.256 98.447 70.542-25.528 10.538-44.146 37.221-74.557 26.48-44.426-15.135-77.518-27.607-118.336-42.894Zm197.97-5.18c-8.257 5.706-27.87-12.183-40.428-2.79-34.562 19.758-12.221 18.984 10.632 28.499 24.675-13.34 49.621-24.023 75.334-40.908-46.617-3.705-47.932-23.557-77.144 6.261l31.605 8.939Zm-41.384-8.419c-29.296-9.281-60.756-29.008-86.369 1.386 28.88 7.54 59.902 28.483 86.369-1.386Zm-115.747 19.669c42.678 22.044 52.574 27.122 82.14 1.939-25.797-6.684-57.207-26.7-82.14-1.939Zm140.549-36.548c-20.551-3.994-61.796-26.611-79.542-4.279 25.331 4.111 55.39 30.302 79.542 4.279Zm-79.466 61.063c26.445 10.407 36.731 10.294 62.215-7.828-31.459-18.031-40.045-7.398-62.215 7.828Z"/><path d="M222.182 374.547c-4.462 0-9.167-.774-14.208-2.555-42.311-14.415-74.865-26.61-112.56-40.731l-6.962-2.608 1.158-.488c8.896-3.75 14.599-2.008 20.114-.324 8.305 2.537 16.152 4.933 34.6-10.724l-11.608-4.358 1.927-.279c1.741-.251 3.501-.47 5.278-.69 11.971-1.484 24.35-3.019 36.828-15.207.228-.201.218-.317.215-.361-.05-.645-1.744-1.717-2.981-2.5-1.947-1.232-3.628-2.296-3.4-3.554.165-.913 1.28-1.536 3.616-2.023l.164-.034.151.071c9.71 4.557 14.479 1.689 24.223-7.19l-14.675-6.03.289-.953c42.683 8.616 76.665 14.134 101.478 18.163 38.647 6.275 56.286 9.139 57.28 15.245.965 5.927-13.583 13.569-45.46 30.314-4.57 2.401-9.478 4.979-14.716 7.751-8.02 3.313-15.41 8.253-22.557 13.03-12.252 8.189-23.989 16.034-38.191 16.034ZM91.189 328.611l4.575 1.714c37.688 14.118 70.236 26.311 112.537 40.723 20.621 7.282 35.628-2.747 51.517-13.366 7.188-4.804 14.62-9.772 22.688-13.103 5.196-2.752 10.104-5.33 14.676-7.732 29.524-15.509 45.787-24.053 44.938-29.269-.878-5.395-20.618-8.6-56.453-14.419-23.825-3.869-56.102-9.109-96.42-17.147l11.326 4.653-.58.532c-9.459 8.672-14.922 12.98-25.752 7.961-2.434.529-2.655 1.081-2.674 1.188-.108.595 1.732 1.76 2.951 2.531 1.799 1.139 3.354 2.122 3.443 3.267.023.301-.05.749-.533 1.173-12.7 12.405-25.249 13.961-37.384 15.466-1.108.137-2.21.274-3.305.418l9.521 3.574-.64.55c-19.329 16.622-27.898 14.004-36.187 11.472-5.093-1.556-10.352-3.162-18.242-.187Zm128.028 38.057c-7.991 0-16.4-2.556-27.675-6.992l-.876-.345.776-.533c2.239-1.538 4.339-3.029 6.339-4.448 17.959-12.747 27.853-19.77 56.408-3.401l.678.388-.637.453c-14.673 10.434-24.479 14.877-35.013 14.877Zm-26.433-7.579c25.273 9.859 35.371 9.896 60.227-7.66-27.478-15.547-37.172-8.669-54.651 3.737a549.967 549.967 0 0 1-5.576 3.922Zm-13.646-5.108c-12.249 0-25.79-6.994-48.725-18.841l-.61-.315.487-.484c19.898-19.759 44.232-11.195 65.702-3.64 5.912 2.081 11.496 4.046 16.916 5.45l.931.241-.732.624c-13.815 11.767-23.412 16.965-33.968 16.965Zm-47.651-19.412c41.351 21.358 51.609 26.462 80.242 2.305-5.167-1.393-10.471-3.259-16.068-5.229-22.04-7.757-44.825-15.774-64.174 2.924Zm126.52 15.139-.22-.092c-4.688-1.951-9.381-3.478-13.523-4.824-8.625-2.804-14.857-4.831-15.249-8.642-.381-3.701 5.028-8.464 18.084-15.928 7.18-5.375 16.574-2.044 24.861.896 5.633 1.998 10.984 3.896 14.493 2.475l-31.23-8.833.59-.602c19.583-19.988 26.971-17.834 43.159-13.115 8.346 2.434 18.732 5.462 34.382 6.706l1.454.116-1.219.801c-17.394 11.422-34.611 20.098-51.262 28.488-7.919 3.991-16.109 8.117-24.109 12.442l-.21.113Zm-1.741-31.323c-3.086 0-6.022.729-8.62 2.672-12.374 7.078-17.962 11.831-17.637 14.991.326 3.165 6.609 5.208 14.564 7.794 4.094 1.331 8.727 2.837 13.377 4.76 7.946-4.291 16.068-8.383 23.925-12.342 16.237-8.181 33.013-16.634 49.946-27.636-14.946-1.319-25.002-4.251-33.131-6.621-16.098-4.693-22.86-6.664-41.573 12.253l31.814 8.998-.874.604c-3.854 2.664-9.963.497-16.433-1.797-4.977-1.765-10.365-3.675-15.36-3.675Zm-42.521 12.709c-11.862 0-24.014-4.261-35.96-8.451-5.901-2.069-12.004-4.209-17.89-5.746l-.767-.2.511-.606c21.551-25.575 47.232-16.024 72.067-6.788 4.888 1.818 9.942 3.697 14.835 5.248l.733.232-.51.576c-10.438 11.78-21.595 15.735-33.019 15.735Zm-52.827-14.96c5.685 1.529 11.534 3.58 17.199 5.566 22.949 8.048 46.675 16.366 67.386-6.431-4.684-1.51-9.49-3.297-14.144-5.028-24.311-9.042-49.445-18.387-70.44 5.893Zm85.355-6.08c-10.478 0-21.317-4.255-31.962-8.435-7.964-3.126-15.487-6.08-22.74-7.256l-.842-.137.531-.668c13.697-17.237 40.644-8.295 62.297-1.11 6.594 2.188 12.823 4.255 17.731 5.209l.883.171-.612.66c-7.949 8.564-16.49 11.565-25.286 11.565Zm-53.69-16.533c7.091 1.278 14.386 4.142 22.093 7.167 19.037 7.474 38.715 15.197 55.535-2.23-4.819-1.029-10.731-2.991-16.969-5.061-21.071-6.993-47.223-15.67-60.658.124Z"/></g></g></svg></g></svg>