<?xml version="1.0" encoding="UTF-8"?>
<svg id="Laag_1" data-name="Laag 1" xmlns="http://www.w3.org/2000/svg" xmlns:xlink="http://www.w3.org/1999/xlink" viewBox="0 0 2000 2700">
  <defs>
    <style>
      .cls-1 {
        fill: #1d293d;
      }

      .cls-1, .cls-2, .cls-3, .cls-4, .cls-5 {
        stroke-width: 0px;
      }

      .cls-2 {
        fill: none;
      }

      .cls-3 {
        fill: #fff;
      }

      .cls-4 {
        fill: #020618;
      }

      .cls-5 {
        fill: #2d1f16;
      }

      .cls-6 {
        clip-path: url(#clippath);
      }
    </style>
    <clipPath id="clippath">
      <rect class="cls-2" x="241" y="201" width="1569" height="2367"/>
    </clipPath>
  </defs>
  <g id="epMjnnml733FbOE6a1-j">
    <g id="ZgMx4evhOm-M9cBlSOuHT">
      <path id="WX2QqhPynWsuyObOrm-7Q" class="cls-3" d="M1349.15,1168.72c-79.31-56.15-141.94,55.84-76.71,107.18,19.88,16.23,34.57,31.41,41.77,44.74,6.31,11.67,9.3,22.89,10.38,33.39,3.7,35.98,142.23-55.54,120.98-88.96-14.83-23.32-44.03-55.11-96.42-96.36h0Z"/>
      <path id="ZS3He5HejzKDv60n6QnSS" class="cls-5" d="M1450.56,1280.65c-1.43,4.86-4.28,10.58-9.21,17.27-11.68,15.82-32.65,33.95-56.1,48.49-11.55,7.16-40.05,23.36-55.3,19.2-5.44-1.49-8.76-5.45-9.35-11.16-1.16-11.25-4.4-21.69-9.92-31.9-6.57-12.16-20.29-26.81-40.72-43.5-21.39-16.83-27.29-37.48-28.48-51.83-1.51-18.31,3.91-37.22,14.87-51.9,10.23-13.7,24.49-22.64,40.15-25.18,17.72-2.88,36.73,2.42,54.96,15.33.06.04.11.08.16.12,47.06,37.05,79.81,69.8,97.32,97.35,2.41,3.8,4.02,9.53,1.62,17.71h0ZM1346.75,1171.93c-37.63-26.59-68.76-12.22-83.99,8.17-19.22,25.73-19.93,67.42,12.2,92.71,21.3,17.4,35.68,32.85,42.76,45.94,6.03,11.16,9.58,22.57,10.84,34.88.25,2.41,1.26,3.65,3.5,4.26,17.01,4.65,78.25-31.38,102.85-64.71,5.83-7.9,11.82-18.81,7.28-25.95-17.02-26.77-49.13-58.83-95.44-95.29h0Z"/>
    </g>
    <g id="C7Yc81aUcL5IsED0mEh5I">
      <path id="Ov2Ev8X18Qw167j39lvcs" class="cls-3" d="M1371.23,1391.97c9.71-30.44-5.82-72.98-27.6-82.22-22.92-9.73-27.27,15.14-27.27,15.14,27.93,51.68-11.28,90.13,8.42,101.6,26.81,15.61,46.44-34.51,46.44-34.51h0Z"/>
      <path id="jv5YY240xFpThqbJnrEf" class="cls-5" d="M1375.44,1391.9c-.13.43-.26.86-.4,1.29-.03.08-.06.16-.09.24-.51,1.3-12.73,32-32.09,38.74-6.76,2.35-13.52,1.6-20.1-2.23-10.96-6.38-8.43-19.53-5.49-34.76,3.62-18.79,8.59-44.53-6.6-72.64-1.05-1.94-.33-4.37,1.62-5.42,1.94-1.05,4.37-.33,5.42,1.62,16.55,30.62,11.27,57.98,7.42,77.95-2.89,14.98-4.13,22.96,1.66,26.33,4.53,2.63,8.92,3.15,13.43,1.59,15.38-5.34,26.45-32.06,27.23-33.99,4.11-12.95,3.56-29.28-1.47-44.81-.68-2.1.47-4.36,2.57-5.04,2.1-.68,4.36.47,5.04,2.57,5.39,16.64,6.04,34.24,1.83,48.56h0Z"/>
    </g>
    <g id="QBis7zkOQf-zFv7xJ-vB">
      <path id="f5pdsAMzRbe6ceGRkoVlR" class="cls-3" d="M1438.03,1255.53c-19.02-21.03-59.05,20.96-32.79,42.7,13.09,8.11,32.37,18.92,41.34,17.69,13.99-1.67,21.02-22.8-8.55-60.39h0Z"/>
      <path id="m4_hbgVSdjicMNHxeobcQ" data-name="m4 hbgVSdjicMNHxeobcQ" class="cls-5" d="M1461.64,1307.23c-.2.69-.42,1.32-.66,1.9-2.46,6.08-7.54,10.01-13.86,10.76-7.99,1.1-22.38-4.87-43.99-18.25-1.88-1.16-2.46-3.63-1.3-5.51,1.16-1.88,3.63-2.46,5.51-1.29,26.77,16.58,35.97,17.5,38.76,17.12,2.45-.29,5.73-1.54,7.46-5.83,1.7-4.2,4.95-20.76-24.75-57.24-1.39-1.71-1.14-4.23.58-5.63,1.71-1.39,4.23-1.13,5.63.58,28.33,34.81,29.34,54.16,26.62,63.4h0Z"/>
    </g>
    <g id="X3jpRWKIVRfnR4_-eDYlu" data-name="X3jpRWKIVRfnR4 -eDYlu">
      <path id="VPIxx-LYlV-zloFfU8x" class="cls-3" d="M1446.58,1315.92c-1.94-4.11-5.17-11.71-11.24-20.34-25.13-36.16-65.64,6.39-46.62,36.91,4.25,7.8,16.99,23.89,30.55,30.4,25.79,10.07,38.47-17.96,27.3-46.97h0Z"/>
      <path id="EDZh8u0xqNuHznJjIFFTT" class="cls-5" d="M1452.91,1349.54c-1.5,5.09-3.95,9.5-7.33,12.86-7.01,6.97-16.87,8.47-27.76,4.22-.09-.04-.18-.08-.27-.12-15.2-7.29-28.35-24.77-32.34-32.09-1.06-1.94-.34-4.37,1.6-5.43s4.37-.34,5.43,1.6c4.41,8.11,16.55,22.78,28.63,28.64,7.81,3.01,14.4,2.15,19.06-2.49,7.67-7.63,8.88-23.75,2.96-39.24-.22-.47-.45-.97-.71-1.52-1.99-4.3-4.99-10.79-10.12-18.08-1.27-1.81-.84-4.3.97-5.57s4.3-.84,5.57.97c5.55,7.89,8.86,15.05,10.84,19.33.27.58.52,1.12.75,1.6.04.09.08.18.11.27,4.77,12.4,5.54,25.04,2.6,35.06h0Z"/>
    </g>
    <g id="PXBKVymbhHvIzVneQE9x2">
      <path id="qRSuWo5eV7ylOd1fXG9E8" class="cls-3" d="M1409.3,1337.07c-31.44-43.52-72.65.07-54.13,25.95,10.32,17.21,16.07,28.94,16.07,28.94,22.74,28.6,49.89,7.48,48.04-29.08-.64-6.23-3.79-15.54-9.98-25.82h0Z"/>
      <path id="SOEAACgB-O-fUHtM_9iGx" data-name="SOEAACgB-O-fUHtM 9iGx" class="cls-5" d="M1420.93,1384.03c-3.41,11.6-10.23,20.35-19.27,23.76-11.22,4.24-23.46-.63-33.56-13.34-.18-.22-.33-.47-.46-.73-.06-.12-5.81-11.8-15.91-28.65-1.14-1.89-.52-4.35,1.37-5.49,1.89-1.14,4.35-.52,5.49,1.38,9.36,15.6,14.92,26.6,16.03,28.84,7.84,9.71,16.43,13.44,24.21,10.5,10.57-3.99,17.32-19.24,16.45-37.11-.69-6.42-4.2-15.41-9.42-24.07-1.14-1.89-.53-4.35,1.37-5.49,1.89-1.14,4.35-.53,5.49,1.37,5.9,9.81,9.74,19.82,10.53,27.47,0,.07.01.14.02.21.39,7.7-.45,14.95-2.33,21.34h0Z"/>
    </g>
  </g>
  <g class="cls-6">
    <g id="man_with_Christmas_tree" data-name="man with Christmas tree">
      <g id="foot_L">
        <g id="PUjcIyaolh0lGDYHVFZyT">
          <g id="JupNx_nE6rd2jT7tP_R8g" data-name="JupNx nE6rd2jT7tP R8g">
            <path id="mYQP7C0-1p5s9HTvLP3Q0" class="cls-4" d="M1806,2247.31c-.67,20.44-168.2,169.6-201.15,159.33-9.14-2.85-116.44-127.4-133.8-156.68-19.75-28.27,83.72-104.42,106.14-78.47,6.89,7.97,34.2,36.39,65.78,73.36,49.18-14.19,121.99-25.39,140.69-22.81,11.77,1.63,22.55,18.92,22.34,25.27h0Z"/>
            <path id="oo86CdMyMU93lew8SSZBX" class="cls-4" d="M1608.53,2411.14c-1.8,0-3.42-.23-4.87-.68-1.5-.47-4.3-1.34-24.07-22.66-11.41-12.31-26.18-29-41.6-46.98-26.45-30.85-60.68-72.54-70.31-88.7-11.64-16.96,11.21-43.98,34.36-62,27.8-21.64,64.12-37.52,78.17-21.25,2.03,2.35,5.9,6.54,11.25,12.35,11.82,12.81,31.4,34.03,52.87,59.08,47.67-13.43,119.97-24.99,139.87-22.22,14.02,1.94,26.06,21.12,25.79,29.36h0c-.33,9.96-25.88,36.11-47.27,56.29-28.91,27.29-62.9,55.48-90.92,75.4-15.47,11-28.81,19.3-39.67,24.67-9.93,4.91-17.72,7.34-23.61,7.34h0ZM1606.18,2402.86c3.94,1.11,17.29.37,57.95-28.11,27.81-19.48,62.07-47.69,91.63-75.45,33.6-31.55,46.06-48.45,46.23-52.12.15-4.63-9.54-19.88-18.89-21.18-17.44-2.41-89.37,8.36-139.03,22.69-1.51.44-3.13-.05-4.15-1.25-22.02-25.77-42.25-47.7-54.34-60.8-5.41-5.86-9.31-10.09-11.43-12.54-8.68-10.05-38.2-.25-67.2,22.33-25.68,19.99-39.4,41.53-32.63,51.23.06.08.11.17.16.25,17.39,29.34,121.18,149.27,131.7,154.95h0ZM1806,2247.31h.01-.01Z"/>
          </g>
          <path id="x_RidWgoIniqOG1k88OFz" data-name="x RidWgoIniqOG1k88OFz" class="cls-3" d="M1613.86,2285.95c-.56,0-1.13-.1-1.69-.3-2.6-.94-3.95-3.79-3.01-6.39.34-.96,8.64-23.65,29.67-43.81,1.99-1.91,5.16-1.84,7.07.15,1.91,1.99,1.84,5.16-.15,7.07-19.26,18.46-27.1,39.76-27.18,39.97-.74,2.04-2.66,3.31-4.71,3.31h0Z"/>
        </g>
        <g id="No-GH59VJPjHisFvfajAx">
          <path id="fSNOCsFLsBLa5Os5yWpHB" class="cls-3" d="M790.87,1253.74c-4.07,82.57,48,194.12,109.22,280.14,114.64,173.17,534.94,723.19,543.59,724.36,18.89,2.55,142.79-85.4,142.47-104.72-.25-15.3-483.03-791.28-541.8-944.53-69.65-132.8-246.34-100.29-253.48,44.75h0Z"/>
          <path id="VUGw6JTbHX1_JlvEvbAU8" data-name="VUGw6JTbHX1 JlvEvbAU8" class="cls-4" d="M1444.39,2262.29c-.44,0-.85-.02-1.24-.08-2.04-.28-3.16-.43-23.71-25.8-12.43-15.35-29.72-37.23-51.37-65.02-43.99-56.46-100.68-130.48-159.62-208.4-145.96-192.97-262.45-352.52-311.65-426.83-56-78.71-114.28-194.26-109.92-282.61,1.68-34.01,12.77-64.19,32.08-87.27,17.93-21.42,41.96-35.96,69.51-42.03,28.87-6.37,59.85-2.62,87.23,10.54,29.95,14.4,54.92,39.42,72.2,72.36.07.14.14.28.19.43,38.57,100.58,261.19,471.62,408.5,717.15,38.37,63.95,71.5,119.18,95.18,159.28,38.31,64.88,38.35,67.31,38.38,69.46.07,4.01-2.4,11.62-24.49,31.26-17.76,15.79-44.12,35.55-68.78,51.56-18.51,12.02-42.25,26.01-52.5,26.01h0ZM1445.64,2254.8h.01-.01ZM790.87,1253.74l4,.2c-4.26,86.32,53.25,200.01,108.49,277.62.03.04.05.07.08.11,48.51,73.28,163.39,230.69,307.31,421.07,128.68,170.22,223.55,291.42,234.33,301.56,12.72-.6,75.81-40.49,115.28-75.57,19.45-17.29,21.57-23.49,21.78-24.88-3.3-9.84-63.18-109.64-132.4-225.02-147.35-245.59-369.96-616.63-409.02-718.18-32.01-60.86-91.07-91.71-150.51-78.59-43.65,9.63-91.62,46.7-95.33,121.88l-4-.2h0ZM1582.22,2154.13h0Z"/>
        </g>
      </g>
      <g id="foot_R">
        <g id="PFwJL0kw84eAo3B64eP45">
          <g id="LRipWtr0vvS6gyYgMeSFB">
            <path id="DUU-ph74U0t88vBl2bx1" class="cls-4" d="M748.53,2561.86c-16.55,12-237.06-28.97-249.14-61.3-3.36-8.97,29.23-170.12,41.72-201.8,10.22-32.93,133.79,2.16,127.04,35.78-2.07,10.33-7.77,49.34-17.61,96.96,41.35,30.17,94.84,80.84,104.26,97.21,5.93,10.3-1.12,29.42-6.26,33.15h0Z"/>
            <path id="GfmA2kEhD_3vghQ51pluS" data-name="GfmA2kEhD 3vghQ51pluS" class="cls-4" d="M733.45,2567.97c-15.27,0-37.16-2.79-56-5.72-39.28-6.12-82.38-15.71-115.29-25.64-18.17-5.48-32.9-10.94-43.8-16.23-13.01-6.32-20.44-12.34-22.72-18.42-.55-1.47-1.58-4.22,3.15-32.91,2.73-16.57,6.85-38.47,11.6-61.68,8.15-39.82,20.09-92.43,26.95-109.95,6.26-19.59,41.61-18.1,70.03-10.85,34.13,8.7,68.93,27.68,64.7,48.76-.61,3.05-1.55,8.67-2.85,16.45-2.87,17.2-7.63,45.69-14.25,78.01,39.83,29.44,93.27,79.5,103.29,96.92,7.06,12.27-.71,33.54-7.38,38.38,0,0,0,0,0,0-2.84,2.06-9.16,2.87-17.44,2.87h0ZM748.53,2561.86h.01-.01ZM503.19,2499.3c1.54,3.8,10.3,13.89,57.73,28.57,32.44,10.04,75.71,19.82,115.76,26.16,45.53,7.21,66.51,6.69,69.51,4.59,3.74-2.73,9.85-19.72,5.14-27.91-8.78-15.26-61.39-65.5-103.15-95.97-1.27-.92-1.88-2.51-1.56-4.04,6.86-33.21,11.77-62.64,14.71-80.23,1.31-7.86,2.26-13.53,2.9-16.71,2.62-13.03-23.23-30.34-58.83-39.42-31.53-8.04-56.96-5.68-60.46,5.62-.03.1-.06.19-.1.28-12.51,31.73-43.6,187.26-41.64,199.07h0Z"/>
          </g>
          <path id="l0iCTKjZ_EkEVNd2jwXqR" data-name="l0iCTKjZ EkEVNd2jwXqR" class="cls-3" d="M604.19,2435.63c-2.11,0-4.07-1.34-4.76-3.46-.85-2.63.58-5.44,3.2-6.3.97-.32,23.97-7.67,52.79-3.41,2.73.4,4.62,2.95,4.22,5.68s-2.95,4.61-5.68,4.22c-26.39-3.9-48.02,2.95-48.23,3.02-.51.17-1.03.24-1.54.24h0Z"/>
        </g>
        <g id="bWrU_ivayxV1i5cmb2spU" data-name="bWrU ivayxV1i5cmb2spU">
          <path id="ZajgkNRuAs7HGlLFoLBT3" class="cls-3" d="M663.92,1251.91c-32.68,152.23-34.21,210.46-64.34,481.2-26,233.64-91.41,535.15-91.92,548.63-.78,20.99,170.11,45.19,186.95,40.87s153.05-561.83,205.48-788.73c46.92-196.33,41.32-289.79,23.99-328.34-47.23-105.05-224.51-96.84-260.17,46.36h0Z"/>
          <path id="h1ZMJzG8aZ8r8Xr_cz084" data-name="h1ZMJzG8aZ8r8Xr cz084" class="cls-4" d="M687.62,2327.1c-35.33,0-156.53-18.59-179.05-36.75-3.38-2.72-5.03-5.67-4.91-8.75.13-3.5,3.41-20.38,10.81-58.23,19.99-102.27,61.59-315.08,81.13-490.7,6.64-59.71,11.83-108.42,16.4-151.4,15.9-149.47,22.49-211.34,48.01-330.2,0-.04.02-.08.03-.13,20.24-81.3,82.68-115.21,134.36-119.84,27.7-2.48,54.73,2.64,78.18,14.79,24.81,12.87,43.89,32.93,55.16,58.01,10.35,23.01,14.53,58.95,12.45,106.82-2.57,58.96-14.75,134.35-36.19,224.09-25.41,109.96-72.58,306.43-116.1,477.88-23.39,92.14-42.76,165.44-57.59,217.85-26.54,93.85-31.06,95.01-34.69,95.94-1.62.42-4.35.61-7.98.61h0ZM667.81,1252.81c-25.42,118.4-31.99,180.15-47.86,329.3-4.57,42.99-9.76,91.72-16.41,151.44-19.58,175.94-61.22,388.97-81.23,491.35-6.12,31.33-10.55,53.97-10.66,56.99.03.25.63,1.36,2.97,2.99,11.23,7.84,46.42,17.26,94.13,25.2,40.99,6.82,76.34,10.01,84.16,8.79,4.32-5.51,21.48-48.71,89.05-315.38,43.01-169.75,89.36-362.89,114.23-470.51,51.55-215.72,37.31-296.72,24.24-325.8-20.83-46.33-70.02-73.06-125.33-68.11-48.93,4.38-108.05,36.56-127.29,113.74h0Z"/>
        </g>
      </g>
      <g id="head">
        <g id="eDYXfGTstT6GAINQuI0IW">
          <g id="lgrq4IUWqi8DYxXW0f10l">
            <path id="AN4C2fHUU5wltzhOPz3T7" class="cls-3" d="M845.72,596.82l14.39,57.52c6.67,90.87-136.39,109.26-159.28,4.82l-17.94-83.92c-12.37-78.56,119.22-133.44,162.84,21.58h0Z"/>
            <path id="MYTJsTT7VKGVcER5k3HDH" class="cls-4" d="M784.96,734.24c-36.66,0-76.58-21.92-88.05-74.22l-17.94-83.94c-.02-.07-.03-.14-.04-.22-2.9-18.4,1.62-36.82,12.71-51.85,10.64-14.41,26.19-24.47,43.79-28.32,21.83-4.77,44.41.65,63.57,15.28,22.57,17.23,39.58,45.75,50.56,84.77.01.04.02.08.03.11l14.39,57.52c.06.22.09.45.11.68,1.56,21.27-4.64,40.19-17.93,54.71-11.93,13.04-29.03,21.76-48.16,24.54-4.27.62-8.64.94-13.05.94h0ZM686.82,574.51l17.92,83.81c11.74,53.57,55.99,72.32,92.13,67.05,31.65-4.61,62.21-28.16,59.28-70.41l-14.29-57.12c-10.35-36.76-26.84-64.6-47.7-80.52-17.26-13.18-37.51-18.08-57.01-13.82-29.2,6.39-55.99,34.69-50.33,71h0Z"/>
          </g>
          <g id="WFy8kiogJY6HaR6zDOR3X">
            <path id="pw5Svr0sanulfXLNyE14D" class="cls-3" d="M843.16,325.13s33.37,26.93,43.1,85.45c12.47-6.05,27.26-9.95,32.86-7.02,11.89,6.22,15.88,36.88-21.05,50.12,0,0,40.32,119.89-52.35,143.15-49.14,9.7-144.98,7.15-162.84-21.58l-46.66-85.4c-81.29,43.82-97.53-96.89-16.98-63.02-5.06-101.52,113.75-179.78,223.92-101.7h0Z"/>
            <path id="iEHB9pxO8JCUZZMveTA5-" class="cls-4" d="M829.35,602.9c-7.44,0-16.33-1.46-28.64-6.06-2.07-.77-3.12-3.08-2.35-5.15s3.08-3.12,5.15-2.35c20.55,7.68,30.08,5.8,41.13,3.61l.22-.04c21.79-5.49,37.66-17.09,47.16-34.46,22.67-41.45,2.48-102.9,2.27-103.51-.69-2.06.39-4.31,2.44-5.04,22.93-8.22,26.32-22.26,26.71-27.92.51-7.39-2.72-13.08-6.17-14.89-3.41-1.78-15.98.63-29.26,7.07-1.13.55-2.46.53-3.58-.05-1.12-.58-1.9-1.65-2.11-2.9-9.1-54.77-39.78-81.4-41.59-82.92-49.34-34.91-106.52-40.52-152.99-15-42.12,23.13-66.83,66.55-64.5,113.32.07,1.37-.57,2.69-1.7,3.48s-2.58.95-3.85.41c-19.02-8-33.84-6.37-41.73,4.6-9.04,12.56-6.82,34.43,4.87,47.74,7.19,8.19,23.69,19.53,53.5,3.47,1.94-1.05,4.35-.33,5.41,1.6l46.66,85.4c1.06,1.94.35,4.37-1.59,5.43-1.94,1.06-4.37.35-5.43-1.59l-44.79-81.98c-33.77,16.48-52.95.72-59.77-7.05-14.2-16.18-16.6-42.06-5.35-57.7,4.5-6.25,17.64-19.01,45.61-9.47-.16-47.52,25.8-91.05,68.8-114.67,23.04-12.65,49.33-18.39,76.01-16.58,29.5,2,58.29,12.82,85.58,32.15.07.05.13.1.2.15,1.37,1.1,32.76,27,43.61,82.81,10.06-4.24,24.54-8.56,31.69-4.81,6.92,3.63,11.12,12.68,10.44,22.53-.48,6.9-4.25,23.49-28.41,33.52,4.21,14.39,17.34,67.24-3.96,106.22-10.63,19.45-28.24,32.38-52.34,38.43-.07.02-.13.03-.2.05l-.32.06c-5.36,1.06-10.58,2.09-16.84,2.09h0Z"/>
          </g>
        </g>
        <g id="sHUXHC7SJ1YG7x-WS">
          <path id="TdfOtiv2psX1mOnYmT6Q1" class="cls-3" d="M885.64,456.66s7.02-1.38,12.43-3"/>
          <path id="qVq1N9fElyRWHaAuxxDsX" class="cls-4" d="M885.63,460.66c-1.87,0-3.54-1.32-3.92-3.23-.43-2.17.98-4.27,3.15-4.7.07-.01,6.9-1.37,12.07-2.91,2.12-.63,4.34.58,4.97,2.7.63,2.12-.58,4.35-2.7,4.97-5.54,1.65-12.5,3.03-12.8,3.09-.26.05-.52.08-.78.08h0Z"/>
        </g>
        <g id="oUFvaB_xoK42ANW1MGbMu" data-name="oUFvaB xoK42ANW1MGbMu">
          <path id="lXJ_OP6x2BlWOIbn-cD5Q" data-name="lXJ OP6x2BlWOIbn-cD5Q" class="cls-4" d="M610.42,498.21s13.41,55.59,22.18,68.97c13.95,21.31,50.29,8.05,50.29,8.05-2.22-31.13-41.61-88.93-42.62-88.22-4.04,2.82-11.48,8.2-29.84,11.2h0Z"/>
          <path id="HW9XXow4-RYWI7-t6dQM" class="cls-4" d="M659.36,583.35c-10.95,0-22.93-3-30.11-13.96-9.04-13.81-22.16-67.93-22.72-70.23-.26-1.08-.06-2.22.56-3.15s1.59-1.56,2.69-1.74c17.14-2.8,24.19-7.72,27.97-10.37l.22-.15c1.18-.82,2.78-.94,4.08-.32,3.57,1.7,17.72,25.16,23.02,34.65,9.28,16.62,20.59,39.99,21.8,56.89.13,1.78-.94,3.43-2.62,4.04-.86.31-12.19,4.35-24.89,4.35h0ZM615.32,501.39c4.41,17.62,14.29,53.94,20.62,63.6,9.91,15.13,34.16,9.83,42.61,7.41-3.77-26.25-31.31-69.45-39.01-80.06-4.37,2.8-11.47,6.5-24.22,9.05Z"/>
        </g>
        <g id="jE1v_Z3XOAj5F7QxVNNAY" data-name="jE1v Z3XOAj5F7QxVNNAY">
          <path id="yYY9KfL37y1DstCdlRB1d" class="cls-3" d="M594.62,455.46s15.9-1.35,26.15,16.05"/>
          <path id="iVWLTJrAeF9mhKPhdFdpc" class="cls-4" d="M620.77,475.51c-1.37,0-2.7-.71-3.45-1.97-8.76-14.87-21.84-14.13-22.39-14.09-2.19.15-4.11-1.49-4.28-3.68-.17-2.19,1.45-4.11,3.64-4.29.75-.07,18.54-1.34,29.93,18.01,1.12,1.9.49,4.36-1.42,5.48-.64.38-1.34.56-2.03.56h0Z"/>
        </g>
        <g id="hDNPt8KK6pfTpYN4JIFHJ">
          <path id="DCdO9539qX3KgQIJA4oe3" class="cls-3" d="M640.27,487.02s6.61-4.9,8.51-6.61"/>
          <path id="gApwQ73OWuPEBesV_6xej" data-name="gApwQ73OWuPEBesV 6xej" class="cls-4" d="M640.27,491.02c-1.23,0-2.43-.56-3.22-1.62-1.32-1.78-.94-4.28.83-5.6,1.8-1.33,6.77-5.07,8.21-6.36,1.64-1.48,4.17-1.35,5.65.29s1.35,4.17-.29,5.65c-1.98,1.79-8.12,6.34-8.81,6.85-.72.53-1.55.79-2.38.79h0Z"/>
        </g>
        <g id="eNyxCcVBW2IV2uvaPWP_3" data-name="eNyxCcVBW2IV2uvaPWP 3">
          <g id="jnzkw0IGNC0k-D3uOQjI2">
            <g id="Xzm7lfILpQAYjn329fIZ">
              <path id="cmFCUGyG0uVcsAp-8ZClb" class="cls-4" d="M859.64,342.94c115.57-36.77,35.91-176.49-49.57-86.07-60.81-8.41-65.74.51-175.47,111.36-33.62,6.41-98.76,28.47-58.52,60.15,0,0,24.01-27.92,82.87,26.35,0,0,14.23,45.8,18.47,48.55,4.24,2.75,24.98-2.74,24.97-5.34-.03-9.92-16.44-65.63-16.97-94.05-1.36-72.32,106.07-131.94,174.22-60.94h0Z"/>
              <path id="q215bjX-b6yzZ70ux12s5" class="cls-4" d="M681.61,507.99c-2.61,0-4.87-.39-6.36-1.36-1.52-.98-3.81-2.47-12.43-27.35-3.36-9.68-6.39-19.24-7.36-22.33-29.69-27.15-49.57-32.25-61.03-31.71-10.45.48-15.15,5.57-15.34,5.79-1.41,1.56-3.82,1.8-5.48.5-11.34-8.93-15.95-18.13-13.7-27.35,6.12-25.11,61.77-37.45,72.72-39.64,5.51-5.57-7.86-21.3,3.64-37.56,46.78-47.35,84.66-51.82,105.87-64.84,20.8-12.77,37.55-13.39,66.46-9.52,25.96-26.7,54.82-36.02,79.43-25.54,21.04,8.96,34.42,30.96,33.3,54.76-.66,13.94-7.87,48.18-60.47,64.91-1.45.46-3.04.06-4.1-1.04-28.97-30.18-69.16-38.73-107.51-22.88-36.41,15.06-60.46,47.6-59.83,80.97.32,17.22,6.79,45.49,11.52,66.13,3.48,15.19,5.44,23.97,5.46,27.99.01,3.03-2.78,4.55-3.7,5.05-3.42,1.87-13.65,5.02-21.08,5.02h0ZM679.96,500.2h0ZM679.73,499.92c3.18.81,14.53-1.68,18.53-3.63-.54-4.54-2.78-14.31-5.13-24.57-4.8-20.98-11.38-49.72-11.72-67.76-.69-36.64,25.34-72.21,64.77-88.52,40.73-16.84,83.37-8.25,114.56,22.92,32.26-10.93,51.38-31.57,52.58-56.9.97-20.47-10.46-39.36-28.44-47.01-21.81-9.28-48.02-.11-71.91,25.17-.89.94-2.17,1.39-3.45,1.21-55.59-7.69-61.23-1.98-155.45,93.39-5.26,5.33-10.8,10.93-16.63,16.82-.57.58-1.3.96-2.09,1.12-30.96,5.9-64.14,19.45-67.67,33.91-1.29,5.3,1.52,11.03,8.37,17.07,3.18-2.31,8.95-5.38,17.53-5.88,19.14-1.11,42.04,10.5,68.08,34.52.52.48.9,1.08,1.11,1.75,6.25,20.1,14.16,42.5,16.96,46.38h0Z"/>
            </g>
            <g id="E0k3omMRPGtipE-1G9sX">
              <path id="EIONyaSfDXN4rFpsHrY3k" class="cls-3" d="M866.78,321.48c-1.23,0-2.44-.56-3.23-1.63-1.31-1.78-.93-4.28.85-5.6,3.05-2.25,5.76-4.8,8.05-7.6,1.4-1.71,3.92-1.96,5.63-.56,1.71,1.4,1.96,3.92.56,5.63-2.71,3.32-5.91,6.34-9.5,8.98-.71.53-1.55.78-2.37.78h0Z"/>
              <path id="Nw8BMG_sJC76Nt3LDdFX" data-name="Nw8BMG sJC76Nt3LDdFX" class="cls-3" d="M885.78,289.75c-.21,0-.43-.02-.64-.05-2.18-.35-3.66-2.41-3.31-4.59,2.6-16.08-2.43-30.87-2.49-31.02-.72-2.09.38-4.37,2.46-5.09,2.09-.73,4.36.37,5.09,2.46.24.68,5.76,16.78,2.83,34.93-.32,1.97-2.02,3.36-3.94,3.36h0Z"/>
            </g>
          </g>
        </g>
      </g>
      <g id="hand_L">
        <path id="Lfym30hQKSY7_GJ5aXAsF" data-name="Lfym30hQKSY7 GJ5aXAsF" class="cls-1" d="M837.21,657.49c8.16-17.4,24.32-29.74,42.71-33.65,131.54-27.98,223.45,226.87,338.68,344.57,69.46,70.96,193.27,168.73,169.01,237.41-7.35,20.82-91.2,61.81-106.25,61.81-77.56,0-163.03-90.25-276.8-236.09-61.74-79.15-202.98-298.07-167.35-374.05h0Z"/>
        <path id="GioA-G_W_rtnpA_b_5Nxh" data-name="GioA-G W rtnpA b 5Nxh" class="cls-4" d="M732.99,829.22c-2.06,0-3.8-1.58-3.98-3.66-5.98-70.6-29.57-103.87-48.31-119.34-20.08-16.58-39.06-16.81-39.25-16.81-2.2,0-4-1.79-4-3.99,0-2.2,1.77-4,3.97-4.01.87,0,21.6.1,43.86,18.23,20.13,16.39,45.43,51.42,51.69,125.25.19,2.2-1.45,4.14-3.65,4.32-.11.01-.23.02-.34.02h0Z"/>
      </g>
      <g id="body">
        <path id="nN734mqKsMNWcBmJiA91W" class="cls-1" d="M693.54,662.41c105.39,41.55,130.7,8.18,156.6-17.82,69.41-45.96,241.51,653.38,241.51,653.38l-463.57,52.04s-10.47-448.16-20.38-540.67c-14.45-134.86,54.36-159.34,85.85-146.92h0Z"/>
        <path id="LulNeAzAA3-95HBoVW-eq" class="cls-3" d="M1014.53,943.33c-1.23,0-2.45-.57-3.23-1.64-28.52-39.07-37.1-78.54-37.45-80.2-.46-2.16.92-4.28,3.08-4.74,2.16-.46,4.28.92,4.74,3.08.08.39,8.62,39.52,36.08,77.14,1.3,1.78.91,4.29-.87,5.59-.71.52-1.54.77-2.36.77h0Z"/>
      </g>
      <g id="hand_R">
        <g id="epMjnnml733FbOE6a1-j-2" data-name="epMjnnml733FbOE6a1-j">
          <g id="ZgMx4evhOm-M9cBlSOuHT-2" data-name="ZgMx4evhOm-M9cBlSOuHT">
            <path id="WX2QqhPynWsuyObOrm-7Q-2" data-name="WX2QqhPynWsuyObOrm-7Q" class="cls-3" d="M692.15,1572.06c24.79,61.89,47.05,98.88,65.24,119.69,26.07,29.81,152.95-77.26,119.47-90.97-9.77-4-19.68-10.04-29.1-19.38-10.76-10.67-21.17-29.05-31.14-52.7-30.85-77.07-155.96-48.56-124.46,43.36h0Z"/>
            <path id="ZS3He5HejzKDv60n6QnSS-2" data-name="ZS3He5HejzKDv60n6QnSS" class="cls-4" d="M770.91,1700.93c-8.53,0-13.58-3.16-16.54-6.55-21.49-24.58-43.67-65.23-65.94-120.83-.02-.06-.05-.13-.07-.19-7.24-21.14-6.97-40.87.8-57.06,6.86-14.3,19.46-25.46,35.48-31.41,17.17-6.38,36.85-6.24,53.99.38,13.44,5.19,31.58,16.68,41.7,41.94,10.25,24.31,20.43,41.6,30.24,51.34,8.24,8.18,17.34,14.24,27.8,18.52,5.31,2.17,8.18,6.48,8.07,12.12-.31,15.8-23.89,38.58-34.02,47.64-20.56,18.4-43.87,33.4-62.34,40.14-7.81,2.85-14.1,3.96-19.17,3.96h0ZM695.9,1570.66c21.92,54.71,43.62,94.56,64.5,118.44,5.57,6.37,17.73,3.7,26.94.34,38.92-14.19,90.76-62.78,91.1-80.41.04-2.32-.85-3.64-3.1-4.56-11.46-4.69-21.41-11.31-30.41-20.25-10.56-10.48-21.33-28.64-32.01-53.98-15.2-37.96-55.4-49.04-85.5-37.86-23.86,8.86-46.42,34.68-31.53,78.27h0Z"/>
          </g>
          <g id="C7Yc81aUcL5IsED0mEh5I-2" data-name="C7Yc81aUcL5IsED0mEh5I">
            <path id="Ov2Ev8X18Qw167j39lvcs-2" data-name="Ov2Ev8X18Qw167j39lvcs" class="cls-3" d="M900.09,1656.23s53.63-4.7,46.21-34.82c-5.45-22.14-53.39,4.63-95.09-36.74,0,0-25.08-2.84-22.22,21.89,2.72,23.5,39.15,50.4,71.1,49.67h0Z"/>
            <path id="jv5YY240xFpThqbJnrEf-2" data-name="jv5YY240xFpThqbJnrEf" class="cls-4" d="M898.84,1660.24c-14.92,0-31.63-5.59-46.07-15.46-1.82-1.25-2.29-3.74-1.05-5.56,1.25-1.82,3.73-2.29,5.56-1.05,13.48,9.21,28.99,14.34,42.58,14.05,2.08-.21,30.83-3.29,40.3-16.54,2.78-3.89,3.52-8.25,2.27-13.33-1.6-6.5-9.6-7.56-24.79-9.02-20.25-1.94-47.99-4.6-72.69-29.11-1.57-1.56-1.58-4.09-.02-5.66,1.56-1.57,4.09-1.58,5.66-.02,22.68,22.5,48.77,25,67.82,26.83,15.44,1.48,28.77,2.76,31.8,15.07,1.82,7.39.63,14.09-3.53,19.91-11.92,16.67-44.82,19.73-46.22,19.86-.09,0-.17.01-.26.02-.45.01-.9.02-1.35.02h0Z"/>
          </g>
          <g id="QBis7zkOQf-zFv7xJ-vB-2" data-name="QBis7zkOQf-zFv7xJ-vB">
            <path id="f5pdsAMzRbe6ceGRkoVlR-2" data-name="f5pdsAMzRbe6ceGRkoVlR" class="cls-3" d="M750.36,1681.82c27.72,38.97,49.97,38.19,55.52,25.24,3.71-8.26-1.22-29.8-5.31-44.65-13.45-31.33-65.02-4.77-50.21,19.41h0Z"/>
            <path id="m4_hbgVSdjicMNHxeobcQ-2" data-name="m4 hbgVSdjicMNHxeobcQ" class="cls-4" d="M793.29,1719.06c-9.62,0-27.91-6.42-53.31-43.43-1.25-1.82-.79-4.31,1.03-5.56,1.82-1.25,4.31-.79,5.56,1.03,26.62,38.78,43.42,40.34,47.93,39.9,4.6-.45,6.72-3.25,7.7-5.52,1.15-2.56,2.86-11.65-5.49-42.01-.59-2.13.67-4.33,2.8-4.92,2.13-.59,4.33.67,4.92,2.8,6.74,24.5,8.41,39.99,5.1,47.35-2.51,5.85-7.71,9.62-14.23,10.26-.62.06-1.29.1-2,.1h0Z"/>
          </g>
          <g id="X3jpRWKIVRfnR4_-eDYlu-2" data-name="X3jpRWKIVRfnR4 -eDYlu">
            <path id="VPIxx-LYlV-zloFfU8x-2" data-name="VPIxx-LYlV-zloFfU8x" class="cls-3" d="M805.88,1707.06c24.68,18.9,55.15,14.64,52.77-12.94-2.41-14.85-14.26-31.61-20.54-37.89-23.92-26.86-76.17,0-48.57,34.31,6.57,8.26,12.95,13.5,16.34,16.52h0Z"/>
            <path id="EDZh8u0xqNuHznJjIFFTT-2" data-name="EDZh8u0xqNuHznJjIFFTT" class="cls-4" d="M836.35,1722.62c-10.45,0-22.36-4.31-32.9-12.38-.08-.06-.15-.12-.23-.19-.4-.36-.84-.75-1.33-1.17-3.55-3.11-9.49-8.3-15.49-15.85-1.38-1.73-1.09-4.25.64-5.62s4.25-1.09,5.62.64c5.55,6.98,10.93,11.69,14.49,14.81.45.4.88.77,1.26,1.11,13.19,10.05,29,13.44,38.48,8.23,5.77-3.17,8.45-9.24,7.77-17.59-2.21-13.25-12.86-29.03-19.4-35.55-1.56-1.56-1.57-4.1,0-5.66s4.09-1.57,5.66,0c5.9,5.89,18.96,23.44,21.66,40.08.02.1.03.2.04.3,1.01,11.65-3.21,20.69-11.88,25.44-4.17,2.29-9.1,3.4-14.4,3.4h0Z"/>
          </g>
          <g id="PXBKVymbhHvIzVneQE9x2-2" data-name="PXBKVymbhHvIzVneQE9x2">
            <path id="qRSuWo5eV7ylOd1fXG9E8-2" data-name="qRSuWo5eV7ylOd1fXG9E8" class="cls-3" d="M836.69,1677.26c8.12,8.84,16.16,14.48,21.96,16.86,34.55,12.09,62.47-8,41.45-37.89,0,0-9.63-8.83-23.23-23.58-19.61-25.07-73.05,2.18-40.17,44.61h0Z"/>
            <path id="SOEAACgB-O-fUHtM_9iGx-2" data-name="SOEAACgB-O-fUHtM 9iGx" class="cls-4" d="M878.46,1701.68c-6.66,0-13.85-1.24-21.13-3.78-.07-.02-.13-.05-.2-.07-7.12-2.92-15.65-9.42-23.39-17.85-1.5-1.63-1.39-4.16.24-5.65,1.63-1.49,4.16-1.39,5.65.24,6.84,7.44,14.47,13.35,20.43,15.82,16.9,5.88,33.43,3.7,40.24-5.31,5.01-6.64,3.86-15.93-3.25-26.19-1.83-1.7-10.81-10.14-23.14-23.52-1.5-1.62-1.4-4.16.23-5.65,1.63-1.5,4.16-1.4,5.65.23,13.31,14.44,22.9,23.26,23,23.34.21.19.4.41.57.65,9.34,13.28,10.56,26.39,3.33,35.96-5.82,7.71-16.14,11.79-28.23,11.79h0Z"/>
          </g>
        </g>
        <path id="Av_TQku6TUi6DYX96d1hY" data-name="Av TQku6TUi6DYX96d1hY" class="cls-1" d="M826.6,1520.66c-11.81,10.48-117.11,44.32-151.83,38.14-65.3-11.62-236.24-498.79-167.11-762.5,32.94-125.66,114.18-147.12,179.57-135.81,43.39,11.41,53.92,70.33,51,235.11-.14,7.91,10.26,147.97,37.32,291.49,29,153.75,85.02,303.43,51.07,333.57Z"/>
        <g id="ZKd3Ba2CG09dJWD2jOkIJ">
          <path id="gkA3nvkxHMhXT7B9QQnUr" class="cls-1" d="M678.52,1555.74c-.63,5.91,15.66,72.2,24.17,80.37,8.51,8.17,60.94-33.37,97.02-47s50.04-17.71,50.04-21.46-19.4-42.23-34.38-62.32-133.79,21.46-136.85,50.4h0Z"/>
          <path id="VIrboPbuYRteMd52Cw" class="cls-3" d="M678.87,1563.55c-1.17,0-2.33-.51-3.13-1.5-1.38-1.72-1.1-4.24.62-5.62.89-.71,21.99-17.51,51.21-30.94,39.18-18.02,74.01-20.94,100.72-8.45,2,.94,2.87,3.32,1.93,5.32-.94,2-3.32,2.87-5.32,1.93-59.7-27.91-142.71,37.72-143.55,38.39-.74.59-1.62.88-2.5.88h0Z"/>
          <path id="HSyNBMAvk9xFbmP2GIm-i" class="cls-3" d="M726.52,1602.99c-1.52,0-2.97-.87-3.64-2.35-8.64-19.02-10.78-32.84-10.87-33.41-.33-2.19,1.18-4.22,3.36-4.55,2.19-.33,4.22,1.18,4.55,3.36.03.22,2.12,13.43,10.24,31.29.91,2.01.02,4.38-1.99,5.3-.54.24-1.1.36-1.65.36h0Z"/>
          <path id="BVl9CHttxrNHqzenOFJ0E" class="cls-3" d="M761.92,1577.11c-1.79,0-3.42-1.21-3.88-3.03-2.79-11.15-8.35-18.13-8.41-18.2-1.39-1.72-1.13-4.23.58-5.63s4.22-1.14,5.62.57c.27.34,6.73,8.34,9.97,21.32.54,2.14-.77,4.32-2.91,4.85-.33.08-.65.12-.97.12h0Z"/>
          <path id="QRmfjdTOSlasFmXsxjMm" class="cls-3" d="M815.37,1563.55c-1.86,0-3.52-1.3-3.91-3.19-2.55-12.36-7.99-21.8-8.05-21.89-1.11-1.91-.47-4.36,1.44-5.47,1.91-1.11,4.35-.48,5.47,1.43.25.43,6.15,10.61,8.98,24.31.45,2.16-.95,4.28-3.11,4.73-.27.06-.54.08-.81.08h0Z"/>
          <path id="vRGzr2kn02vo1xQAfaoRT" class="cls-3" d="M826.61,1524.66c-1.1,0-2.2-.45-2.99-1.35-1.47-1.65-1.32-4.18.34-5.65,21.4-19,2.05-97.56-20.35-188.52-10.68-43.38-22.79-92.55-31.99-141.32-26.26-139.24-34.89-262.17-37.38-308.56-.12-2.21,1.57-4.09,3.78-4.21,2.2-.11,4.09,1.57,4.21,3.78,2.48,46.23,11.09,168.73,37.26,307.51,9.16,48.55,21.24,97.61,31.9,140.88,24.91,101.14,42.91,174.22,17.89,196.42-.76.68-1.71,1.01-2.65,1.01h0Z"/>
        </g>
      </g>
      <g id="QoOZjHloGTOSUvO_Waxsf" data-name="QoOZjHloGTOSUvO Waxsf">
        <path id="lJt4LL5It51Z_fyqxZ22t" data-name="lJt4LL5It51Z fyqxZ22t" class="cls-1" d="M678.09,595.86s64.83,41.58,181.18,9.9c0,0,14.57-12.26,16.95,49.04,0,0-90.93,94.12-203.79,6.77-12.43-13.11-6.59-75.35,5.66-65.71Z"/>
        <path id="SeohDiLEq40iV0_DNPmEM" data-name="SeohDiLEq40iV0 DNPmEM" class="cls-3" d="M769.89,686.32c-59.84,0-99.47-22.81-101.4-23.94-1.91-1.12-2.54-3.57-1.42-5.48,1.12-1.9,3.57-2.54,5.47-1.43h0c.53.31,53.82,30.88,128.33,20.74,24.19-3.29,43.34-13.02,56.93-28.92,10.16-11.9,13.25-23.01,13.28-23.12.58-2.13,2.77-3.4,4.9-2.82,2.13.57,3.4,2.75,2.83,4.89-.14.51-3.45,12.68-14.65,25.92-10.25,12.12-29.37,27.52-62.21,31.99-11.21,1.52-21.93,2.18-32.06,2.18h0Z"/>
        <path id="Z7XhjLWJKytQSYpZHxVlc" class="cls-3" d="M705.06,650.78c-1.9,0-3.58-1.35-3.93-3.29-2.13-11.76-.11-26.2-.02-26.8.31-2.19,2.34-3.71,4.53-3.39,2.19.31,3.71,2.34,3.39,4.53-.02.14-1.92,13.78-.02,24.24.39,2.17-1.05,4.26-3.22,4.65-.24.04-.48.07-.72.07h0Z"/>
        <path id="lxSteqeF2kVqYLz8nH2lT" class="cls-3" d="M786.1,670.89c-.08,0-.15,0-.23,0-2.21-.12-3.9-2.01-3.77-4.22.98-17.64-1.61-31.77-1.64-31.91-.41-2.17,1.02-4.26,3.19-4.67,2.17-.41,4.26,1.02,4.67,3.19.11.61,2.8,15.18,1.77,33.83-.12,2.13-1.88,3.78-3.99,3.78h0Z"/>
        <path id="Bp9X6dbjJ3casBiMifxZa" class="cls-3" d="M828.65,657.75c-2.21,0-4-1.79-4-4,0-9.65-1.87-16.34-1.89-16.4-.6-2.12.62-4.34,2.75-4.94,2.12-.61,4.33.61,4.94,2.73.09.31,2.2,7.75,2.2,18.61,0,2.21-1.79,4-4,4h0Z"/>
      </g>
    </g>
  </g>
</svg>